M48
; DRILL file KiCad 10.0.6 date 2026-10-08T12:14:13
; FORMAT={-:-/ absolute / metric / decimal}
; #@! TF.CreationDate,2026-10-08T12:14:13+02:00
; #@! TF.GenerationSoftware,Kicad,Pcbnew,10.0.6
; #@! TF.FileFunction,Plated,1,4,PTH
FMAT,2
METRIC
; #@! TA.AperFunction,Plated,PTH,ViaDrill
T1C0.300
; #@! TA.AperFunction,Plated,PTH,ComponentDrill
T2C0.600
; #@! TA.AperFunction,Plated,PTH,ComponentDrill
T3C0.950
; #@! TA.AperFunction,Plated,PTH,ComponentDrill
T4C1.000
; #@! TA.AperFunction,Plated,PTH,ComponentDrill
T5C3.200
%
G90
G05
T1
X107.5Y-131.062
X107.65Y-92.263
X107.75Y-94.662
X107.8Y-99.162
X112.05Y-114.962
X112.05Y-120.962
X112.05Y-126.962
X112.05Y-133.963
X113.15Y-108.562
X114.85Y-110.462
X115.05Y-91.962
X115.05Y-96.962
X115.05Y-102.962
X115.45Y-109.112
X116.85Y-108.662
X117.35Y-79.962
X119.05Y-84.962
X119.05Y-88.962
X119.05Y-91.962
X119.05Y-96.962
X119.05Y-102.962
X119.95Y-133.012
X120.05Y-114.962
X120.05Y-126.962
X121.85Y-116.962
X122.3Y-115.362
X123.05Y-88.962
X123.05Y-91.962
X123.05Y-96.962
X123.05Y-102.962
X123.55Y-139.062
X123.55Y-141.162
X124.05Y-77.662
X126.05Y-109.962
X126.05Y-114.962
X126.4Y-85.263
X127.05Y-91.962
X127.05Y-96.962
X127.05Y-105.962
X127.05Y-126.962
X127.05Y-132.963
X128.05Y-81.562
X130.05Y-91.962
X130.15Y-99.662
X130.15Y-101.862
X130.15Y-123.362
X130.95Y-84.062
X131.55Y-112.962
X131.95Y-101.862
X131.95Y-138.762
X132.0Y-111.362
X132.05Y-81.962
X132.05Y-126.962
X132.05Y-132.963
X132.25Y-83.462
X132.65Y-113.662
X133.05Y-110.712
X133.3Y-109.062
X133.45Y-84.862
X134.05Y-101.462
X134.55Y-96.262
X134.725Y-107.737
X135.05Y-84.962
X135.35Y-80.062
X135.85Y-94.262
X136.05Y-106.962
X136.05Y-124.962
X136.05Y-132.963
X136.45Y-89.962
X136.75Y-98.162
X136.8Y-92.862
X137.05Y-106.962
X137.35Y-89.763
X137.4Y-90.712
X137.7Y-107.462
X138.1Y-114.562
X138.1Y-116.962
X138.25Y-104.962
X138.45Y-109.762
X139.05Y-59.962
X139.05Y-84.962
X139.05Y-116.962
X139.05Y-133.162
X139.15Y-105.862
X139.15Y-115.862
X139.35Y-81.862
X139.375Y-96.462
X139.951Y-120.962
X140.05Y-94.962
X140.35Y-121.962
X140.75Y-101.712
X140.776Y-103.245
X140.9Y-122.362
X140.95Y-97.162
X141.05Y-93.862
X141.2Y-104.962
X141.75Y-123.062
X141.9Y-119.162
X142.05Y-105.262
X142.35Y-81.862
X142.85Y-130.762
X143.25Y-124.662
X143.9Y-57.162
X143.95Y-92.662
X144.05Y-57.962
X144.05Y-59.962
X144.15Y-108.162
X144.25Y-119.162
X144.85Y-105.062
X145.013Y-126.091
X145.05Y-101.012
X145.15Y-139.262
X145.55Y-141.162
X145.946Y-93.415
X146.29Y-104.352
X146.35Y-122.362
X146.45Y-123.462
X146.55Y-108.262
X146.85Y-137.162
X146.9Y-57.162
X147.05Y-84.962
X147.15Y-81.763
X147.3Y-108.212
X147.65Y-90.462
X147.75Y-130.762
X148.29Y-104.562
X148.45Y-133.088
X148.5Y-89.862
X148.65Y-93.362
X149.05Y-88.763
X149.25Y-108.162
X149.25Y-109.462
X149.45Y-99.212
X149.725Y-106.637
X149.75Y-93.562
X149.9Y-60.662
X150.25Y-141.262
X150.55Y-79.962
X150.8Y-91.662
X151.15Y-95.062
X151.25Y-133.062
X151.35Y-90.862
X152.05Y-84.962
X152.05Y-94.462
X152.25Y-104.062
X153.45Y-99.762
X154.05Y-91.962
X154.45Y-99.662
X154.75Y-144.463
X155.05Y-60.962
X155.05Y-107.962
X155.05Y-112.962
X155.05Y-119.962
X155.05Y-125.962
X155.05Y-131.963
X155.05Y-136.963
X156.8Y-98.612
X157.05Y-84.962
X157.9Y-99.212
X158.05Y-91.962
X160.55Y-107.112
X160.65Y-86.462
X160.75Y-106.062
X160.85Y-102.762
X160.95Y-100.962
X162.0Y-110.412
X162.05Y-91.962
X162.05Y-96.962
X162.55Y-107.162
X162.65Y-108.862
X162.95Y-104.762
X163.25Y-81.662
X163.45Y-126.862
X163.85Y-133.463
X164.05Y-84.962
X164.05Y-110.362
X164.45Y-144.862
X164.65Y-138.362
X164.75Y-111.262
X164.75Y-122.162
X165.15Y-127.962
X165.25Y-125.062
X165.95Y-81.662
X166.05Y-91.962
X166.05Y-96.962
X166.25Y-127.162
X166.85Y-122.6
X167.05Y-128.762
X168.05Y-81.862
X168.45Y-116.062
X169.019Y-120.481
X169.05Y-84.962
X169.45Y-112.262
X169.5Y-117.9
X169.85Y-133.662
X170.05Y-91.962
X170.05Y-96.962
X171.05Y-132.062
X171.75Y-130.062
X172.15Y-127.812
X172.4Y-127.079
X172.75Y-114.662
X172.9Y-123.312
X173.05Y-84.962
X173.15Y-128.062
X173.55Y-132.162
X173.65Y-138.162
X173.75Y-141.463
X174.05Y-91.962
X174.05Y-96.962
X174.65Y-86.862
X174.85Y-130.062
X175.45Y-111.462
X175.51Y-119.862
X175.6Y-129.262
X175.85Y-108.762
X175.95Y-107.062
X176.65Y-119.962
X176.85Y-117.962
X176.95Y-116.162
X176.95Y-129.762
X177.05Y-104.762
X177.1Y-127.012
X177.85Y-132.912
X178.05Y-91.962
X178.05Y-96.962
X178.55Y-138.262
X178.95Y-142.562
X179.05Y-116.992
X179.35Y-122.962
X180.2Y-120.512
X180.25Y-115.962
X180.45Y-81.862
X180.55Y-129.262
X180.55Y-133.162
X180.55Y-142.262
X181.15Y-116.962
X181.45Y-122.762
X181.45Y-134.862
X181.6Y-125.312
X181.75Y-120.562
X182.05Y-84.962
X182.05Y-87.962
X182.05Y-91.962
X182.05Y-96.962
X182.05Y-103.962
X182.05Y-112.962
X182.32Y-113.962
X182.75Y-142.562
X183.05Y-137.463
X183.55Y-119.462
X184.45Y-122.362
X185.2Y-121.862
X185.75Y-133.362
X185.95Y-129.162
X186.05Y-84.962
X186.05Y-87.962
X186.05Y-91.962
X186.05Y-96.962
X186.05Y-103.962
X186.05Y-115.962
X186.15Y-110.462
X186.95Y-107.762
X187.3Y-120.662
X187.35Y-135.963
X187.5Y-122.512
X188.5Y-122.062
X188.55Y-108.462
X188.85Y-111.462
X188.85Y-135.062
X189.05Y-84.962
X189.05Y-87.962
X189.05Y-91.962
X189.05Y-96.962
X189.05Y-103.962
X189.25Y-110.162
X189.25Y-127.662
X190.05Y-115.962
X190.85Y-130.762
X191.15Y-107.662
X191.25Y-112.562
X193.05Y-84.962
X193.05Y-87.962
X193.05Y-91.962
X193.05Y-96.962
X196.25Y-127.662
T3
X106.05Y-87.763
X106.05Y-90.263
X106.05Y-92.763
X106.05Y-95.262
X106.05Y-97.762
X106.05Y-100.262
X106.05Y-107.162
X106.05Y-109.662
X106.05Y-112.162
X106.05Y-118.412
X106.05Y-120.912
X106.05Y-123.412
X106.05Y-129.612
X106.05Y-132.112
X106.05Y-134.612
X118.21Y-143.002
X119.35Y-80.263
X120.71Y-143.002
X121.85Y-80.263
X123.21Y-143.002
X124.35Y-80.263
X125.71Y-143.002
X126.85Y-80.263
X128.21Y-143.002
X129.35Y-80.263
X130.71Y-143.002
X131.85Y-80.263
X138.75Y-80.302
X140.15Y-142.963
X141.25Y-80.302
X141.4Y-64.162
X142.65Y-142.963
X143.75Y-80.302
X143.9Y-64.162
X145.15Y-142.963
X146.25Y-80.302
X146.4Y-64.162
X147.65Y-142.963
X148.75Y-80.302
X148.9Y-64.162
X150.15Y-142.963
X151.4Y-64.162
X152.65Y-142.963
X153.9Y-64.162
X157.05Y-80.263
X159.55Y-80.263
X162.05Y-80.263
X164.55Y-80.263
X167.05Y-80.263
X169.55Y-80.263
X177.05Y-80.312
X179.55Y-80.312
X182.05Y-80.312
T4
X195.25Y-123.212
X195.25Y-125.712
T5
X110.05Y-79.962
X110.05Y-139.963
X133.9Y-60.162
X161.9Y-60.162
X190.05Y-79.962
X190.05Y-139.963
T2
G00X192.595Y-105.822
M15
G01X193.695Y-105.822
M16
G05
G00X192.595Y-114.462
M15
G01X193.695Y-114.462
M16
G05
G00X196.925Y-105.822
M15
G01X197.725Y-105.822
M16
G05
G00X196.925Y-114.462
M15
G01X197.725Y-114.462
M16
G05
M30
