%TF.GenerationSoftware,KiCad,Pcbnew,10.0.6*%
%TF.CreationDate,2026-10-07T11:24:25+02:00*%
%TF.ProjectId,1ST_Schematix,3153545f-5363-4686-956d-617469782e6b,rev?*%
%TF.SameCoordinates,Original*%
%TF.FileFunction,Copper,L3,Inr*%
%TF.FilePolarity,Positive*%
%FSLAX46Y46*%
G04 Gerber Fmt 4.6, Leading zero omitted, Abs format (unit mm)*
G04 Created by KiCad (PCBNEW 10.0.6) date 2026-10-07 11:24:25*
%MOMM*%
%LPD*%
G01*
G04 APERTURE LIST*
G04 Aperture macros list*
%AMRoundRect*
0 Rectangle with rounded corners*
0 $1 Rounding radius*
0 $2 $3 $4 $5 $6 $7 $8 $9 X,Y pos of 4 corners*
0 Add a 4 corners polygon primitive as box body*
4,1,4,$2,$3,$4,$5,$6,$7,$8,$9,$2,$3,0*
0 Add four circle primitives for the rounded corners*
1,1,$1+$1,$2,$3*
1,1,$1+$1,$4,$5*
1,1,$1+$1,$6,$7*
1,1,$1+$1,$8,$9*
0 Add four rect primitives between the rounded corners*
20,1,$1+$1,$2,$3,$4,$5,0*
20,1,$1+$1,$4,$5,$6,$7,0*
20,1,$1+$1,$6,$7,$8,$9,0*
20,1,$1+$1,$8,$9,$2,$3,0*%
G04 Aperture macros list end*
%TA.AperFunction,ComponentPad*%
%ADD10RoundRect,0.250000X0.600000X0.725000X-0.600000X0.725000X-0.600000X-0.725000X0.600000X-0.725000X0*%
%TD*%
%TA.AperFunction,ComponentPad*%
%ADD11O,1.700000X1.950000*%
%TD*%
%TA.AperFunction,ComponentPad*%
%ADD12RoundRect,0.250000X-0.725000X0.600000X-0.725000X-0.600000X0.725000X-0.600000X0.725000X0.600000X0*%
%TD*%
%TA.AperFunction,ComponentPad*%
%ADD13O,1.950000X1.700000*%
%TD*%
%TA.AperFunction,ComponentPad*%
%ADD14C,5.500000*%
%TD*%
%TA.AperFunction,ComponentPad*%
%ADD15O,2.100000X1.000000*%
%TD*%
%TA.AperFunction,ComponentPad*%
%ADD16O,1.800000X1.000000*%
%TD*%
%TA.AperFunction,ComponentPad*%
%ADD17RoundRect,0.250000X0.750000X-0.600000X0.750000X0.600000X-0.750000X0.600000X-0.750000X-0.600000X0*%
%TD*%
%TA.AperFunction,ComponentPad*%
%ADD18O,2.000000X1.700000*%
%TD*%
%TA.AperFunction,ComponentPad*%
%ADD19RoundRect,0.250000X-0.600000X-0.725000X0.600000X-0.725000X0.600000X0.725000X-0.600000X0.725000X0*%
%TD*%
%TA.AperFunction,ViaPad*%
%ADD20C,0.450000*%
%TD*%
%TA.AperFunction,ViaPad*%
%ADD21C,0.500000*%
%TD*%
G04 APERTURE END LIST*
D10*
%TO.N,/Connectors/RX_Bluetooth*%
%TO.C,J507*%
X182000000Y-80350000D03*
D11*
%TO.N,/Connectors/TX_Bluetooth*%
X179500000Y-80350000D03*
%TO.N,GND*%
X177000000Y-80350000D03*
%TD*%
D12*
%TO.N,+5V*%
%TO.C,J511*%
X106000000Y-107200000D03*
D13*
%TO.N,Net-(D502-DOUT)*%
X106000000Y-109700000D03*
%TO.N,GND*%
X106000000Y-112200000D03*
%TD*%
D14*
%TO.N,GND*%
%TO.C,H101*%
X110000000Y-80000000D03*
%TD*%
D10*
%TO.N,+3.3V*%
%TO.C,J504*%
X148700000Y-80340000D03*
D11*
%TO.N,GND*%
X146200000Y-80340000D03*
%TO.N,/SCL1*%
X143700000Y-80340000D03*
%TO.N,/SDA1*%
X141200000Y-80340000D03*
%TO.N,/Connectors/INT_Color*%
X138700000Y-80340000D03*
%TD*%
D15*
%TO.N,GND*%
%TO.C,J301*%
X193095000Y-114500000D03*
D16*
X197275000Y-114500000D03*
D15*
X193095000Y-105860000D03*
D16*
X197275000Y-105860000D03*
%TD*%
D10*
%TO.N,+3.3V*%
%TO.C,J510*%
X131800000Y-80300000D03*
D11*
%TO.N,GND*%
X129300000Y-80300000D03*
%TO.N,/SCL1*%
X126800000Y-80300000D03*
%TO.N,/SDA1*%
X124300000Y-80300000D03*
%TO.N,/TOF2_GPIO*%
X121800000Y-80300000D03*
%TO.N,/TOF2_XST*%
X119300000Y-80300000D03*
%TD*%
D14*
%TO.N,GND*%
%TO.C,H103*%
X110000000Y-140000000D03*
%TD*%
D12*
%TO.N,/Connectors/Servomot1*%
%TO.C,J502*%
X106000000Y-118450000D03*
D13*
%TO.N,+5V*%
X106000000Y-120950000D03*
%TO.N,GND*%
X106000000Y-123450000D03*
%TD*%
D14*
%TO.N,GND*%
%TO.C,H102*%
X190000000Y-80000000D03*
%TD*%
%TO.N,GND*%
%TO.C,H501_OUT401*%
X161850000Y-60200000D03*
%TD*%
D17*
%TO.N,+BATT*%
%TO.C,J302*%
X195200000Y-125750000D03*
D18*
%TO.N,GND*%
X195200000Y-123250000D03*
%TD*%
D14*
%TO.N,GND*%
%TO.C,H104*%
X190000000Y-140000000D03*
%TD*%
D19*
%TO.N,+3.3V*%
%TO.C,J511_OUT401*%
X141350000Y-64200000D03*
D11*
%TO.N,/Sensors&Driver/SDA_Mag_OUT*%
X143850000Y-64200000D03*
%TO.N,/Sensors&Driver/SCL_Mag_OUT*%
X146350000Y-64200000D03*
%TO.N,/Sensors&Driver/INT1_Mag_OUT*%
X148850000Y-64200000D03*
%TO.N,/Sensors&Driver/INT2_Mag_OUT*%
X151350000Y-64200000D03*
%TO.N,GND*%
X153850000Y-64200000D03*
%TD*%
D10*
%TO.N,+3.3V*%
%TO.C,J508*%
X169500000Y-80300000D03*
D11*
%TO.N,/SDA1*%
X167000000Y-80300000D03*
%TO.N,/SCL1*%
X164500000Y-80300000D03*
%TO.N,/Connectors/INT1_Mag*%
X162000000Y-80300000D03*
%TO.N,/Connectors/INT2_Mag*%
X159500000Y-80300000D03*
%TO.N,GND*%
X157000000Y-80300000D03*
%TD*%
D12*
%TO.N,/Connectors/Servomot2*%
%TO.C,J506*%
X106000000Y-129650000D03*
D13*
%TO.N,+5V*%
X106000000Y-132150000D03*
%TO.N,GND*%
X106000000Y-134650000D03*
%TD*%
D12*
%TO.N,+3.3V*%
%TO.C,J509*%
X106000000Y-87800000D03*
D13*
%TO.N,GND*%
X106000000Y-90300000D03*
%TO.N,/SCL1*%
X106000000Y-92800000D03*
%TO.N,/SDA1*%
X106000000Y-95300000D03*
%TO.N,/TOF1_GPIO*%
X106000000Y-97800000D03*
%TO.N,/TOF1_XST*%
X106000000Y-100300000D03*
%TD*%
D19*
%TO.N,/Connectors/1_Motor_+*%
%TO.C,J501*%
X140100000Y-143000000D03*
D11*
%TO.N,+3.3V*%
X142600000Y-143000000D03*
%TO.N,/Connectors/1_Encoder_A*%
X145100000Y-143000000D03*
%TO.N,/Connectors/1_Encoder_B*%
X147600000Y-143000000D03*
%TO.N,GND*%
X150100000Y-143000000D03*
%TO.N,/Connectors/1_Motor_-*%
X152600000Y-143000000D03*
%TD*%
D14*
%TO.N,GND*%
%TO.C,H502_OUT401*%
X133850000Y-60200000D03*
%TD*%
D19*
%TO.N,/Connectors/2_Motor_+*%
%TO.C,J503*%
X118160000Y-143040000D03*
D11*
%TO.N,+3.3V*%
X120660000Y-143040000D03*
%TO.N,/Connectors/2_Encoder_A*%
X123160000Y-143040000D03*
%TO.N,/Connectors/2_Encoder_B*%
X125660000Y-143040000D03*
%TO.N,GND*%
X128160000Y-143040000D03*
%TO.N,/Connectors/2_Motor_-*%
X130660000Y-143040000D03*
%TD*%
D20*
%TO.N,+5V*%
X144200000Y-119200000D03*
X146400000Y-123500000D03*
%TO.N,Net-(JP301-A)*%
X191200000Y-112600000D03*
X191100000Y-107700000D03*
X186900000Y-107800000D03*
X186100000Y-110500000D03*
X187300000Y-136000000D03*
%TO.N,VBUS*%
X166800000Y-122400000D03*
%TO.N,+3.3V*%
X182270000Y-114000000D03*
%TO.N,GND*%
X160900000Y-101000000D03*
X156750000Y-98650000D03*
X141850000Y-119200000D03*
X138400000Y-109800000D03*
X139100000Y-115900000D03*
X138050000Y-114600000D03*
X139900521Y-120999479D03*
X107750000Y-99200000D03*
X107450000Y-131100000D03*
X144962680Y-126128539D03*
D21*
%TO.N,*%
X190460000Y-59500000D03*
D20*
%TO.N,+3.3V*%
X180500000Y-142300000D03*
X130100000Y-123400000D03*
X160500000Y-107150000D03*
X140000000Y-95000000D03*
X151200000Y-133100000D03*
D21*
X149675000Y-106675000D03*
D20*
X146500000Y-108300000D03*
X138200000Y-105000000D03*
X147250000Y-108250000D03*
X175550000Y-129300000D03*
X181700000Y-120600000D03*
X165200000Y-125100000D03*
X179000000Y-117029381D03*
X126350000Y-85300000D03*
X132200000Y-83500000D03*
X139325000Y-96500000D03*
X165100000Y-128000000D03*
X151100000Y-95100000D03*
%TO.N,/Power/SYS*%
X175460000Y-119900000D03*
X167000000Y-128800000D03*
%TO.N,+5V*%
X169700000Y-117800000D03*
X139000000Y-133200000D03*
%TO.N,GND*%
X134500000Y-96300000D03*
X149000000Y-88800000D03*
X113100000Y-108600000D03*
X168400000Y-116100000D03*
X115000000Y-92000000D03*
X166200000Y-127200000D03*
X136400000Y-90000000D03*
X142800000Y-130800000D03*
X182000000Y-113000000D03*
X181400000Y-134900000D03*
X172700000Y-114700000D03*
X134000000Y-101500000D03*
X188500000Y-108500000D03*
X185900000Y-129200000D03*
X127000000Y-133000000D03*
X131900000Y-101900000D03*
X164600000Y-138400000D03*
X172350000Y-118850000D03*
X147000000Y-85000000D03*
X127000000Y-92000000D03*
X196200000Y-127700000D03*
X131900000Y-138800000D03*
X174200000Y-116600000D03*
X130000000Y-92000000D03*
X144000000Y-60000000D03*
X135300000Y-80100000D03*
X147700000Y-130800000D03*
X130100000Y-101900000D03*
X175800000Y-108800000D03*
X190000000Y-116000000D03*
X164400000Y-144900000D03*
X149850000Y-60700000D03*
X126000000Y-115000000D03*
X124000000Y-77700000D03*
X150200000Y-141300000D03*
X155000000Y-113000000D03*
X152000000Y-85000000D03*
X193000000Y-85000000D03*
X175900000Y-107100000D03*
X140900000Y-97200000D03*
X130900000Y-84100000D03*
X139100000Y-105900000D03*
X169600000Y-116800000D03*
X177050000Y-127050000D03*
X190800000Y-130800000D03*
X193000000Y-97000000D03*
D21*
X146240000Y-104390000D03*
D20*
X112000000Y-115000000D03*
X171000000Y-132100000D03*
X186000000Y-97000000D03*
X145000000Y-101050000D03*
X135000000Y-85000000D03*
X188800000Y-111500000D03*
X180150000Y-120550000D03*
X189000000Y-85000000D03*
X143900000Y-92700000D03*
X143200000Y-124700000D03*
X174800000Y-130100000D03*
X166000000Y-92000000D03*
X155000000Y-126000000D03*
X147100000Y-81800000D03*
X123000000Y-92000000D03*
X169400000Y-112300000D03*
X173000000Y-85000000D03*
X186000000Y-116000000D03*
X146850000Y-57200000D03*
X130100000Y-99700000D03*
X155000000Y-108000000D03*
X114800000Y-110500000D03*
X183500000Y-119500000D03*
X163400000Y-126900000D03*
X188450000Y-122100000D03*
X189000000Y-97000000D03*
X146300000Y-122400000D03*
X170000000Y-97000000D03*
X186000000Y-85000000D03*
X182000000Y-85000000D03*
X120000000Y-115000000D03*
X169000000Y-85000000D03*
X179300000Y-123000000D03*
X185700000Y-133400000D03*
X193000000Y-88000000D03*
X171700000Y-130100000D03*
X176800000Y-118000000D03*
X112000000Y-134000000D03*
X181400000Y-122800000D03*
X162500000Y-107200000D03*
X132000000Y-127000000D03*
X123000000Y-103000000D03*
X107600000Y-92300000D03*
X154700000Y-144500000D03*
X117300000Y-80000000D03*
X119000000Y-103000000D03*
X189000000Y-92000000D03*
X126000000Y-110000000D03*
X178500000Y-138300000D03*
X160700000Y-106100000D03*
X180500000Y-133200000D03*
X180200000Y-116000000D03*
X145100000Y-139300000D03*
X136700000Y-98200000D03*
X154400000Y-99700000D03*
X141000000Y-93900000D03*
X127000000Y-106000000D03*
X136000000Y-125000000D03*
X162000000Y-97000000D03*
X174000000Y-97000000D03*
X176900000Y-116200000D03*
X136750000Y-92900000D03*
X112000000Y-127000000D03*
X184400000Y-122400000D03*
X133400000Y-84900000D03*
X123500000Y-139100000D03*
X165900000Y-81700000D03*
X163200000Y-81700000D03*
X119000000Y-92000000D03*
X115000000Y-97000000D03*
X141700000Y-123100000D03*
X170000000Y-92000000D03*
X136000000Y-133000000D03*
X176600000Y-120000000D03*
X175400000Y-111500000D03*
X166000000Y-97000000D03*
X176900000Y-129800000D03*
X189000000Y-104000000D03*
X157000000Y-85000000D03*
X150500000Y-80000000D03*
X155000000Y-120000000D03*
X144100000Y-108200000D03*
X127000000Y-97000000D03*
X173100000Y-128100000D03*
X127000000Y-127000000D03*
X164700000Y-122200000D03*
X163800000Y-133500000D03*
X142000000Y-105300000D03*
X173500000Y-132200000D03*
X168000000Y-81900000D03*
X119000000Y-85000000D03*
X153400000Y-99800000D03*
X115000000Y-103000000D03*
X120000000Y-127000000D03*
X193000000Y-92000000D03*
X142300000Y-81900000D03*
X169800000Y-133700000D03*
X186000000Y-92000000D03*
X178000000Y-92000000D03*
X188800000Y-135100000D03*
X147600000Y-90500000D03*
X119900000Y-133050000D03*
X132000000Y-133000000D03*
X155000000Y-61000000D03*
X152200000Y-104100000D03*
X123000000Y-97000000D03*
X169800000Y-118800000D03*
X145500000Y-141200000D03*
X182000000Y-88000000D03*
X139000000Y-60000000D03*
X187250000Y-120700000D03*
X172850000Y-123350000D03*
X160800000Y-102800000D03*
X183000000Y-137500000D03*
X119000000Y-97000000D03*
D21*
X148240000Y-104600000D03*
D20*
X133000000Y-110750000D03*
X174000000Y-92000000D03*
X144000000Y-58000000D03*
X181100000Y-117000000D03*
X112000000Y-121000000D03*
X189000000Y-88000000D03*
X152000000Y-94500000D03*
X162600000Y-108900000D03*
X116800000Y-108700000D03*
X149200000Y-109500000D03*
X162000000Y-92000000D03*
X139300000Y-81900000D03*
X177000000Y-104800000D03*
X189200000Y-127700000D03*
X178900000Y-142600000D03*
X132000000Y-82000000D03*
X155000000Y-132000000D03*
X182000000Y-92000000D03*
X123000000Y-89000000D03*
X158000000Y-92000000D03*
X186000000Y-104000000D03*
X182700000Y-142600000D03*
X135800000Y-94300000D03*
X149200000Y-108200000D03*
X174600000Y-86900000D03*
X123500000Y-141200000D03*
X180500000Y-129300000D03*
X154000000Y-92000000D03*
X164000000Y-85000000D03*
X178000000Y-97000000D03*
X182000000Y-97000000D03*
X182000000Y-104000000D03*
X119000000Y-89000000D03*
X164700000Y-111300000D03*
X160600000Y-86500000D03*
X146800000Y-137200000D03*
X162900000Y-104800000D03*
X128000000Y-81600000D03*
X186000000Y-88000000D03*
X173600000Y-138200000D03*
X155000000Y-137000000D03*
X107700000Y-94700000D03*
X180400000Y-81900000D03*
X115400000Y-109150000D03*
X189200000Y-110200000D03*
X139000000Y-85000000D03*
%TO.N,/STM32/FAULT*%
X140725524Y-103282453D03*
X148400000Y-133125000D03*
%TO.N,/Connectors/INT_Color*%
X140700000Y-101750000D03*
X148450000Y-89900000D03*
%TO.N,+BATT*%
X187450000Y-122550000D03*
X185150000Y-121900000D03*
%TO.N,VBUS*%
X177800000Y-132950000D03*
%TO.N,/BMS_SDA*%
X164000000Y-110400000D03*
X161950000Y-110450000D03*
%TO.N,/Power/~{QON}*%
X144800000Y-105100000D03*
X172350000Y-127116881D03*
%TO.N,/Power/VBAT_TO_SHUNT*%
X181550000Y-125350000D03*
X173700000Y-141500000D03*
%TO.N,/Power/REGN*%
X172100000Y-127850000D03*
X168700000Y-120250000D03*
%TO.N,/STM32/LED_STATUS*%
X157850000Y-99250000D03*
X149400000Y-99250000D03*
%TO.N,/Sensors&Driver/INT2_Mag_OUT*%
X143850000Y-57200000D03*
%TO.N,/Connectors/RGB_IN*%
X133250000Y-109100000D03*
X137650000Y-107500000D03*
X141150000Y-105000000D03*
X134675000Y-107775000D03*
%TO.N,/STM32/TIM2_PWM_DRIVER1*%
X138050000Y-117000000D03*
X136000000Y-107000000D03*
%TO.N,/STM32/TIM2_PWM_DRIVER2*%
X137000000Y-107000000D03*
X139000000Y-117000000D03*
%TO.N,/Connectors/Servomot1*%
X140300000Y-122000000D03*
%TO.N,/Connectors/Servomot2*%
X140850000Y-122400000D03*
%TO.N,/TOF1_GPIO*%
X150750000Y-91700000D03*
%TO.N,/TOF1_XST*%
X151300000Y-90900000D03*
%TO.N,/STM32/SYS_SWDIO*%
X149700000Y-93600000D03*
X131950000Y-111400000D03*
%TO.N,/STM32/SYS_SWCLK*%
X131500000Y-113000000D03*
X148600000Y-93400000D03*
%TO.N,/STM32/SYS_SWO*%
X132600000Y-113700000D03*
X145896312Y-93452061D03*
%TO.N,/Connectors/2_Encoder_A*%
X137300000Y-89800000D03*
X122250000Y-115400000D03*
%TO.N,/Connectors/2_Encoder_B*%
X121800000Y-117000000D03*
X137350000Y-90750000D03*
%TD*%
%TA.AperFunction,Conductor*%
%TO.N,GND*%
G36*
X171242033Y-50820190D02*
G01*
X171287789Y-50872993D01*
X171298995Y-50924506D01*
X171298995Y-70099989D01*
X171298993Y-70165898D01*
X171298997Y-70165929D01*
X171299232Y-70166777D01*
X171314208Y-70222672D01*
X171314209Y-70222675D01*
X171317269Y-70234093D01*
X171333098Y-70293173D01*
X171333100Y-70293177D01*
X171333103Y-70293186D01*
X171365124Y-70348648D01*
X171398986Y-70407303D01*
X171398992Y-70407309D01*
X171398995Y-70407314D01*
X171445578Y-70453897D01*
X171492170Y-70500491D01*
X171492174Y-70500493D01*
X171492181Y-70500500D01*
X171550817Y-70534353D01*
X171550820Y-70534356D01*
X171550821Y-70534356D01*
X171605522Y-70565940D01*
X171606297Y-70566396D01*
X171607167Y-70566622D01*
X171665370Y-70582217D01*
X171665372Y-70582218D01*
X171665373Y-70582218D01*
X171733596Y-70600500D01*
X171805622Y-70600500D01*
X189925462Y-70601002D01*
X189925486Y-70601005D01*
X189934108Y-70601005D01*
X189993845Y-70601005D01*
X189998051Y-70601005D01*
X190001946Y-70601066D01*
X190586287Y-70619430D01*
X190594027Y-70619916D01*
X191174141Y-70674753D01*
X191181862Y-70675729D01*
X191757355Y-70766878D01*
X191764969Y-70768330D01*
X192333654Y-70895446D01*
X192341177Y-70897379D01*
X192900731Y-71059945D01*
X192908091Y-71062336D01*
X193456329Y-71259713D01*
X193463567Y-71262578D01*
X193998320Y-71493987D01*
X194005369Y-71497304D01*
X194524532Y-71761831D01*
X194531358Y-71765584D01*
X195032880Y-72062183D01*
X195039457Y-72066357D01*
X195521363Y-72393859D01*
X195527666Y-72398438D01*
X195988063Y-72755559D01*
X195994065Y-72760524D01*
X196431140Y-73145858D01*
X196436818Y-73151191D01*
X196848808Y-73563181D01*
X196854141Y-73568859D01*
X197239475Y-74005934D01*
X197244440Y-74011936D01*
X197601561Y-74472333D01*
X197606140Y-74478636D01*
X197933642Y-74960542D01*
X197937816Y-74967119D01*
X198234415Y-75468641D01*
X198238168Y-75475467D01*
X198502695Y-75994630D01*
X198506012Y-76001679D01*
X198737421Y-76536432D01*
X198740288Y-76543675D01*
X198937655Y-77091884D01*
X198940062Y-77099292D01*
X199102617Y-77658811D01*
X199104555Y-77666356D01*
X199231665Y-78235011D01*
X199233124Y-78242663D01*
X199324269Y-78818135D01*
X199325246Y-78825863D01*
X199380081Y-79405953D01*
X199380570Y-79413728D01*
X199398934Y-79998058D01*
X199398995Y-80001953D01*
X199398995Y-139998046D01*
X199398934Y-140001941D01*
X199380570Y-140586271D01*
X199380081Y-140594046D01*
X199325246Y-141174136D01*
X199324269Y-141181864D01*
X199233124Y-141757336D01*
X199231665Y-141764988D01*
X199104555Y-142333643D01*
X199102617Y-142341188D01*
X198940062Y-142900707D01*
X198937655Y-142908115D01*
X198740288Y-143456324D01*
X198737421Y-143463567D01*
X198506012Y-143998320D01*
X198502695Y-144005369D01*
X198238168Y-144524532D01*
X198234415Y-144531358D01*
X197937816Y-145032880D01*
X197933642Y-145039457D01*
X197606140Y-145521363D01*
X197601561Y-145527666D01*
X197244440Y-145988063D01*
X197239475Y-145994065D01*
X196854141Y-146431140D01*
X196848808Y-146436818D01*
X196436818Y-146848808D01*
X196431140Y-146854141D01*
X195994065Y-147239475D01*
X195988063Y-147244440D01*
X195527666Y-147601561D01*
X195521363Y-147606140D01*
X195039457Y-147933642D01*
X195032880Y-147937816D01*
X194531358Y-148234415D01*
X194524532Y-148238168D01*
X194005369Y-148502695D01*
X193998320Y-148506012D01*
X193463567Y-148737421D01*
X193456324Y-148740288D01*
X192908115Y-148937655D01*
X192900707Y-148940062D01*
X192341188Y-149102617D01*
X192333643Y-149104555D01*
X191764988Y-149231665D01*
X191757336Y-149233124D01*
X191181864Y-149324269D01*
X191174136Y-149325246D01*
X190594046Y-149380081D01*
X190586271Y-149380570D01*
X190303265Y-149389463D01*
X190001893Y-149398934D01*
X189998030Y-149398995D01*
X189926872Y-149398995D01*
X189925455Y-149399088D01*
X110002010Y-149499496D01*
X109997959Y-149499435D01*
X109407417Y-149480877D01*
X109399643Y-149480388D01*
X108813267Y-149424959D01*
X108805538Y-149423982D01*
X108223830Y-149331849D01*
X108216178Y-149330390D01*
X107641361Y-149201903D01*
X107633816Y-149199965D01*
X107068240Y-149035650D01*
X107060831Y-149033243D01*
X106506671Y-148833733D01*
X106499429Y-148830866D01*
X105958885Y-148596952D01*
X105951836Y-148593635D01*
X105427048Y-148326241D01*
X105420222Y-148322488D01*
X104913265Y-148022675D01*
X104906688Y-148018501D01*
X104419553Y-147687444D01*
X104413251Y-147682865D01*
X103947881Y-147321887D01*
X103941878Y-147316922D01*
X103500059Y-146927407D01*
X103494381Y-146922074D01*
X103077925Y-146505618D01*
X103072592Y-146499940D01*
X102683077Y-146058121D01*
X102678112Y-146052118D01*
X102317134Y-145586748D01*
X102312555Y-145580446D01*
X101981498Y-145093311D01*
X101977324Y-145086734D01*
X101677511Y-144579777D01*
X101673758Y-144572951D01*
X101426229Y-144087150D01*
X101406363Y-144048160D01*
X101403047Y-144041114D01*
X101386076Y-144001897D01*
X101169129Y-143500561D01*
X101166266Y-143493328D01*
X101155551Y-143463567D01*
X100966755Y-142939166D01*
X100964349Y-142931759D01*
X100929421Y-142811535D01*
X100800031Y-142366172D01*
X100798096Y-142358638D01*
X100776211Y-142260730D01*
X117109500Y-142260730D01*
X117109500Y-143819269D01*
X117112353Y-143849699D01*
X117112353Y-143849701D01*
X117144293Y-143940977D01*
X117157207Y-143977882D01*
X117237850Y-144087150D01*
X117347118Y-144167793D01*
X117389845Y-144182744D01*
X117475299Y-144212646D01*
X117505730Y-144215500D01*
X117505734Y-144215500D01*
X118814270Y-144215500D01*
X118844699Y-144212646D01*
X118844701Y-144212646D01*
X118908790Y-144190219D01*
X118972882Y-144167793D01*
X119082150Y-144087150D01*
X119162793Y-143977882D01*
X119185219Y-143913790D01*
X119207646Y-143849701D01*
X119207646Y-143849699D01*
X119210500Y-143819269D01*
X119210500Y-142811530D01*
X119609500Y-142811530D01*
X119609500Y-143268469D01*
X119649868Y-143471412D01*
X119649870Y-143471420D01*
X119729058Y-143662596D01*
X119844024Y-143834657D01*
X119990342Y-143980975D01*
X119990345Y-143980977D01*
X120162402Y-144095941D01*
X120353580Y-144175130D01*
X120542187Y-144212646D01*
X120556530Y-144215499D01*
X120556534Y-144215500D01*
X120556535Y-144215500D01*
X120763466Y-144215500D01*
X120763467Y-144215499D01*
X120966420Y-144175130D01*
X121157598Y-144095941D01*
X121329655Y-143980977D01*
X121475977Y-143834655D01*
X121590941Y-143662598D01*
X121670130Y-143471420D01*
X121710500Y-143268465D01*
X121710500Y-142811535D01*
X121710499Y-142811530D01*
X122109500Y-142811530D01*
X122109500Y-143268469D01*
X122149868Y-143471412D01*
X122149870Y-143471420D01*
X122229058Y-143662596D01*
X122344024Y-143834657D01*
X122490342Y-143980975D01*
X122490345Y-143980977D01*
X122662402Y-144095941D01*
X122853580Y-144175130D01*
X123042187Y-144212646D01*
X123056530Y-144215499D01*
X123056534Y-144215500D01*
X123056535Y-144215500D01*
X123263466Y-144215500D01*
X123263467Y-144215499D01*
X123466420Y-144175130D01*
X123657598Y-144095941D01*
X123829655Y-143980977D01*
X123975977Y-143834655D01*
X124090941Y-143662598D01*
X124170130Y-143471420D01*
X124210500Y-143268465D01*
X124210500Y-142811535D01*
X124210499Y-142811530D01*
X124609500Y-142811530D01*
X124609500Y-143268469D01*
X124649868Y-143471412D01*
X124649870Y-143471420D01*
X124729058Y-143662596D01*
X124844024Y-143834657D01*
X124990342Y-143980975D01*
X124990345Y-143980977D01*
X125162402Y-144095941D01*
X125353580Y-144175130D01*
X125542187Y-144212646D01*
X125556530Y-144215499D01*
X125556534Y-144215500D01*
X125556535Y-144215500D01*
X125763466Y-144215500D01*
X125763467Y-144215499D01*
X125966420Y-144175130D01*
X126157598Y-144095941D01*
X126329655Y-143980977D01*
X126475977Y-143834655D01*
X126590941Y-143662598D01*
X126670130Y-143471420D01*
X126710500Y-143268465D01*
X126710500Y-142811535D01*
X126710499Y-142811530D01*
X129609500Y-142811530D01*
X129609500Y-143268469D01*
X129649868Y-143471412D01*
X129649870Y-143471420D01*
X129729058Y-143662596D01*
X129844024Y-143834657D01*
X129990342Y-143980975D01*
X129990345Y-143980977D01*
X130162402Y-144095941D01*
X130353580Y-144175130D01*
X130542187Y-144212646D01*
X130556530Y-144215499D01*
X130556534Y-144215500D01*
X130556535Y-144215500D01*
X130763466Y-144215500D01*
X130763467Y-144215499D01*
X130966420Y-144175130D01*
X131157598Y-144095941D01*
X131329655Y-143980977D01*
X131475977Y-143834655D01*
X131590941Y-143662598D01*
X131670130Y-143471420D01*
X131710500Y-143268465D01*
X131710500Y-142811535D01*
X131670130Y-142608580D01*
X131590941Y-142417402D01*
X131503625Y-142286724D01*
X131503625Y-142286722D01*
X131475980Y-142245349D01*
X131475974Y-142245341D01*
X131451363Y-142220730D01*
X139049500Y-142220730D01*
X139049500Y-143779269D01*
X139052353Y-143809699D01*
X139052353Y-143809701D01*
X139097206Y-143937880D01*
X139097207Y-143937882D01*
X139177850Y-144047150D01*
X139287118Y-144127793D01*
X139308089Y-144135131D01*
X139415299Y-144172646D01*
X139445730Y-144175500D01*
X139445734Y-144175500D01*
X140754270Y-144175500D01*
X140784699Y-144172646D01*
X140784701Y-144172646D01*
X140848790Y-144150219D01*
X140912882Y-144127793D01*
X141022150Y-144047150D01*
X141102793Y-143937882D01*
X141133649Y-143849701D01*
X141147646Y-143809701D01*
X141147646Y-143809699D01*
X141150500Y-143779269D01*
X141150500Y-142771530D01*
X141549500Y-142771530D01*
X141549500Y-143228469D01*
X141589868Y-143431412D01*
X141589870Y-143431420D01*
X141669058Y-143622596D01*
X141784024Y-143794657D01*
X141930342Y-143940975D01*
X141930345Y-143940977D01*
X142102402Y-144055941D01*
X142293580Y-144135130D01*
X142457784Y-144167792D01*
X142496530Y-144175499D01*
X142496534Y-144175500D01*
X142496535Y-144175500D01*
X142703466Y-144175500D01*
X142703467Y-144175499D01*
X142906420Y-144135130D01*
X143097598Y-144055941D01*
X143269655Y-143940977D01*
X143415977Y-143794655D01*
X143530941Y-143622598D01*
X143610130Y-143431420D01*
X143650500Y-143228465D01*
X143650500Y-142771535D01*
X143650499Y-142771530D01*
X144049500Y-142771530D01*
X144049500Y-143228469D01*
X144089868Y-143431412D01*
X144089870Y-143431420D01*
X144169058Y-143622596D01*
X144284024Y-143794657D01*
X144430342Y-143940975D01*
X144430345Y-143940977D01*
X144602402Y-144055941D01*
X144793580Y-144135130D01*
X144957784Y-144167792D01*
X144996530Y-144175499D01*
X144996534Y-144175500D01*
X144996535Y-144175500D01*
X145203466Y-144175500D01*
X145203467Y-144175499D01*
X145406420Y-144135130D01*
X145597598Y-144055941D01*
X145769655Y-143940977D01*
X145915977Y-143794655D01*
X146030941Y-143622598D01*
X146110130Y-143431420D01*
X146150500Y-143228465D01*
X146150500Y-142771535D01*
X146150499Y-142771530D01*
X146549500Y-142771530D01*
X146549500Y-143228469D01*
X146589868Y-143431412D01*
X146589870Y-143431420D01*
X146669058Y-143622596D01*
X146784024Y-143794657D01*
X146930342Y-143940975D01*
X146930345Y-143940977D01*
X147102402Y-144055941D01*
X147293580Y-144135130D01*
X147457784Y-144167792D01*
X147496530Y-144175499D01*
X147496534Y-144175500D01*
X147496535Y-144175500D01*
X147703466Y-144175500D01*
X147703467Y-144175499D01*
X147906420Y-144135130D01*
X148097598Y-144055941D01*
X148269655Y-143940977D01*
X148415977Y-143794655D01*
X148530941Y-143622598D01*
X148610130Y-143431420D01*
X148650500Y-143228465D01*
X148650500Y-142771535D01*
X148650499Y-142771530D01*
X151549500Y-142771530D01*
X151549500Y-143228469D01*
X151589868Y-143431412D01*
X151589870Y-143431420D01*
X151669058Y-143622596D01*
X151784024Y-143794657D01*
X151930342Y-143940975D01*
X151930345Y-143940977D01*
X152102402Y-144055941D01*
X152293580Y-144135130D01*
X152457784Y-144167792D01*
X152496530Y-144175499D01*
X152496534Y-144175500D01*
X152496535Y-144175500D01*
X152703466Y-144175500D01*
X152703467Y-144175499D01*
X152906420Y-144135130D01*
X153097598Y-144055941D01*
X153269655Y-143940977D01*
X153415977Y-143794655D01*
X153530941Y-143622598D01*
X153610130Y-143431420D01*
X153650500Y-143228465D01*
X153650500Y-142771535D01*
X153610130Y-142568580D01*
X153530941Y-142377402D01*
X153441793Y-142243982D01*
X180074500Y-142243982D01*
X180074500Y-142356018D01*
X180103497Y-142464237D01*
X180159515Y-142561263D01*
X180238737Y-142640485D01*
X180335763Y-142696503D01*
X180443982Y-142725500D01*
X180443984Y-142725500D01*
X180556016Y-142725500D01*
X180556018Y-142725500D01*
X180664237Y-142696503D01*
X180761263Y-142640485D01*
X180840485Y-142561263D01*
X180896503Y-142464237D01*
X180925500Y-142356018D01*
X180925500Y-142243982D01*
X180896503Y-142135763D01*
X180840485Y-142038737D01*
X180761263Y-141959515D01*
X180679323Y-141912207D01*
X180664239Y-141903498D01*
X180664238Y-141903497D01*
X180664237Y-141903497D01*
X180556018Y-141874500D01*
X180443982Y-141874500D01*
X180335763Y-141903497D01*
X180335760Y-141903498D01*
X180238740Y-141959513D01*
X180238734Y-141959517D01*
X180159517Y-142038734D01*
X180159513Y-142038740D01*
X180103498Y-142135760D01*
X180103497Y-142135763D01*
X180074500Y-142243982D01*
X153441793Y-142243982D01*
X153415977Y-142205345D01*
X153415975Y-142205342D01*
X153269657Y-142059024D01*
X153157461Y-141984058D01*
X153097598Y-141944059D01*
X153052790Y-141925499D01*
X152906420Y-141864870D01*
X152906412Y-141864868D01*
X152703469Y-141824500D01*
X152703465Y-141824500D01*
X152496535Y-141824500D01*
X152496530Y-141824500D01*
X152293587Y-141864868D01*
X152293579Y-141864870D01*
X152102403Y-141944058D01*
X151930342Y-142059024D01*
X151784024Y-142205342D01*
X151669058Y-142377403D01*
X151589870Y-142568579D01*
X151589868Y-142568587D01*
X151549500Y-142771530D01*
X148650499Y-142771530D01*
X148610130Y-142568580D01*
X148530941Y-142377402D01*
X148415977Y-142205345D01*
X148415975Y-142205342D01*
X148269657Y-142059024D01*
X148157461Y-141984058D01*
X148097598Y-141944059D01*
X148052790Y-141925499D01*
X147906420Y-141864870D01*
X147906412Y-141864868D01*
X147703469Y-141824500D01*
X147703465Y-141824500D01*
X147496535Y-141824500D01*
X147496530Y-141824500D01*
X147293587Y-141864868D01*
X147293579Y-141864870D01*
X147102403Y-141944058D01*
X146930342Y-142059024D01*
X146784024Y-142205342D01*
X146669058Y-142377403D01*
X146589870Y-142568579D01*
X146589868Y-142568587D01*
X146549500Y-142771530D01*
X146150499Y-142771530D01*
X146110130Y-142568580D01*
X146030941Y-142377402D01*
X145915977Y-142205345D01*
X145915975Y-142205342D01*
X145769657Y-142059024D01*
X145657461Y-141984058D01*
X145597598Y-141944059D01*
X145552790Y-141925499D01*
X145406420Y-141864870D01*
X145406412Y-141864868D01*
X145203469Y-141824500D01*
X145203465Y-141824500D01*
X144996535Y-141824500D01*
X144996530Y-141824500D01*
X144793587Y-141864868D01*
X144793579Y-141864870D01*
X144602403Y-141944058D01*
X144430342Y-142059024D01*
X144284024Y-142205342D01*
X144169058Y-142377403D01*
X144089870Y-142568579D01*
X144089868Y-142568587D01*
X144049500Y-142771530D01*
X143650499Y-142771530D01*
X143610130Y-142568580D01*
X143530941Y-142377402D01*
X143415977Y-142205345D01*
X143415975Y-142205342D01*
X143269657Y-142059024D01*
X143157461Y-141984058D01*
X143097598Y-141944059D01*
X143052790Y-141925499D01*
X142906420Y-141864870D01*
X142906412Y-141864868D01*
X142703469Y-141824500D01*
X142703465Y-141824500D01*
X142496535Y-141824500D01*
X142496530Y-141824500D01*
X142293587Y-141864868D01*
X142293579Y-141864870D01*
X142102403Y-141944058D01*
X141930342Y-142059024D01*
X141784024Y-142205342D01*
X141669058Y-142377403D01*
X141589870Y-142568579D01*
X141589868Y-142568587D01*
X141549500Y-142771530D01*
X141150500Y-142771530D01*
X141150500Y-142220730D01*
X141147646Y-142190300D01*
X141147646Y-142190298D01*
X141102793Y-142062119D01*
X141102792Y-142062117D01*
X141022150Y-141952850D01*
X140912882Y-141872207D01*
X140912880Y-141872206D01*
X140784700Y-141827353D01*
X140754270Y-141824500D01*
X140754266Y-141824500D01*
X139445734Y-141824500D01*
X139445730Y-141824500D01*
X139415300Y-141827353D01*
X139415298Y-141827353D01*
X139287119Y-141872206D01*
X139287117Y-141872207D01*
X139177850Y-141952850D01*
X139097207Y-142062117D01*
X139097206Y-142062119D01*
X139052353Y-142190298D01*
X139052353Y-142190300D01*
X139049500Y-142220730D01*
X131451363Y-142220730D01*
X131329657Y-142099024D01*
X131239425Y-142038734D01*
X131157598Y-141984059D01*
X131082253Y-141952850D01*
X130966420Y-141904870D01*
X130966412Y-141904868D01*
X130763469Y-141864500D01*
X130763465Y-141864500D01*
X130556535Y-141864500D01*
X130556530Y-141864500D01*
X130353587Y-141904868D01*
X130353579Y-141904870D01*
X130162403Y-141984058D01*
X129990342Y-142099024D01*
X129844024Y-142245342D01*
X129729058Y-142417403D01*
X129649870Y-142608579D01*
X129649868Y-142608587D01*
X129609500Y-142811530D01*
X126710499Y-142811530D01*
X126670130Y-142608580D01*
X126590941Y-142417402D01*
X126475977Y-142245345D01*
X126475975Y-142245342D01*
X126329657Y-142099024D01*
X126239425Y-142038734D01*
X126157598Y-141984059D01*
X126082253Y-141952850D01*
X125966420Y-141904870D01*
X125966412Y-141904868D01*
X125763469Y-141864500D01*
X125763465Y-141864500D01*
X125556535Y-141864500D01*
X125556530Y-141864500D01*
X125353587Y-141904868D01*
X125353579Y-141904870D01*
X125162403Y-141984058D01*
X124990342Y-142099024D01*
X124844024Y-142245342D01*
X124729058Y-142417403D01*
X124649870Y-142608579D01*
X124649868Y-142608587D01*
X124609500Y-142811530D01*
X124210499Y-142811530D01*
X124170130Y-142608580D01*
X124090941Y-142417402D01*
X123975977Y-142245345D01*
X123975975Y-142245342D01*
X123829657Y-142099024D01*
X123739425Y-142038734D01*
X123657598Y-141984059D01*
X123582253Y-141952850D01*
X123466420Y-141904870D01*
X123466412Y-141904868D01*
X123263469Y-141864500D01*
X123263465Y-141864500D01*
X123056535Y-141864500D01*
X123056530Y-141864500D01*
X122853587Y-141904868D01*
X122853579Y-141904870D01*
X122662403Y-141984058D01*
X122490342Y-142099024D01*
X122344024Y-142245342D01*
X122229058Y-142417403D01*
X122149870Y-142608579D01*
X122149868Y-142608587D01*
X122109500Y-142811530D01*
X121710499Y-142811530D01*
X121670130Y-142608580D01*
X121590941Y-142417402D01*
X121475977Y-142245345D01*
X121475975Y-142245342D01*
X121329657Y-142099024D01*
X121239425Y-142038734D01*
X121157598Y-141984059D01*
X121082253Y-141952850D01*
X120966420Y-141904870D01*
X120966412Y-141904868D01*
X120763469Y-141864500D01*
X120763465Y-141864500D01*
X120556535Y-141864500D01*
X120556530Y-141864500D01*
X120353587Y-141904868D01*
X120353579Y-141904870D01*
X120162403Y-141984058D01*
X119990342Y-142099024D01*
X119844024Y-142245342D01*
X119729058Y-142417403D01*
X119649870Y-142608579D01*
X119649868Y-142608587D01*
X119609500Y-142811530D01*
X119210500Y-142811530D01*
X119210500Y-142260730D01*
X119207646Y-142230300D01*
X119207646Y-142230298D01*
X119162793Y-142102119D01*
X119162792Y-142102117D01*
X119082150Y-141992850D01*
X118972882Y-141912207D01*
X118972880Y-141912206D01*
X118844700Y-141867353D01*
X118814270Y-141864500D01*
X118814266Y-141864500D01*
X117505734Y-141864500D01*
X117505730Y-141864500D01*
X117475300Y-141867353D01*
X117475298Y-141867353D01*
X117347119Y-141912206D01*
X117347117Y-141912207D01*
X117237850Y-141992850D01*
X117157207Y-142102117D01*
X117157206Y-142102119D01*
X117112353Y-142230298D01*
X117112353Y-142230300D01*
X117109500Y-142260730D01*
X100776211Y-142260730D01*
X100669605Y-141783802D01*
X100668153Y-141776188D01*
X100615537Y-141443982D01*
X173274500Y-141443982D01*
X173274500Y-141556018D01*
X173303497Y-141664237D01*
X173359515Y-141761263D01*
X173438737Y-141840485D01*
X173535763Y-141896503D01*
X173643982Y-141925500D01*
X173643984Y-141925500D01*
X173756016Y-141925500D01*
X173756018Y-141925500D01*
X173864237Y-141896503D01*
X173961263Y-141840485D01*
X174040485Y-141761263D01*
X174096503Y-141664237D01*
X174125500Y-141556018D01*
X174125500Y-141443982D01*
X174096503Y-141335763D01*
X174040485Y-141238737D01*
X173961263Y-141159515D01*
X173864237Y-141103497D01*
X173756018Y-141074500D01*
X173643982Y-141074500D01*
X173535763Y-141103497D01*
X173535760Y-141103498D01*
X173438740Y-141159513D01*
X173438734Y-141159517D01*
X173359517Y-141238734D01*
X173359513Y-141238740D01*
X173303498Y-141335760D01*
X173303497Y-141335763D01*
X173274500Y-141443982D01*
X100615537Y-141443982D01*
X100576016Y-141194459D01*
X100575040Y-141186732D01*
X100573849Y-141174136D01*
X100519610Y-140600340D01*
X100519123Y-140592598D01*
X100500563Y-140002047D01*
X100500503Y-139997970D01*
X100500611Y-139933697D01*
X100507294Y-135943982D01*
X186874500Y-135943982D01*
X186874500Y-136056018D01*
X186903497Y-136164237D01*
X186959515Y-136261263D01*
X187038737Y-136340485D01*
X187135763Y-136396503D01*
X187243982Y-136425500D01*
X187243984Y-136425500D01*
X187356016Y-136425500D01*
X187356018Y-136425500D01*
X187464237Y-136396503D01*
X187561263Y-136340485D01*
X187640485Y-136261263D01*
X187696503Y-136164237D01*
X187725500Y-136056018D01*
X187725500Y-135943982D01*
X187696503Y-135835763D01*
X187640485Y-135738737D01*
X187561263Y-135659515D01*
X187464237Y-135603497D01*
X187356018Y-135574500D01*
X187243982Y-135574500D01*
X187135763Y-135603497D01*
X187135760Y-135603498D01*
X187038740Y-135659513D01*
X187038734Y-135659517D01*
X186959517Y-135738734D01*
X186959513Y-135738740D01*
X186903498Y-135835760D01*
X186903497Y-135835763D01*
X186874500Y-135943982D01*
X100507294Y-135943982D01*
X100513823Y-132046530D01*
X104824500Y-132046530D01*
X104824500Y-132253469D01*
X104864868Y-132456412D01*
X104864870Y-132456420D01*
X104944058Y-132647596D01*
X105059024Y-132819657D01*
X105205342Y-132965975D01*
X105205345Y-132965977D01*
X105377402Y-133080941D01*
X105568580Y-133160130D01*
X105771530Y-133200499D01*
X105771534Y-133200500D01*
X105771535Y-133200500D01*
X106228466Y-133200500D01*
X106228467Y-133200499D01*
X106431420Y-133160130D01*
X106470404Y-133143982D01*
X138574500Y-133143982D01*
X138574500Y-133256018D01*
X138603497Y-133364237D01*
X138659515Y-133461263D01*
X138738737Y-133540485D01*
X138835763Y-133596503D01*
X138943982Y-133625500D01*
X138943984Y-133625500D01*
X139056016Y-133625500D01*
X139056018Y-133625500D01*
X139164237Y-133596503D01*
X139261263Y-133540485D01*
X139340485Y-133461263D01*
X139396503Y-133364237D01*
X139425500Y-133256018D01*
X139425500Y-133143982D01*
X139405404Y-133068982D01*
X147974500Y-133068982D01*
X147974500Y-133181018D01*
X147996799Y-133264237D01*
X148003497Y-133289236D01*
X148003498Y-133289239D01*
X148004218Y-133290486D01*
X148059515Y-133386263D01*
X148138737Y-133465485D01*
X148235763Y-133521503D01*
X148343982Y-133550500D01*
X148343984Y-133550500D01*
X148456016Y-133550500D01*
X148456018Y-133550500D01*
X148564237Y-133521503D01*
X148661263Y-133465485D01*
X148740485Y-133386263D01*
X148796503Y-133289237D01*
X148825500Y-133181018D01*
X148825500Y-133068982D01*
X148818801Y-133043982D01*
X150774500Y-133043982D01*
X150774500Y-133156018D01*
X150803497Y-133264237D01*
X150859515Y-133361263D01*
X150938737Y-133440485D01*
X151035763Y-133496503D01*
X151143982Y-133525500D01*
X151143984Y-133525500D01*
X151256016Y-133525500D01*
X151256018Y-133525500D01*
X151364237Y-133496503D01*
X151461263Y-133440485D01*
X151540485Y-133361263D01*
X151596503Y-133264237D01*
X151625500Y-133156018D01*
X151625500Y-133043982D01*
X151596503Y-132935763D01*
X151572381Y-132893982D01*
X177374500Y-132893982D01*
X177374500Y-133006018D01*
X177403497Y-133114237D01*
X177459515Y-133211263D01*
X177538737Y-133290485D01*
X177635763Y-133346503D01*
X177743982Y-133375500D01*
X177743984Y-133375500D01*
X177856016Y-133375500D01*
X177856018Y-133375500D01*
X177964237Y-133346503D01*
X178061263Y-133290485D01*
X178140485Y-133211263D01*
X178196503Y-133114237D01*
X178225500Y-133006018D01*
X178225500Y-132893982D01*
X178196503Y-132785763D01*
X178140485Y-132688737D01*
X178061263Y-132609515D01*
X177964237Y-132553497D01*
X177856018Y-132524500D01*
X177743982Y-132524500D01*
X177635763Y-132553497D01*
X177635760Y-132553498D01*
X177538740Y-132609513D01*
X177538734Y-132609517D01*
X177459517Y-132688734D01*
X177459513Y-132688740D01*
X177403498Y-132785760D01*
X177403497Y-132785763D01*
X177374500Y-132893982D01*
X151572381Y-132893982D01*
X151540485Y-132838737D01*
X151461263Y-132759515D01*
X151364237Y-132703497D01*
X151256018Y-132674500D01*
X151143982Y-132674500D01*
X151035763Y-132703497D01*
X151035760Y-132703498D01*
X150938740Y-132759513D01*
X150938734Y-132759517D01*
X150859517Y-132838734D01*
X150859513Y-132838740D01*
X150803498Y-132935760D01*
X150803497Y-132935763D01*
X150774500Y-133043982D01*
X148818801Y-133043982D01*
X148796503Y-132960763D01*
X148740485Y-132863737D01*
X148661263Y-132784515D01*
X148564237Y-132728497D01*
X148456018Y-132699500D01*
X148343982Y-132699500D01*
X148235763Y-132728497D01*
X148235760Y-132728498D01*
X148138740Y-132784513D01*
X148138734Y-132784517D01*
X148059517Y-132863734D01*
X148059513Y-132863740D01*
X148003498Y-132960760D01*
X148003498Y-132960761D01*
X148003497Y-132960763D01*
X147974500Y-133068982D01*
X139405404Y-133068982D01*
X139396503Y-133035763D01*
X139340485Y-132938737D01*
X139261263Y-132859515D01*
X139192227Y-132819657D01*
X139164239Y-132803498D01*
X139164238Y-132803497D01*
X139164237Y-132803497D01*
X139056018Y-132774500D01*
X138943982Y-132774500D01*
X138835763Y-132803497D01*
X138835760Y-132803498D01*
X138738740Y-132859513D01*
X138738734Y-132859517D01*
X138659517Y-132938734D01*
X138659513Y-132938740D01*
X138603498Y-133035760D01*
X138603497Y-133035763D01*
X138574500Y-133143982D01*
X106470404Y-133143982D01*
X106622598Y-133080941D01*
X106622599Y-133080940D01*
X106622600Y-133080940D01*
X106694713Y-133032756D01*
X106694718Y-133032752D01*
X106794655Y-132965977D01*
X106940977Y-132819655D01*
X107055941Y-132647598D01*
X107135130Y-132456420D01*
X107175500Y-132253465D01*
X107175500Y-132046535D01*
X107135130Y-131843580D01*
X107055941Y-131652402D01*
X106940977Y-131480345D01*
X106940975Y-131480342D01*
X106794657Y-131334024D01*
X106708626Y-131276541D01*
X106622598Y-131219059D01*
X106431420Y-131139870D01*
X106431412Y-131139868D01*
X106228469Y-131099500D01*
X106228465Y-131099500D01*
X105771535Y-131099500D01*
X105771530Y-131099500D01*
X105568587Y-131139868D01*
X105568579Y-131139870D01*
X105377403Y-131219058D01*
X105205342Y-131334024D01*
X105059024Y-131480342D01*
X104944058Y-131652403D01*
X104864870Y-131843579D01*
X104864868Y-131843587D01*
X104824500Y-132046530D01*
X100513823Y-132046530D01*
X100518933Y-128995730D01*
X104824500Y-128995730D01*
X104824500Y-130304269D01*
X104827353Y-130334699D01*
X104827353Y-130334701D01*
X104872206Y-130462880D01*
X104872207Y-130462882D01*
X104952850Y-130572150D01*
X105062118Y-130652793D01*
X105104845Y-130667744D01*
X105190299Y-130697646D01*
X105220730Y-130700500D01*
X105220734Y-130700500D01*
X106779270Y-130700500D01*
X106809699Y-130697646D01*
X106809701Y-130697646D01*
X106873790Y-130675219D01*
X106937882Y-130652793D01*
X107047150Y-130572150D01*
X107127793Y-130462882D01*
X107150219Y-130398790D01*
X107172646Y-130334701D01*
X107172646Y-130334699D01*
X107175500Y-130304269D01*
X107175500Y-129243982D01*
X175124500Y-129243982D01*
X175124500Y-129356018D01*
X175153497Y-129464237D01*
X175209515Y-129561263D01*
X175288737Y-129640485D01*
X175385763Y-129696503D01*
X175493982Y-129725500D01*
X175493984Y-129725500D01*
X175606016Y-129725500D01*
X175606018Y-129725500D01*
X175714237Y-129696503D01*
X175811263Y-129640485D01*
X175890485Y-129561263D01*
X175946503Y-129464237D01*
X175975500Y-129356018D01*
X175975500Y-129243982D01*
X175946503Y-129135763D01*
X175890485Y-129038737D01*
X175811263Y-128959515D01*
X175714237Y-128903497D01*
X175606018Y-128874500D01*
X175493982Y-128874500D01*
X175385763Y-128903497D01*
X175385760Y-128903498D01*
X175288740Y-128959513D01*
X175288734Y-128959517D01*
X175209517Y-129038734D01*
X175209513Y-129038740D01*
X175153498Y-129135760D01*
X175153497Y-129135763D01*
X175124500Y-129243982D01*
X107175500Y-129243982D01*
X107175500Y-128995730D01*
X107172646Y-128965300D01*
X107172646Y-128965298D01*
X107127793Y-128837119D01*
X107127793Y-128837118D01*
X107059056Y-128743982D01*
X166574500Y-128743982D01*
X166574500Y-128856018D01*
X166602233Y-128959517D01*
X166603497Y-128964236D01*
X166603498Y-128964239D01*
X166604111Y-128965300D01*
X166659515Y-129061263D01*
X166738737Y-129140485D01*
X166835763Y-129196503D01*
X166943982Y-129225500D01*
X166943984Y-129225500D01*
X167056016Y-129225500D01*
X167056018Y-129225500D01*
X167164237Y-129196503D01*
X167261263Y-129140485D01*
X167340485Y-129061263D01*
X167396503Y-128964237D01*
X167425500Y-128856018D01*
X167425500Y-128743982D01*
X167396503Y-128635763D01*
X167340485Y-128538737D01*
X167261263Y-128459515D01*
X167164237Y-128403497D01*
X167056018Y-128374500D01*
X166943982Y-128374500D01*
X166835763Y-128403497D01*
X166835760Y-128403498D01*
X166738740Y-128459513D01*
X166738734Y-128459517D01*
X166659517Y-128538734D01*
X166659513Y-128538740D01*
X166603498Y-128635760D01*
X166603497Y-128635763D01*
X166574500Y-128743982D01*
X107059056Y-128743982D01*
X107047150Y-128727850D01*
X106937882Y-128647207D01*
X106937880Y-128647206D01*
X106809700Y-128602353D01*
X106779270Y-128599500D01*
X106779266Y-128599500D01*
X105220734Y-128599500D01*
X105220730Y-128599500D01*
X105190300Y-128602353D01*
X105190298Y-128602353D01*
X105062119Y-128647206D01*
X105062117Y-128647207D01*
X104952850Y-128727850D01*
X104872207Y-128837117D01*
X104872206Y-128837119D01*
X104827353Y-128965298D01*
X104827353Y-128965300D01*
X104824500Y-128995730D01*
X100518933Y-128995730D01*
X100520695Y-127943982D01*
X164674500Y-127943982D01*
X164674500Y-128056018D01*
X164703497Y-128164237D01*
X164759515Y-128261263D01*
X164838737Y-128340485D01*
X164935763Y-128396503D01*
X165043982Y-128425500D01*
X165043984Y-128425500D01*
X165156016Y-128425500D01*
X165156018Y-128425500D01*
X165264237Y-128396503D01*
X165361263Y-128340485D01*
X165440485Y-128261263D01*
X165496503Y-128164237D01*
X165525500Y-128056018D01*
X165525500Y-127943982D01*
X165496503Y-127835763D01*
X165472381Y-127793982D01*
X171674500Y-127793982D01*
X171674500Y-127906018D01*
X171703497Y-128014237D01*
X171759515Y-128111263D01*
X171838737Y-128190485D01*
X171935763Y-128246503D01*
X172043982Y-128275500D01*
X172043984Y-128275500D01*
X172156016Y-128275500D01*
X172156018Y-128275500D01*
X172264237Y-128246503D01*
X172361263Y-128190485D01*
X172440485Y-128111263D01*
X172496503Y-128014237D01*
X172525500Y-127906018D01*
X172525500Y-127793982D01*
X172496503Y-127685763D01*
X172488292Y-127671542D01*
X172471822Y-127603642D01*
X172494674Y-127537616D01*
X172533677Y-127502159D01*
X172611263Y-127457366D01*
X172690485Y-127378144D01*
X172746503Y-127281118D01*
X172775500Y-127172899D01*
X172775500Y-127060863D01*
X172746503Y-126952644D01*
X172690485Y-126855618D01*
X172611263Y-126776396D01*
X172514237Y-126720378D01*
X172406018Y-126691381D01*
X172293982Y-126691381D01*
X172185763Y-126720378D01*
X172185760Y-126720379D01*
X172088740Y-126776394D01*
X172088734Y-126776398D01*
X172009517Y-126855615D01*
X172009513Y-126855621D01*
X171953498Y-126952641D01*
X171953497Y-126952644D01*
X171924500Y-127060863D01*
X171924500Y-127172898D01*
X171953497Y-127281117D01*
X171953498Y-127281120D01*
X171961707Y-127295339D01*
X171978177Y-127363239D01*
X171955324Y-127429266D01*
X171916319Y-127464723D01*
X171838737Y-127509515D01*
X171838734Y-127509517D01*
X171759517Y-127588734D01*
X171759513Y-127588740D01*
X171703498Y-127685760D01*
X171703497Y-127685763D01*
X171674500Y-127793982D01*
X165472381Y-127793982D01*
X165440485Y-127738737D01*
X165361263Y-127659515D01*
X165264237Y-127603497D01*
X165156018Y-127574500D01*
X165043982Y-127574500D01*
X164935763Y-127603497D01*
X164935760Y-127603498D01*
X164838740Y-127659513D01*
X164838734Y-127659517D01*
X164759517Y-127738734D01*
X164759513Y-127738740D01*
X164703498Y-127835760D01*
X164703497Y-127835763D01*
X164674500Y-127943982D01*
X100520695Y-127943982D01*
X100525553Y-125043982D01*
X164774500Y-125043982D01*
X164774500Y-125156018D01*
X164803497Y-125264237D01*
X164859515Y-125361263D01*
X164938737Y-125440485D01*
X165035763Y-125496503D01*
X165143982Y-125525500D01*
X165143984Y-125525500D01*
X165256016Y-125525500D01*
X165256018Y-125525500D01*
X165364237Y-125496503D01*
X165461263Y-125440485D01*
X165540485Y-125361263D01*
X165579330Y-125293982D01*
X181124500Y-125293982D01*
X181124500Y-125406018D01*
X181153497Y-125514237D01*
X181209515Y-125611263D01*
X181288737Y-125690485D01*
X181385763Y-125746503D01*
X181493982Y-125775500D01*
X181493984Y-125775500D01*
X181606016Y-125775500D01*
X181606018Y-125775500D01*
X181714237Y-125746503D01*
X181811263Y-125690485D01*
X181890485Y-125611263D01*
X181946503Y-125514237D01*
X181975500Y-125406018D01*
X181975500Y-125293982D01*
X181946503Y-125185763D01*
X181929330Y-125156018D01*
X181928648Y-125154836D01*
X181928647Y-125154835D01*
X181917733Y-125135933D01*
X181894522Y-125095730D01*
X193999500Y-125095730D01*
X193999500Y-126404269D01*
X194002353Y-126434699D01*
X194002353Y-126434701D01*
X194047206Y-126562880D01*
X194047207Y-126562882D01*
X194127850Y-126672150D01*
X194237118Y-126752793D01*
X194279845Y-126767744D01*
X194365299Y-126797646D01*
X194395730Y-126800500D01*
X194395734Y-126800500D01*
X196004270Y-126800500D01*
X196034699Y-126797646D01*
X196034701Y-126797646D01*
X196098790Y-126775219D01*
X196162882Y-126752793D01*
X196272150Y-126672150D01*
X196352793Y-126562882D01*
X196375219Y-126498790D01*
X196397646Y-126434701D01*
X196397646Y-126434699D01*
X196400500Y-126404269D01*
X196400500Y-125095730D01*
X196397646Y-125065300D01*
X196397646Y-125065298D01*
X196364006Y-124969163D01*
X196352793Y-124937118D01*
X196272150Y-124827850D01*
X196162882Y-124747207D01*
X196162880Y-124747206D01*
X196034700Y-124702353D01*
X196004270Y-124699500D01*
X196004266Y-124699500D01*
X194395734Y-124699500D01*
X194395730Y-124699500D01*
X194365300Y-124702353D01*
X194365298Y-124702353D01*
X194237119Y-124747206D01*
X194237117Y-124747207D01*
X194127850Y-124827850D01*
X194047207Y-124937117D01*
X194047206Y-124937119D01*
X194002353Y-125065298D01*
X194002353Y-125065300D01*
X193999500Y-125095730D01*
X181894522Y-125095730D01*
X181890485Y-125088737D01*
X181811263Y-125009515D01*
X181714237Y-124953497D01*
X181606018Y-124924500D01*
X181493982Y-124924500D01*
X181385763Y-124953497D01*
X181385760Y-124953498D01*
X181288740Y-125009513D01*
X181288734Y-125009517D01*
X181209517Y-125088734D01*
X181209513Y-125088740D01*
X181153498Y-125185760D01*
X181153497Y-125185763D01*
X181124500Y-125293982D01*
X165579330Y-125293982D01*
X165596503Y-125264237D01*
X165625500Y-125156018D01*
X165625500Y-125043982D01*
X165596503Y-124935763D01*
X165540485Y-124838737D01*
X165461263Y-124759515D01*
X165364237Y-124703497D01*
X165256018Y-124674500D01*
X165143982Y-124674500D01*
X165035763Y-124703497D01*
X165035760Y-124703498D01*
X164938740Y-124759513D01*
X164938734Y-124759517D01*
X164859517Y-124838734D01*
X164859513Y-124838740D01*
X164803498Y-124935760D01*
X164803497Y-124935763D01*
X164774500Y-125043982D01*
X100525553Y-125043982D01*
X100528400Y-123343982D01*
X129674500Y-123343982D01*
X129674500Y-123456018D01*
X129703497Y-123564237D01*
X129759515Y-123661263D01*
X129838737Y-123740485D01*
X129935763Y-123796503D01*
X130043982Y-123825500D01*
X130043984Y-123825500D01*
X130156016Y-123825500D01*
X130156018Y-123825500D01*
X130264237Y-123796503D01*
X130361263Y-123740485D01*
X130440485Y-123661263D01*
X130496503Y-123564237D01*
X130525500Y-123456018D01*
X130525500Y-123443982D01*
X145974500Y-123443982D01*
X145974500Y-123556018D01*
X146003497Y-123664237D01*
X146059515Y-123761263D01*
X146138737Y-123840485D01*
X146235763Y-123896503D01*
X146343982Y-123925500D01*
X146343984Y-123925500D01*
X146456016Y-123925500D01*
X146456018Y-123925500D01*
X146564237Y-123896503D01*
X146661263Y-123840485D01*
X146740485Y-123761263D01*
X146796503Y-123664237D01*
X146825500Y-123556018D01*
X146825500Y-123443982D01*
X146796503Y-123335763D01*
X146740485Y-123238737D01*
X146661263Y-123159515D01*
X146564237Y-123103497D01*
X146456018Y-123074500D01*
X146343982Y-123074500D01*
X146235763Y-123103497D01*
X146235760Y-123103498D01*
X146138740Y-123159513D01*
X146138734Y-123159517D01*
X146059517Y-123238734D01*
X146059513Y-123238740D01*
X146003498Y-123335760D01*
X146003497Y-123335763D01*
X145974500Y-123443982D01*
X130525500Y-123443982D01*
X130525500Y-123343982D01*
X130496503Y-123235763D01*
X130440485Y-123138737D01*
X130361263Y-123059515D01*
X130264237Y-123003497D01*
X130156018Y-122974500D01*
X130043982Y-122974500D01*
X129935763Y-123003497D01*
X129935760Y-123003498D01*
X129838740Y-123059513D01*
X129838734Y-123059517D01*
X129759517Y-123138734D01*
X129759513Y-123138740D01*
X129703498Y-123235760D01*
X129703497Y-123235763D01*
X129674500Y-123343982D01*
X100528400Y-123343982D01*
X100532584Y-120846530D01*
X104824500Y-120846530D01*
X104824500Y-121053469D01*
X104864868Y-121256412D01*
X104864870Y-121256420D01*
X104944058Y-121447596D01*
X105059024Y-121619657D01*
X105205342Y-121765975D01*
X105205345Y-121765977D01*
X105377402Y-121880941D01*
X105568580Y-121960130D01*
X105733071Y-121992849D01*
X105771530Y-122000499D01*
X105771534Y-122000500D01*
X105771535Y-122000500D01*
X106228466Y-122000500D01*
X106228467Y-122000499D01*
X106431420Y-121960130D01*
X106470404Y-121943982D01*
X139874500Y-121943982D01*
X139874500Y-122056018D01*
X139903497Y-122164237D01*
X139959515Y-122261263D01*
X140038737Y-122340485D01*
X140135763Y-122396503D01*
X140243982Y-122425500D01*
X140243984Y-122425500D01*
X140321174Y-122425500D01*
X140388213Y-122445185D01*
X140433968Y-122497989D01*
X140440949Y-122517406D01*
X140453497Y-122564238D01*
X140453498Y-122564239D01*
X140509515Y-122661263D01*
X140588737Y-122740485D01*
X140685763Y-122796503D01*
X140793982Y-122825500D01*
X140793984Y-122825500D01*
X140906016Y-122825500D01*
X140906018Y-122825500D01*
X141014237Y-122796503D01*
X141111263Y-122740485D01*
X141190485Y-122661263D01*
X141246503Y-122564237D01*
X141275500Y-122456018D01*
X141275500Y-122343982D01*
X166374500Y-122343982D01*
X166374500Y-122456018D01*
X166403497Y-122564237D01*
X166459515Y-122661263D01*
X166538737Y-122740485D01*
X166635763Y-122796503D01*
X166743982Y-122825500D01*
X166743984Y-122825500D01*
X166856016Y-122825500D01*
X166856018Y-122825500D01*
X166964237Y-122796503D01*
X167061263Y-122740485D01*
X167140485Y-122661263D01*
X167196503Y-122564237D01*
X167215328Y-122493982D01*
X187024500Y-122493982D01*
X187024500Y-122606018D01*
X187053497Y-122714237D01*
X187109515Y-122811263D01*
X187188737Y-122890485D01*
X187285763Y-122946503D01*
X187393982Y-122975500D01*
X187393984Y-122975500D01*
X187506016Y-122975500D01*
X187506018Y-122975500D01*
X187614237Y-122946503D01*
X187711263Y-122890485D01*
X187790485Y-122811263D01*
X187846503Y-122714237D01*
X187875500Y-122606018D01*
X187875500Y-122493982D01*
X187846503Y-122385763D01*
X187790485Y-122288737D01*
X187711263Y-122209515D01*
X187632839Y-122164237D01*
X187614239Y-122153498D01*
X187614238Y-122153497D01*
X187614237Y-122153497D01*
X187506018Y-122124500D01*
X187393982Y-122124500D01*
X187285763Y-122153497D01*
X187285760Y-122153498D01*
X187188740Y-122209513D01*
X187188734Y-122209517D01*
X187109517Y-122288734D01*
X187109513Y-122288740D01*
X187053498Y-122385760D01*
X187053497Y-122385763D01*
X187024500Y-122493982D01*
X167215328Y-122493982D01*
X167225500Y-122456018D01*
X167225500Y-122343982D01*
X167196503Y-122235763D01*
X167140485Y-122138737D01*
X167061263Y-122059515D01*
X166964237Y-122003497D01*
X166856018Y-121974500D01*
X166743982Y-121974500D01*
X166635763Y-122003497D01*
X166635760Y-122003498D01*
X166538740Y-122059513D01*
X166538734Y-122059517D01*
X166459517Y-122138734D01*
X166459513Y-122138740D01*
X166403498Y-122235760D01*
X166403497Y-122235763D01*
X166374500Y-122343982D01*
X141275500Y-122343982D01*
X141246503Y-122235763D01*
X141190485Y-122138737D01*
X141111263Y-122059515D01*
X141014237Y-122003497D01*
X140906018Y-121974500D01*
X140828826Y-121974500D01*
X140802106Y-121966654D01*
X140774644Y-121962036D01*
X140769045Y-121956946D01*
X140761787Y-121954815D01*
X140743553Y-121933772D01*
X140722944Y-121915037D01*
X140718669Y-121905054D01*
X140716032Y-121902011D01*
X140709051Y-121882593D01*
X140705129Y-121867955D01*
X140705127Y-121867950D01*
X140698705Y-121843982D01*
X184724500Y-121843982D01*
X184724500Y-121956018D01*
X184753497Y-122064237D01*
X184809515Y-122161263D01*
X184888737Y-122240485D01*
X184985763Y-122296503D01*
X185093982Y-122325500D01*
X185093984Y-122325500D01*
X185206016Y-122325500D01*
X185206018Y-122325500D01*
X185314237Y-122296503D01*
X185411263Y-122240485D01*
X185490485Y-122161263D01*
X185546503Y-122064237D01*
X185575500Y-121956018D01*
X185575500Y-121843982D01*
X185546503Y-121735763D01*
X185490485Y-121638737D01*
X185411263Y-121559515D01*
X185314237Y-121503497D01*
X185206018Y-121474500D01*
X185093982Y-121474500D01*
X184985763Y-121503497D01*
X184985760Y-121503498D01*
X184888740Y-121559513D01*
X184888734Y-121559517D01*
X184809517Y-121638734D01*
X184809513Y-121638740D01*
X184753498Y-121735760D01*
X184753497Y-121735763D01*
X184724500Y-121843982D01*
X140698705Y-121843982D01*
X140696503Y-121835763D01*
X140640485Y-121738737D01*
X140561263Y-121659515D01*
X140492227Y-121619657D01*
X140464239Y-121603498D01*
X140464238Y-121603497D01*
X140464237Y-121603497D01*
X140356018Y-121574500D01*
X140243982Y-121574500D01*
X140135763Y-121603497D01*
X140135760Y-121603498D01*
X140038740Y-121659513D01*
X140038734Y-121659517D01*
X139959517Y-121738734D01*
X139959513Y-121738740D01*
X139903498Y-121835760D01*
X139903497Y-121835763D01*
X139874500Y-121943982D01*
X106470404Y-121943982D01*
X106622598Y-121880941D01*
X106622599Y-121880940D01*
X106622600Y-121880940D01*
X106694713Y-121832756D01*
X106694718Y-121832752D01*
X106794655Y-121765977D01*
X106940977Y-121619655D01*
X107055941Y-121447598D01*
X107135130Y-121256420D01*
X107175500Y-121053465D01*
X107175500Y-120846535D01*
X107135130Y-120643580D01*
X107055941Y-120452402D01*
X106940977Y-120280345D01*
X106940975Y-120280342D01*
X106854615Y-120193982D01*
X168274500Y-120193982D01*
X168274500Y-120306018D01*
X168303497Y-120414237D01*
X168359515Y-120511263D01*
X168438737Y-120590485D01*
X168535763Y-120646503D01*
X168643982Y-120675500D01*
X168643984Y-120675500D01*
X168756016Y-120675500D01*
X168756018Y-120675500D01*
X168864237Y-120646503D01*
X168961263Y-120590485D01*
X169007766Y-120543982D01*
X181274500Y-120543982D01*
X181274500Y-120656018D01*
X181303497Y-120764237D01*
X181359515Y-120861263D01*
X181438737Y-120940485D01*
X181535763Y-120996503D01*
X181643982Y-121025500D01*
X181643984Y-121025500D01*
X181756016Y-121025500D01*
X181756018Y-121025500D01*
X181864237Y-120996503D01*
X181961263Y-120940485D01*
X182040485Y-120861263D01*
X182096503Y-120764237D01*
X182125500Y-120656018D01*
X182125500Y-120543982D01*
X182096503Y-120435763D01*
X182040485Y-120338737D01*
X181961263Y-120259515D01*
X181864237Y-120203497D01*
X181756018Y-120174500D01*
X181643982Y-120174500D01*
X181535763Y-120203497D01*
X181535760Y-120203498D01*
X181438740Y-120259513D01*
X181438734Y-120259517D01*
X181359517Y-120338734D01*
X181359513Y-120338740D01*
X181303498Y-120435760D01*
X181303497Y-120435763D01*
X181274500Y-120543982D01*
X169007766Y-120543982D01*
X169040485Y-120511263D01*
X169096503Y-120414237D01*
X169125500Y-120306018D01*
X169125500Y-120193982D01*
X169096503Y-120085763D01*
X169040485Y-119988737D01*
X168961263Y-119909515D01*
X168864237Y-119853497D01*
X168828726Y-119843982D01*
X175034500Y-119843982D01*
X175034500Y-119956018D01*
X175063497Y-120064237D01*
X175119515Y-120161263D01*
X175198737Y-120240485D01*
X175295763Y-120296503D01*
X175403982Y-120325500D01*
X175403984Y-120325500D01*
X175516016Y-120325500D01*
X175516018Y-120325500D01*
X175624237Y-120296503D01*
X175721263Y-120240485D01*
X175800485Y-120161263D01*
X175856503Y-120064237D01*
X175885500Y-119956018D01*
X175885500Y-119843982D01*
X175856503Y-119735763D01*
X175800485Y-119638737D01*
X175721263Y-119559515D01*
X175624237Y-119503497D01*
X175516018Y-119474500D01*
X175403982Y-119474500D01*
X175295763Y-119503497D01*
X175295760Y-119503498D01*
X175198740Y-119559513D01*
X175198734Y-119559517D01*
X175119517Y-119638734D01*
X175119513Y-119638740D01*
X175063498Y-119735760D01*
X175063497Y-119735763D01*
X175034500Y-119843982D01*
X168828726Y-119843982D01*
X168756018Y-119824500D01*
X168643982Y-119824500D01*
X168535763Y-119853497D01*
X168535760Y-119853498D01*
X168438740Y-119909513D01*
X168438734Y-119909517D01*
X168359517Y-119988734D01*
X168359513Y-119988740D01*
X168303498Y-120085760D01*
X168303497Y-120085763D01*
X168274500Y-120193982D01*
X106854615Y-120193982D01*
X106794657Y-120134024D01*
X106690211Y-120064236D01*
X106622598Y-120019059D01*
X106549387Y-119988734D01*
X106431420Y-119939870D01*
X106431412Y-119939868D01*
X106228469Y-119899500D01*
X106228465Y-119899500D01*
X105771535Y-119899500D01*
X105771530Y-119899500D01*
X105568587Y-119939868D01*
X105568579Y-119939870D01*
X105377403Y-120019058D01*
X105205342Y-120134024D01*
X105059024Y-120280342D01*
X104944058Y-120452403D01*
X104864870Y-120643579D01*
X104864868Y-120643587D01*
X104824500Y-120846530D01*
X100532584Y-120846530D01*
X100537694Y-117795730D01*
X104824500Y-117795730D01*
X104824500Y-119104269D01*
X104827353Y-119134699D01*
X104827353Y-119134701D01*
X104869805Y-119256018D01*
X104872207Y-119262882D01*
X104952850Y-119372150D01*
X105062118Y-119452793D01*
X105086313Y-119461259D01*
X105190299Y-119497646D01*
X105220730Y-119500500D01*
X105220734Y-119500500D01*
X106779270Y-119500500D01*
X106809699Y-119497646D01*
X106809701Y-119497646D01*
X106875847Y-119474500D01*
X106937882Y-119452793D01*
X107047150Y-119372150D01*
X107127793Y-119262882D01*
X107150219Y-119198790D01*
X107169398Y-119143982D01*
X143774500Y-119143982D01*
X143774500Y-119256017D01*
X143803497Y-119364236D01*
X143803498Y-119364239D01*
X143822169Y-119396579D01*
X143859515Y-119461263D01*
X143938737Y-119540485D01*
X144035763Y-119596503D01*
X144143982Y-119625500D01*
X144143984Y-119625500D01*
X144256016Y-119625500D01*
X144256018Y-119625500D01*
X144364237Y-119596503D01*
X144461263Y-119540485D01*
X144540485Y-119461263D01*
X144596503Y-119364237D01*
X144625500Y-119256018D01*
X144625500Y-119143982D01*
X144596503Y-119035763D01*
X144540485Y-118938737D01*
X144461263Y-118859515D01*
X144364237Y-118803497D01*
X144256018Y-118774500D01*
X144143982Y-118774500D01*
X144035763Y-118803497D01*
X144035760Y-118803498D01*
X143938740Y-118859513D01*
X143938734Y-118859517D01*
X143859517Y-118938734D01*
X143859513Y-118938740D01*
X143803498Y-119035760D01*
X143803497Y-119035763D01*
X143774500Y-119143982D01*
X107169398Y-119143982D01*
X107172646Y-119134701D01*
X107172646Y-119134699D01*
X107173624Y-119124276D01*
X107173624Y-119124275D01*
X107175500Y-119104271D01*
X107175500Y-117795730D01*
X107172646Y-117765305D01*
X107172646Y-117765301D01*
X107165186Y-117743982D01*
X169274500Y-117743982D01*
X169274500Y-117856018D01*
X169303497Y-117964237D01*
X169359515Y-118061263D01*
X169438737Y-118140485D01*
X169535763Y-118196503D01*
X169643982Y-118225500D01*
X169643984Y-118225500D01*
X169756016Y-118225500D01*
X169756018Y-118225500D01*
X169864237Y-118196503D01*
X169961263Y-118140485D01*
X170040485Y-118061263D01*
X170096503Y-117964237D01*
X170125500Y-117856018D01*
X170125500Y-117743982D01*
X170096503Y-117635763D01*
X170040485Y-117538737D01*
X169961263Y-117459515D01*
X169864237Y-117403497D01*
X169756018Y-117374500D01*
X169643982Y-117374500D01*
X169535763Y-117403497D01*
X169535760Y-117403498D01*
X169438740Y-117459513D01*
X169438734Y-117459517D01*
X169359517Y-117538734D01*
X169359513Y-117538740D01*
X169303498Y-117635760D01*
X169303497Y-117635763D01*
X169274500Y-117743982D01*
X107165186Y-117743982D01*
X107127793Y-117637119D01*
X107127792Y-117637117D01*
X107126793Y-117635763D01*
X107047150Y-117527850D01*
X106937882Y-117447207D01*
X106937880Y-117447206D01*
X106809700Y-117402353D01*
X106779270Y-117399500D01*
X106779266Y-117399500D01*
X105220734Y-117399500D01*
X105220730Y-117399500D01*
X105190300Y-117402353D01*
X105190298Y-117402353D01*
X105062119Y-117447206D01*
X105062117Y-117447207D01*
X104952850Y-117527850D01*
X104872207Y-117637117D01*
X104872206Y-117637119D01*
X104827353Y-117765298D01*
X104827353Y-117765300D01*
X104824500Y-117795730D01*
X100537694Y-117795730D01*
X100539121Y-116943982D01*
X121374500Y-116943982D01*
X121374500Y-117056018D01*
X121382373Y-117085398D01*
X121403497Y-117164236D01*
X121403498Y-117164239D01*
X121411907Y-117178804D01*
X121459515Y-117261263D01*
X121538737Y-117340485D01*
X121635763Y-117396503D01*
X121743982Y-117425500D01*
X121743984Y-117425500D01*
X121856016Y-117425500D01*
X121856018Y-117425500D01*
X121964237Y-117396503D01*
X122061263Y-117340485D01*
X122140485Y-117261263D01*
X122196503Y-117164237D01*
X122225500Y-117056018D01*
X122225500Y-116943982D01*
X137624500Y-116943982D01*
X137624500Y-117056018D01*
X137632373Y-117085398D01*
X137653497Y-117164236D01*
X137653498Y-117164239D01*
X137661907Y-117178804D01*
X137709515Y-117261263D01*
X137788737Y-117340485D01*
X137885763Y-117396503D01*
X137993982Y-117425500D01*
X137993984Y-117425500D01*
X138106016Y-117425500D01*
X138106018Y-117425500D01*
X138214237Y-117396503D01*
X138311263Y-117340485D01*
X138390485Y-117261263D01*
X138417614Y-117214273D01*
X138468179Y-117166060D01*
X138536786Y-117152836D01*
X138601651Y-117178804D01*
X138632385Y-117214272D01*
X138659515Y-117261263D01*
X138738737Y-117340485D01*
X138835763Y-117396503D01*
X138943982Y-117425500D01*
X138943984Y-117425500D01*
X139056016Y-117425500D01*
X139056018Y-117425500D01*
X139164237Y-117396503D01*
X139261263Y-117340485D01*
X139340485Y-117261263D01*
X139396503Y-117164237D01*
X139425500Y-117056018D01*
X139425500Y-116973363D01*
X178574500Y-116973363D01*
X178574500Y-117085399D01*
X178603497Y-117193618D01*
X178659515Y-117290644D01*
X178738737Y-117369866D01*
X178835763Y-117425884D01*
X178943982Y-117454881D01*
X178943984Y-117454881D01*
X179056016Y-117454881D01*
X179056018Y-117454881D01*
X179164237Y-117425884D01*
X179261263Y-117369866D01*
X179340485Y-117290644D01*
X179396503Y-117193618D01*
X179425500Y-117085399D01*
X179425500Y-116973363D01*
X179396503Y-116865144D01*
X179340485Y-116768118D01*
X179261263Y-116688896D01*
X179164237Y-116632878D01*
X179056018Y-116603881D01*
X178943982Y-116603881D01*
X178835763Y-116632878D01*
X178835760Y-116632879D01*
X178738740Y-116688894D01*
X178738734Y-116688898D01*
X178659517Y-116768115D01*
X178659513Y-116768121D01*
X178603498Y-116865141D01*
X178603497Y-116865144D01*
X178574500Y-116973363D01*
X139425500Y-116973363D01*
X139425500Y-116943982D01*
X139396503Y-116835763D01*
X139340485Y-116738737D01*
X139261263Y-116659515D01*
X139164237Y-116603497D01*
X139056018Y-116574500D01*
X138943982Y-116574500D01*
X138835763Y-116603497D01*
X138835760Y-116603498D01*
X138738740Y-116659513D01*
X138738734Y-116659517D01*
X138659517Y-116738734D01*
X138659513Y-116738740D01*
X138632387Y-116785724D01*
X138581820Y-116833940D01*
X138513213Y-116847163D01*
X138448348Y-116821195D01*
X138417613Y-116785724D01*
X138407446Y-116768115D01*
X138390485Y-116738737D01*
X138311263Y-116659515D01*
X138214237Y-116603497D01*
X138106018Y-116574500D01*
X137993982Y-116574500D01*
X137885763Y-116603497D01*
X137885760Y-116603498D01*
X137788740Y-116659513D01*
X137788734Y-116659517D01*
X137709517Y-116738734D01*
X137709513Y-116738740D01*
X137653498Y-116835760D01*
X137653497Y-116835763D01*
X137624500Y-116943982D01*
X122225500Y-116943982D01*
X122196503Y-116835763D01*
X122140485Y-116738737D01*
X122061263Y-116659515D01*
X121964237Y-116603497D01*
X121856018Y-116574500D01*
X121743982Y-116574500D01*
X121635763Y-116603497D01*
X121635760Y-116603498D01*
X121538740Y-116659513D01*
X121538734Y-116659517D01*
X121459517Y-116738734D01*
X121459513Y-116738740D01*
X121403498Y-116835760D01*
X121403497Y-116835763D01*
X121374500Y-116943982D01*
X100539121Y-116943982D01*
X100541801Y-115343982D01*
X121824500Y-115343982D01*
X121824500Y-115456018D01*
X121853497Y-115564237D01*
X121909515Y-115661263D01*
X121988737Y-115740485D01*
X122085763Y-115796503D01*
X122193982Y-115825500D01*
X122193984Y-115825500D01*
X122306016Y-115825500D01*
X122306018Y-115825500D01*
X122414237Y-115796503D01*
X122511263Y-115740485D01*
X122590485Y-115661263D01*
X122646503Y-115564237D01*
X122675500Y-115456018D01*
X122675500Y-115343982D01*
X122646503Y-115235763D01*
X122590485Y-115138737D01*
X122511263Y-115059515D01*
X122414237Y-115003497D01*
X122306018Y-114974500D01*
X122193982Y-114974500D01*
X122085763Y-115003497D01*
X122085760Y-115003498D01*
X121988740Y-115059513D01*
X121988734Y-115059517D01*
X121909517Y-115138734D01*
X121909513Y-115138740D01*
X121853498Y-115235760D01*
X121853497Y-115235763D01*
X121824500Y-115343982D01*
X100541801Y-115343982D01*
X100544649Y-113643982D01*
X132174500Y-113643982D01*
X132174500Y-113756018D01*
X132203497Y-113864237D01*
X132259515Y-113961263D01*
X132338737Y-114040485D01*
X132435763Y-114096503D01*
X132543982Y-114125500D01*
X132543984Y-114125500D01*
X132656016Y-114125500D01*
X132656018Y-114125500D01*
X132764237Y-114096503D01*
X132861263Y-114040485D01*
X132940485Y-113961263D01*
X132950462Y-113943982D01*
X181844500Y-113943982D01*
X181844500Y-114056018D01*
X181873497Y-114164237D01*
X181929515Y-114261263D01*
X182008737Y-114340485D01*
X182105763Y-114396503D01*
X182213982Y-114425500D01*
X182213984Y-114425500D01*
X182326016Y-114425500D01*
X182326018Y-114425500D01*
X182434237Y-114396503D01*
X182531263Y-114340485D01*
X182610485Y-114261263D01*
X182666503Y-114164237D01*
X182695500Y-114056018D01*
X182695500Y-113943982D01*
X182666503Y-113835763D01*
X182610485Y-113738737D01*
X182531263Y-113659515D01*
X182434237Y-113603497D01*
X182326018Y-113574500D01*
X182213982Y-113574500D01*
X182105763Y-113603497D01*
X182105760Y-113603498D01*
X182008740Y-113659513D01*
X182008734Y-113659517D01*
X181929517Y-113738734D01*
X181929513Y-113738740D01*
X181873498Y-113835760D01*
X181873497Y-113835763D01*
X181844500Y-113943982D01*
X132950462Y-113943982D01*
X132996503Y-113864237D01*
X133025500Y-113756018D01*
X133025500Y-113643982D01*
X132996503Y-113535763D01*
X132940485Y-113438737D01*
X132861263Y-113359515D01*
X132764237Y-113303497D01*
X132656018Y-113274500D01*
X132543982Y-113274500D01*
X132435763Y-113303497D01*
X132435760Y-113303498D01*
X132338740Y-113359513D01*
X132338734Y-113359517D01*
X132259517Y-113438734D01*
X132259513Y-113438740D01*
X132203498Y-113535760D01*
X132203497Y-113535763D01*
X132174500Y-113643982D01*
X100544649Y-113643982D01*
X100545821Y-112943982D01*
X131074500Y-112943982D01*
X131074500Y-113056018D01*
X131103497Y-113164237D01*
X131159515Y-113261263D01*
X131238737Y-113340485D01*
X131335763Y-113396503D01*
X131443982Y-113425500D01*
X131443984Y-113425500D01*
X131556016Y-113425500D01*
X131556018Y-113425500D01*
X131664237Y-113396503D01*
X131761263Y-113340485D01*
X131840485Y-113261263D01*
X131896503Y-113164237D01*
X131925500Y-113056018D01*
X131925500Y-112943982D01*
X131896503Y-112835763D01*
X131840485Y-112738737D01*
X131761263Y-112659515D01*
X131664237Y-112603497D01*
X131556018Y-112574500D01*
X131443982Y-112574500D01*
X131335763Y-112603497D01*
X131335760Y-112603498D01*
X131238740Y-112659513D01*
X131238734Y-112659517D01*
X131159517Y-112738734D01*
X131159513Y-112738740D01*
X131103498Y-112835760D01*
X131103497Y-112835763D01*
X131074500Y-112943982D01*
X100545821Y-112943982D01*
X100546491Y-112543982D01*
X190774500Y-112543982D01*
X190774500Y-112656018D01*
X190803497Y-112764237D01*
X190859515Y-112861263D01*
X190938737Y-112940485D01*
X191035763Y-112996503D01*
X191143982Y-113025500D01*
X191143984Y-113025500D01*
X191256016Y-113025500D01*
X191256018Y-113025500D01*
X191299004Y-113013982D01*
X193169500Y-113013982D01*
X193169500Y-113126018D01*
X193198497Y-113234237D01*
X193254515Y-113331263D01*
X193333737Y-113410485D01*
X193430763Y-113466503D01*
X193538982Y-113495500D01*
X193538984Y-113495500D01*
X193651016Y-113495500D01*
X193651018Y-113495500D01*
X193759237Y-113466503D01*
X193856263Y-113410485D01*
X193935485Y-113331263D01*
X193991503Y-113234237D01*
X194020500Y-113126018D01*
X194020500Y-113013982D01*
X193991503Y-112905763D01*
X193935485Y-112808737D01*
X193856263Y-112729515D01*
X193759237Y-112673497D01*
X193651018Y-112644500D01*
X193538982Y-112644500D01*
X193430763Y-112673497D01*
X193430760Y-112673498D01*
X193333740Y-112729513D01*
X193333734Y-112729517D01*
X193254517Y-112808734D01*
X193254513Y-112808740D01*
X193198498Y-112905760D01*
X193198497Y-112905763D01*
X193169500Y-113013982D01*
X191299004Y-113013982D01*
X191364237Y-112996503D01*
X191461263Y-112940485D01*
X191540485Y-112861263D01*
X191596503Y-112764237D01*
X191625500Y-112656018D01*
X191625500Y-112543982D01*
X191596503Y-112435763D01*
X191540485Y-112338737D01*
X191461263Y-112259515D01*
X191364237Y-112203497D01*
X191256018Y-112174500D01*
X191143982Y-112174500D01*
X191035763Y-112203497D01*
X191035760Y-112203498D01*
X190938740Y-112259513D01*
X190938734Y-112259517D01*
X190859517Y-112338734D01*
X190859513Y-112338740D01*
X190803498Y-112435760D01*
X190803497Y-112435763D01*
X190774500Y-112543982D01*
X100546491Y-112543982D01*
X100548501Y-111343982D01*
X131524500Y-111343982D01*
X131524500Y-111456018D01*
X131553497Y-111564237D01*
X131609515Y-111661263D01*
X131688737Y-111740485D01*
X131785763Y-111796503D01*
X131893982Y-111825500D01*
X131893984Y-111825500D01*
X132006016Y-111825500D01*
X132006018Y-111825500D01*
X132114237Y-111796503D01*
X132211263Y-111740485D01*
X132290485Y-111661263D01*
X132346503Y-111564237D01*
X132375500Y-111456018D01*
X132375500Y-111343982D01*
X132346503Y-111235763D01*
X132290485Y-111138737D01*
X132211263Y-111059515D01*
X132114237Y-111003497D01*
X132006018Y-110974500D01*
X131893982Y-110974500D01*
X131785763Y-111003497D01*
X131785760Y-111003498D01*
X131688740Y-111059513D01*
X131688734Y-111059517D01*
X131609517Y-111138734D01*
X131609513Y-111138740D01*
X131553498Y-111235760D01*
X131553497Y-111235763D01*
X131524500Y-111343982D01*
X100548501Y-111343982D01*
X100551428Y-109596530D01*
X104824500Y-109596530D01*
X104824500Y-109803469D01*
X104864868Y-110006412D01*
X104864870Y-110006420D01*
X104944058Y-110197596D01*
X105059024Y-110369657D01*
X105205342Y-110515975D01*
X105205345Y-110515977D01*
X105377402Y-110630941D01*
X105568580Y-110710130D01*
X105721171Y-110740482D01*
X105771530Y-110750499D01*
X105771534Y-110750500D01*
X105771535Y-110750500D01*
X106228466Y-110750500D01*
X106228467Y-110750499D01*
X106431420Y-110710130D01*
X106622598Y-110630941D01*
X106794655Y-110515977D01*
X106916650Y-110393982D01*
X161524500Y-110393982D01*
X161524500Y-110506018D01*
X161553497Y-110614237D01*
X161609515Y-110711263D01*
X161688737Y-110790485D01*
X161785763Y-110846503D01*
X161893982Y-110875500D01*
X161893984Y-110875500D01*
X162006016Y-110875500D01*
X162006018Y-110875500D01*
X162114237Y-110846503D01*
X162211263Y-110790485D01*
X162290485Y-110711263D01*
X162346503Y-110614237D01*
X162375500Y-110506018D01*
X162375500Y-110393982D01*
X162362103Y-110343982D01*
X163574500Y-110343982D01*
X163574500Y-110456018D01*
X163603497Y-110564237D01*
X163659515Y-110661263D01*
X163738737Y-110740485D01*
X163835763Y-110796503D01*
X163943982Y-110825500D01*
X163943984Y-110825500D01*
X164056016Y-110825500D01*
X164056018Y-110825500D01*
X164164237Y-110796503D01*
X164261263Y-110740485D01*
X164340485Y-110661263D01*
X164396503Y-110564237D01*
X164425500Y-110456018D01*
X164425500Y-110443982D01*
X185674500Y-110443982D01*
X185674500Y-110556018D01*
X185703497Y-110664237D01*
X185759515Y-110761263D01*
X185838737Y-110840485D01*
X185935763Y-110896503D01*
X186043982Y-110925500D01*
X186043984Y-110925500D01*
X186156016Y-110925500D01*
X186156018Y-110925500D01*
X186264237Y-110896503D01*
X186361263Y-110840485D01*
X186440485Y-110761263D01*
X186496503Y-110664237D01*
X186525500Y-110556018D01*
X186525500Y-110443982D01*
X186496503Y-110335763D01*
X186440485Y-110238737D01*
X186361263Y-110159515D01*
X186274664Y-110109517D01*
X186264239Y-110103498D01*
X186264238Y-110103497D01*
X186264237Y-110103497D01*
X186156018Y-110074500D01*
X186043982Y-110074500D01*
X185935763Y-110103497D01*
X185935760Y-110103498D01*
X185838740Y-110159513D01*
X185838734Y-110159517D01*
X185759517Y-110238734D01*
X185759513Y-110238740D01*
X185703498Y-110335760D01*
X185703497Y-110335763D01*
X185674500Y-110443982D01*
X164425500Y-110443982D01*
X164425500Y-110343982D01*
X164396503Y-110235763D01*
X164340485Y-110138737D01*
X164261263Y-110059515D01*
X164164237Y-110003497D01*
X164056018Y-109974500D01*
X163943982Y-109974500D01*
X163835763Y-110003497D01*
X163835760Y-110003498D01*
X163738740Y-110059513D01*
X163738734Y-110059517D01*
X163659517Y-110138734D01*
X163659513Y-110138740D01*
X163603498Y-110235760D01*
X163603497Y-110235763D01*
X163574500Y-110343982D01*
X162362103Y-110343982D01*
X162346503Y-110285763D01*
X162290485Y-110188737D01*
X162211263Y-110109515D01*
X162124664Y-110059517D01*
X162114239Y-110053498D01*
X162114238Y-110053497D01*
X162114237Y-110053497D01*
X162006018Y-110024500D01*
X161893982Y-110024500D01*
X161785763Y-110053497D01*
X161785760Y-110053498D01*
X161688740Y-110109513D01*
X161688734Y-110109517D01*
X161609517Y-110188734D01*
X161609513Y-110188740D01*
X161553498Y-110285760D01*
X161553497Y-110285763D01*
X161524500Y-110393982D01*
X106916650Y-110393982D01*
X106940977Y-110369655D01*
X107055941Y-110197598D01*
X107135130Y-110006420D01*
X107175500Y-109803465D01*
X107175500Y-109596535D01*
X107135130Y-109393580D01*
X107055941Y-109202402D01*
X106950089Y-109043982D01*
X132824500Y-109043982D01*
X132824500Y-109156018D01*
X132853497Y-109264237D01*
X132909515Y-109361263D01*
X132988737Y-109440485D01*
X133085763Y-109496503D01*
X133193982Y-109525500D01*
X133193984Y-109525500D01*
X133306016Y-109525500D01*
X133306018Y-109525500D01*
X133414237Y-109496503D01*
X133511263Y-109440485D01*
X133590485Y-109361263D01*
X133646503Y-109264237D01*
X133675500Y-109156018D01*
X133675500Y-109043982D01*
X133646503Y-108935763D01*
X133590485Y-108838737D01*
X133511263Y-108759515D01*
X133414237Y-108703497D01*
X133306018Y-108674500D01*
X133193982Y-108674500D01*
X133085763Y-108703497D01*
X133085760Y-108703498D01*
X132988740Y-108759513D01*
X132988734Y-108759517D01*
X132909517Y-108838734D01*
X132909513Y-108838740D01*
X132853498Y-108935760D01*
X132853497Y-108935763D01*
X132824500Y-109043982D01*
X106950089Y-109043982D01*
X106940977Y-109030345D01*
X106940975Y-109030342D01*
X106794657Y-108884024D01*
X106708626Y-108826541D01*
X106622598Y-108769059D01*
X106517435Y-108725499D01*
X106431420Y-108689870D01*
X106431412Y-108689868D01*
X106228469Y-108649500D01*
X106228465Y-108649500D01*
X105771535Y-108649500D01*
X105771530Y-108649500D01*
X105568587Y-108689868D01*
X105568579Y-108689870D01*
X105377403Y-108769058D01*
X105205342Y-108884024D01*
X105059024Y-109030342D01*
X104944058Y-109202403D01*
X104864870Y-109393579D01*
X104864868Y-109393587D01*
X104824500Y-109596530D01*
X100551428Y-109596530D01*
X100556538Y-106545730D01*
X104824500Y-106545730D01*
X104824500Y-107854269D01*
X104827353Y-107884699D01*
X104827353Y-107884701D01*
X104872206Y-108012880D01*
X104872207Y-108012882D01*
X104952850Y-108122150D01*
X105062118Y-108202793D01*
X105104845Y-108217744D01*
X105190299Y-108247646D01*
X105220730Y-108250500D01*
X105220734Y-108250500D01*
X106779270Y-108250500D01*
X106809699Y-108247646D01*
X106809701Y-108247646D01*
X106820172Y-108243982D01*
X146074500Y-108243982D01*
X146074500Y-108356018D01*
X146103497Y-108464237D01*
X146159515Y-108561263D01*
X146238737Y-108640485D01*
X146335763Y-108696503D01*
X146443982Y-108725500D01*
X146443984Y-108725500D01*
X146556016Y-108725500D01*
X146556018Y-108725500D01*
X146664237Y-108696503D01*
X146761263Y-108640485D01*
X146812319Y-108589428D01*
X146873640Y-108555944D01*
X146943332Y-108560928D01*
X146982072Y-108585822D01*
X146982291Y-108585538D01*
X146985696Y-108588151D01*
X146987674Y-108589422D01*
X146988737Y-108590485D01*
X147085763Y-108646503D01*
X147193982Y-108675500D01*
X147193984Y-108675500D01*
X147306016Y-108675500D01*
X147306018Y-108675500D01*
X147414237Y-108646503D01*
X147511263Y-108590485D01*
X147590485Y-108511263D01*
X147646503Y-108414237D01*
X147675500Y-108306018D01*
X147675500Y-108193982D01*
X147646503Y-108085763D01*
X147590485Y-107988737D01*
X147511263Y-107909515D01*
X147432839Y-107864237D01*
X147414239Y-107853498D01*
X147414238Y-107853497D01*
X147414237Y-107853497D01*
X147306018Y-107824500D01*
X147193982Y-107824500D01*
X147085763Y-107853497D01*
X147085760Y-107853498D01*
X146988740Y-107909513D01*
X146988734Y-107909517D01*
X146937681Y-107960571D01*
X146876358Y-107994056D01*
X146806666Y-107989072D01*
X146767928Y-107964176D01*
X146767709Y-107964462D01*
X146764284Y-107961834D01*
X146762319Y-107960571D01*
X146761265Y-107959517D01*
X146761263Y-107959515D01*
X146674664Y-107909517D01*
X146664239Y-107903498D01*
X146664238Y-107903497D01*
X146664237Y-107903497D01*
X146556018Y-107874500D01*
X146443982Y-107874500D01*
X146335763Y-107903497D01*
X146335760Y-107903498D01*
X146238740Y-107959513D01*
X146238734Y-107959517D01*
X146159517Y-108038734D01*
X146159513Y-108038740D01*
X146103498Y-108135760D01*
X146103497Y-108135763D01*
X146074500Y-108243982D01*
X106820172Y-108243982D01*
X106873790Y-108225219D01*
X106937882Y-108202793D01*
X107047150Y-108122150D01*
X107127793Y-108012882D01*
X107153562Y-107939239D01*
X107172646Y-107884701D01*
X107172646Y-107884699D01*
X107175500Y-107854269D01*
X107175500Y-107718982D01*
X134249500Y-107718982D01*
X134249500Y-107831018D01*
X134267047Y-107896502D01*
X134278497Y-107939236D01*
X134278498Y-107939239D01*
X134290206Y-107959517D01*
X134334515Y-108036263D01*
X134413737Y-108115485D01*
X134510763Y-108171503D01*
X134618982Y-108200500D01*
X134618984Y-108200500D01*
X134731016Y-108200500D01*
X134731018Y-108200500D01*
X134839237Y-108171503D01*
X134936263Y-108115485D01*
X135015485Y-108036263D01*
X135071503Y-107939237D01*
X135100500Y-107831018D01*
X135100500Y-107718982D01*
X135071503Y-107610763D01*
X135015485Y-107513737D01*
X134936263Y-107434515D01*
X134839237Y-107378497D01*
X134731018Y-107349500D01*
X134618982Y-107349500D01*
X134510763Y-107378497D01*
X134510760Y-107378498D01*
X134413740Y-107434513D01*
X134413734Y-107434517D01*
X134334517Y-107513734D01*
X134334513Y-107513740D01*
X134278498Y-107610760D01*
X134278497Y-107610763D01*
X134249500Y-107718982D01*
X107175500Y-107718982D01*
X107175500Y-106943982D01*
X135574500Y-106943982D01*
X135574500Y-107056018D01*
X135602233Y-107159517D01*
X135603497Y-107164236D01*
X135603498Y-107164239D01*
X135622169Y-107196579D01*
X135659515Y-107261263D01*
X135738737Y-107340485D01*
X135835763Y-107396503D01*
X135943982Y-107425500D01*
X135943984Y-107425500D01*
X136056016Y-107425500D01*
X136056018Y-107425500D01*
X136164237Y-107396503D01*
X136261263Y-107340485D01*
X136340485Y-107261263D01*
X136392613Y-107170973D01*
X136443180Y-107122759D01*
X136511787Y-107109535D01*
X136576651Y-107135503D01*
X136607385Y-107170972D01*
X136659515Y-107261263D01*
X136738737Y-107340485D01*
X136835763Y-107396503D01*
X136943982Y-107425500D01*
X136943984Y-107425500D01*
X137056016Y-107425500D01*
X137056018Y-107425500D01*
X137068408Y-107422180D01*
X137138256Y-107423843D01*
X137196119Y-107463006D01*
X137223623Y-107527234D01*
X137224500Y-107541955D01*
X137224500Y-107556018D01*
X137248071Y-107643984D01*
X137253497Y-107664236D01*
X137253498Y-107664239D01*
X137266351Y-107686501D01*
X137309515Y-107761263D01*
X137388737Y-107840485D01*
X137485763Y-107896503D01*
X137593982Y-107925500D01*
X137593984Y-107925500D01*
X137706016Y-107925500D01*
X137706018Y-107925500D01*
X137814237Y-107896503D01*
X137911263Y-107840485D01*
X137990485Y-107761263D01*
X138000462Y-107743982D01*
X186474500Y-107743982D01*
X186474500Y-107856018D01*
X186503497Y-107964237D01*
X186559515Y-108061263D01*
X186638737Y-108140485D01*
X186735763Y-108196503D01*
X186843982Y-108225500D01*
X186843984Y-108225500D01*
X186956016Y-108225500D01*
X186956018Y-108225500D01*
X187064237Y-108196503D01*
X187161263Y-108140485D01*
X187240485Y-108061263D01*
X187296503Y-107964237D01*
X187325500Y-107856018D01*
X187325500Y-107743982D01*
X187298705Y-107643982D01*
X190674500Y-107643982D01*
X190674500Y-107756018D01*
X190703497Y-107864237D01*
X190759515Y-107961263D01*
X190838737Y-108040485D01*
X190935763Y-108096503D01*
X191043982Y-108125500D01*
X191043984Y-108125500D01*
X191156016Y-108125500D01*
X191156018Y-108125500D01*
X191264237Y-108096503D01*
X191361263Y-108040485D01*
X191440485Y-107961263D01*
X191496503Y-107864237D01*
X191525500Y-107756018D01*
X191525500Y-107643982D01*
X191496503Y-107535763D01*
X191440485Y-107438737D01*
X191361263Y-107359515D01*
X191282839Y-107314237D01*
X191264239Y-107303498D01*
X191264238Y-107303497D01*
X191264237Y-107303497D01*
X191156018Y-107274500D01*
X191043982Y-107274500D01*
X190935763Y-107303497D01*
X190935760Y-107303498D01*
X190838740Y-107359513D01*
X190838734Y-107359517D01*
X190759517Y-107438734D01*
X190759513Y-107438740D01*
X190703498Y-107535760D01*
X190703497Y-107535763D01*
X190674500Y-107643982D01*
X187298705Y-107643982D01*
X187296503Y-107635763D01*
X187240485Y-107538737D01*
X187161263Y-107459515D01*
X187064237Y-107403497D01*
X186956018Y-107374500D01*
X186843982Y-107374500D01*
X186735763Y-107403497D01*
X186735760Y-107403498D01*
X186638740Y-107459513D01*
X186638734Y-107459517D01*
X186559517Y-107538734D01*
X186559513Y-107538740D01*
X186503498Y-107635760D01*
X186503497Y-107635763D01*
X186474500Y-107743982D01*
X138000462Y-107743982D01*
X138046503Y-107664237D01*
X138075500Y-107556018D01*
X138075500Y-107443982D01*
X138046503Y-107335763D01*
X137990485Y-107238737D01*
X137911263Y-107159515D01*
X137814237Y-107103497D01*
X137706018Y-107074500D01*
X137593982Y-107074500D01*
X137593977Y-107074500D01*
X137581588Y-107077820D01*
X137511738Y-107076154D01*
X137453877Y-107036989D01*
X137426376Y-106972759D01*
X137425500Y-106958044D01*
X137425500Y-106943984D01*
X137425500Y-106943982D01*
X137396503Y-106835763D01*
X137340485Y-106738737D01*
X137261263Y-106659515D01*
X137185358Y-106615691D01*
X149224500Y-106615691D01*
X149224500Y-106734309D01*
X149255201Y-106848886D01*
X149314511Y-106951613D01*
X149398387Y-107035489D01*
X149501114Y-107094799D01*
X149615691Y-107125500D01*
X149615694Y-107125500D01*
X149734306Y-107125500D01*
X149734309Y-107125500D01*
X149848886Y-107094799D01*
X149850301Y-107093982D01*
X160074500Y-107093982D01*
X160074500Y-107206018D01*
X160100620Y-107303497D01*
X160103497Y-107314236D01*
X160103498Y-107314239D01*
X160115923Y-107335760D01*
X160159515Y-107411263D01*
X160238737Y-107490485D01*
X160335763Y-107546503D01*
X160443982Y-107575500D01*
X160443984Y-107575500D01*
X160556016Y-107575500D01*
X160556018Y-107575500D01*
X160664237Y-107546503D01*
X160761263Y-107490485D01*
X160840485Y-107411263D01*
X160896503Y-107314237D01*
X160918007Y-107233982D01*
X193169500Y-107233982D01*
X193169500Y-107346018D01*
X193198497Y-107454237D01*
X193254515Y-107551263D01*
X193333737Y-107630485D01*
X193430763Y-107686503D01*
X193538982Y-107715500D01*
X193538984Y-107715500D01*
X193651016Y-107715500D01*
X193651018Y-107715500D01*
X193759237Y-107686503D01*
X193856263Y-107630485D01*
X193935485Y-107551263D01*
X193991503Y-107454237D01*
X194020500Y-107346018D01*
X194020500Y-107233982D01*
X193991503Y-107125763D01*
X193935485Y-107028737D01*
X193856263Y-106949515D01*
X193759237Y-106893497D01*
X193651018Y-106864500D01*
X193538982Y-106864500D01*
X193430763Y-106893497D01*
X193430760Y-106893498D01*
X193333740Y-106949513D01*
X193333734Y-106949517D01*
X193254517Y-107028734D01*
X193254513Y-107028740D01*
X193198498Y-107125760D01*
X193198497Y-107125763D01*
X193169500Y-107233982D01*
X160918007Y-107233982D01*
X160925500Y-107206018D01*
X160925500Y-107093982D01*
X160896503Y-106985763D01*
X160840485Y-106888737D01*
X160761263Y-106809515D01*
X160664237Y-106753497D01*
X160556018Y-106724500D01*
X160443982Y-106724500D01*
X160335763Y-106753497D01*
X160335760Y-106753498D01*
X160238740Y-106809513D01*
X160238734Y-106809517D01*
X160159517Y-106888734D01*
X160159513Y-106888740D01*
X160103498Y-106985760D01*
X160103497Y-106985763D01*
X160074500Y-107093982D01*
X149850301Y-107093982D01*
X149951613Y-107035489D01*
X150035489Y-106951613D01*
X150094799Y-106848886D01*
X150125500Y-106734309D01*
X150125500Y-106615691D01*
X150094799Y-106501114D01*
X150035489Y-106398387D01*
X149951613Y-106314511D01*
X149848886Y-106255201D01*
X149734309Y-106224500D01*
X149615691Y-106224500D01*
X149501114Y-106255201D01*
X149501112Y-106255201D01*
X149501112Y-106255202D01*
X149398387Y-106314511D01*
X149398384Y-106314513D01*
X149314513Y-106398384D01*
X149314511Y-106398387D01*
X149255201Y-106501114D01*
X149224500Y-106615691D01*
X137185358Y-106615691D01*
X137164237Y-106603497D01*
X137056018Y-106574500D01*
X136943982Y-106574500D01*
X136835763Y-106603497D01*
X136835760Y-106603498D01*
X136738740Y-106659513D01*
X136738734Y-106659517D01*
X136659517Y-106738734D01*
X136659513Y-106738740D01*
X136607387Y-106829025D01*
X136556820Y-106877241D01*
X136488213Y-106890463D01*
X136423348Y-106864495D01*
X136392613Y-106829025D01*
X136349007Y-106753498D01*
X136340485Y-106738737D01*
X136261263Y-106659515D01*
X136164237Y-106603497D01*
X136056018Y-106574500D01*
X135943982Y-106574500D01*
X135835763Y-106603497D01*
X135835760Y-106603498D01*
X135738740Y-106659513D01*
X135738734Y-106659517D01*
X135659517Y-106738734D01*
X135659513Y-106738740D01*
X135603498Y-106835760D01*
X135603497Y-106835763D01*
X135574500Y-106943982D01*
X107175500Y-106943982D01*
X107175500Y-106545730D01*
X107172646Y-106515300D01*
X107172646Y-106515298D01*
X107127793Y-106387119D01*
X107127792Y-106387117D01*
X107074208Y-106314513D01*
X107047150Y-106277850D01*
X106937882Y-106197207D01*
X106937880Y-106197206D01*
X106809700Y-106152353D01*
X106779270Y-106149500D01*
X106779266Y-106149500D01*
X105220734Y-106149500D01*
X105220730Y-106149500D01*
X105190300Y-106152353D01*
X105190298Y-106152353D01*
X105062119Y-106197206D01*
X105062117Y-106197207D01*
X104952850Y-106277850D01*
X104872207Y-106387117D01*
X104872206Y-106387119D01*
X104827353Y-106515298D01*
X104827353Y-106515300D01*
X104824500Y-106545730D01*
X100556538Y-106545730D01*
X100559221Y-104943982D01*
X137774500Y-104943982D01*
X137774500Y-105056018D01*
X137803497Y-105164237D01*
X137859515Y-105261263D01*
X137938737Y-105340485D01*
X138035763Y-105396503D01*
X138143982Y-105425500D01*
X138143984Y-105425500D01*
X138256016Y-105425500D01*
X138256018Y-105425500D01*
X138364237Y-105396503D01*
X138461263Y-105340485D01*
X138540485Y-105261263D01*
X138596503Y-105164237D01*
X138625500Y-105056018D01*
X138625500Y-104943982D01*
X140724500Y-104943982D01*
X140724500Y-105056018D01*
X140753497Y-105164237D01*
X140809515Y-105261263D01*
X140888737Y-105340485D01*
X140985763Y-105396503D01*
X141093982Y-105425500D01*
X141093984Y-105425500D01*
X141206016Y-105425500D01*
X141206018Y-105425500D01*
X141314237Y-105396503D01*
X141411263Y-105340485D01*
X141490485Y-105261263D01*
X141546503Y-105164237D01*
X141575500Y-105056018D01*
X141575500Y-105043982D01*
X144374500Y-105043982D01*
X144374500Y-105156018D01*
X144403497Y-105264237D01*
X144459515Y-105361263D01*
X144538737Y-105440485D01*
X144635763Y-105496503D01*
X144743982Y-105525500D01*
X144743984Y-105525500D01*
X144856016Y-105525500D01*
X144856018Y-105525500D01*
X144964237Y-105496503D01*
X145061263Y-105440485D01*
X145140485Y-105361263D01*
X145196503Y-105264237D01*
X145225500Y-105156018D01*
X145225500Y-105043982D01*
X145196503Y-104935763D01*
X145140485Y-104838737D01*
X145061263Y-104759515D01*
X144964237Y-104703497D01*
X144856018Y-104674500D01*
X144743982Y-104674500D01*
X144635763Y-104703497D01*
X144635760Y-104703498D01*
X144538740Y-104759513D01*
X144538734Y-104759517D01*
X144459517Y-104838734D01*
X144459513Y-104838740D01*
X144403498Y-104935760D01*
X144403497Y-104935763D01*
X144374500Y-105043982D01*
X141575500Y-105043982D01*
X141575500Y-104943982D01*
X141546503Y-104835763D01*
X141490485Y-104738737D01*
X141411263Y-104659515D01*
X141314237Y-104603497D01*
X141206018Y-104574500D01*
X141093982Y-104574500D01*
X140985763Y-104603497D01*
X140985760Y-104603498D01*
X140888740Y-104659513D01*
X140888734Y-104659517D01*
X140809517Y-104738734D01*
X140809513Y-104738740D01*
X140753498Y-104835760D01*
X140753497Y-104835763D01*
X140724500Y-104943982D01*
X138625500Y-104943982D01*
X138596503Y-104835763D01*
X138540485Y-104738737D01*
X138461263Y-104659515D01*
X138364237Y-104603497D01*
X138256018Y-104574500D01*
X138143982Y-104574500D01*
X138035763Y-104603497D01*
X138035760Y-104603498D01*
X137938740Y-104659513D01*
X137938734Y-104659517D01*
X137859517Y-104738734D01*
X137859513Y-104738740D01*
X137803498Y-104835760D01*
X137803497Y-104835763D01*
X137774500Y-104943982D01*
X100559221Y-104943982D01*
X100562098Y-103226435D01*
X140300024Y-103226435D01*
X140300024Y-103338471D01*
X140329021Y-103446690D01*
X140385039Y-103543716D01*
X140464261Y-103622938D01*
X140561287Y-103678956D01*
X140669506Y-103707953D01*
X140669508Y-103707953D01*
X140781540Y-103707953D01*
X140781542Y-103707953D01*
X140889761Y-103678956D01*
X140986787Y-103622938D01*
X141066009Y-103543716D01*
X141122027Y-103446690D01*
X141151024Y-103338471D01*
X141151024Y-103226435D01*
X141122027Y-103118216D01*
X141066009Y-103021190D01*
X140986787Y-102941968D01*
X140889761Y-102885950D01*
X140781542Y-102856953D01*
X140669506Y-102856953D01*
X140561287Y-102885950D01*
X140561284Y-102885951D01*
X140464264Y-102941966D01*
X140464258Y-102941970D01*
X140385041Y-103021187D01*
X140385037Y-103021193D01*
X140329022Y-103118213D01*
X140329021Y-103118216D01*
X140300024Y-103226435D01*
X100562098Y-103226435D01*
X100564665Y-101693982D01*
X140274500Y-101693982D01*
X140274500Y-101806018D01*
X140303497Y-101914237D01*
X140359515Y-102011263D01*
X140438737Y-102090485D01*
X140535763Y-102146503D01*
X140643982Y-102175500D01*
X140643984Y-102175500D01*
X140756016Y-102175500D01*
X140756018Y-102175500D01*
X140864237Y-102146503D01*
X140961263Y-102090485D01*
X141040485Y-102011263D01*
X141096503Y-101914237D01*
X141125500Y-101806018D01*
X141125500Y-101693982D01*
X141096503Y-101585763D01*
X141040485Y-101488737D01*
X140961263Y-101409515D01*
X140864237Y-101353497D01*
X140756018Y-101324500D01*
X140643982Y-101324500D01*
X140535763Y-101353497D01*
X140535760Y-101353498D01*
X140438740Y-101409513D01*
X140438734Y-101409517D01*
X140359517Y-101488734D01*
X140359513Y-101488740D01*
X140303498Y-101585760D01*
X140303497Y-101585763D01*
X140274500Y-101693982D01*
X100564665Y-101693982D01*
X100567173Y-100196530D01*
X104824500Y-100196530D01*
X104824500Y-100403469D01*
X104864868Y-100606412D01*
X104864870Y-100606420D01*
X104944058Y-100797596D01*
X105059024Y-100969657D01*
X105205342Y-101115975D01*
X105205345Y-101115977D01*
X105377402Y-101230941D01*
X105568580Y-101310130D01*
X105771530Y-101350499D01*
X105771534Y-101350500D01*
X105771535Y-101350500D01*
X106228466Y-101350500D01*
X106228467Y-101350499D01*
X106431420Y-101310130D01*
X106622598Y-101230941D01*
X106794655Y-101115977D01*
X106940977Y-100969655D01*
X107055941Y-100797598D01*
X107135130Y-100606420D01*
X107175500Y-100403465D01*
X107175500Y-100196535D01*
X107135130Y-99993580D01*
X107055941Y-99802402D01*
X106940977Y-99630345D01*
X106940975Y-99630342D01*
X106794657Y-99484024D01*
X106622596Y-99369057D01*
X106456880Y-99300416D01*
X106431420Y-99289870D01*
X106431412Y-99289868D01*
X106228469Y-99249500D01*
X106228465Y-99249500D01*
X105771535Y-99249500D01*
X105771530Y-99249500D01*
X105568587Y-99289868D01*
X105568579Y-99289870D01*
X105377403Y-99369058D01*
X105205342Y-99484024D01*
X105059024Y-99630342D01*
X104944058Y-99802403D01*
X104864870Y-99993579D01*
X104864868Y-99993587D01*
X104824500Y-100196530D01*
X100567173Y-100196530D01*
X100568852Y-99193982D01*
X148974500Y-99193982D01*
X148974500Y-99306018D01*
X149003497Y-99414237D01*
X149059515Y-99511263D01*
X149138737Y-99590485D01*
X149235763Y-99646503D01*
X149343982Y-99675500D01*
X149343984Y-99675500D01*
X149456016Y-99675500D01*
X149456018Y-99675500D01*
X149564237Y-99646503D01*
X149661263Y-99590485D01*
X149740485Y-99511263D01*
X149796503Y-99414237D01*
X149825500Y-99306018D01*
X149825500Y-99193982D01*
X157424500Y-99193982D01*
X157424500Y-99306018D01*
X157453497Y-99414237D01*
X157509515Y-99511263D01*
X157588737Y-99590485D01*
X157685763Y-99646503D01*
X157793982Y-99675500D01*
X157793984Y-99675500D01*
X157906016Y-99675500D01*
X157906018Y-99675500D01*
X158014237Y-99646503D01*
X158111263Y-99590485D01*
X158190485Y-99511263D01*
X158246503Y-99414237D01*
X158275500Y-99306018D01*
X158275500Y-99193982D01*
X158246503Y-99085763D01*
X158190485Y-98988737D01*
X158111263Y-98909515D01*
X158014237Y-98853497D01*
X157906018Y-98824500D01*
X157793982Y-98824500D01*
X157685763Y-98853497D01*
X157685760Y-98853498D01*
X157588740Y-98909513D01*
X157588734Y-98909517D01*
X157509517Y-98988734D01*
X157509513Y-98988740D01*
X157453498Y-99085760D01*
X157453497Y-99085763D01*
X157424500Y-99193982D01*
X149825500Y-99193982D01*
X149796503Y-99085763D01*
X149740485Y-98988737D01*
X149661263Y-98909515D01*
X149564237Y-98853497D01*
X149456018Y-98824500D01*
X149343982Y-98824500D01*
X149235763Y-98853497D01*
X149235760Y-98853498D01*
X149138740Y-98909513D01*
X149138734Y-98909517D01*
X149059517Y-98988734D01*
X149059513Y-98988740D01*
X149003498Y-99085760D01*
X149003497Y-99085763D01*
X148974500Y-99193982D01*
X100568852Y-99193982D01*
X100571361Y-97696530D01*
X104824500Y-97696530D01*
X104824500Y-97903469D01*
X104864868Y-98106412D01*
X104864870Y-98106420D01*
X104944058Y-98297596D01*
X105059024Y-98469657D01*
X105205342Y-98615975D01*
X105205345Y-98615977D01*
X105377402Y-98730941D01*
X105568580Y-98810130D01*
X105771530Y-98850499D01*
X105771534Y-98850500D01*
X105771535Y-98850500D01*
X106228466Y-98850500D01*
X106228467Y-98850499D01*
X106431420Y-98810130D01*
X106622598Y-98730941D01*
X106794655Y-98615977D01*
X106940977Y-98469655D01*
X107055941Y-98297598D01*
X107135130Y-98106420D01*
X107175500Y-97903465D01*
X107175500Y-97696535D01*
X107135130Y-97493580D01*
X107055941Y-97302402D01*
X106940977Y-97130345D01*
X106940975Y-97130342D01*
X106794657Y-96984024D01*
X106663671Y-96896503D01*
X106622598Y-96869059D01*
X106553607Y-96840482D01*
X106431420Y-96789870D01*
X106431412Y-96789868D01*
X106228469Y-96749500D01*
X106228465Y-96749500D01*
X105771535Y-96749500D01*
X105771530Y-96749500D01*
X105568587Y-96789868D01*
X105568579Y-96789870D01*
X105377403Y-96869058D01*
X105205342Y-96984024D01*
X105059024Y-97130342D01*
X104944058Y-97302403D01*
X104864870Y-97493579D01*
X104864868Y-97493587D01*
X104824500Y-97696530D01*
X100571361Y-97696530D01*
X100573459Y-96443982D01*
X138899500Y-96443982D01*
X138899500Y-96556018D01*
X138928497Y-96664237D01*
X138984515Y-96761263D01*
X139063737Y-96840485D01*
X139160763Y-96896503D01*
X139268982Y-96925500D01*
X139268984Y-96925500D01*
X139381016Y-96925500D01*
X139381018Y-96925500D01*
X139489237Y-96896503D01*
X139586263Y-96840485D01*
X139665485Y-96761263D01*
X139721503Y-96664237D01*
X139750500Y-96556018D01*
X139750500Y-96443982D01*
X139721503Y-96335763D01*
X139665485Y-96238737D01*
X139586263Y-96159515D01*
X139489237Y-96103497D01*
X139381018Y-96074500D01*
X139268982Y-96074500D01*
X139160763Y-96103497D01*
X139160760Y-96103498D01*
X139063740Y-96159513D01*
X139063734Y-96159517D01*
X138984517Y-96238734D01*
X138984513Y-96238740D01*
X138928498Y-96335760D01*
X138928497Y-96335763D01*
X138899500Y-96443982D01*
X100573459Y-96443982D01*
X100575549Y-95196530D01*
X104824500Y-95196530D01*
X104824500Y-95403469D01*
X104864868Y-95606412D01*
X104864870Y-95606420D01*
X104944058Y-95797596D01*
X105059024Y-95969657D01*
X105205342Y-96115975D01*
X105205345Y-96115977D01*
X105377402Y-96230941D01*
X105568580Y-96310130D01*
X105697432Y-96335760D01*
X105771530Y-96350499D01*
X105771534Y-96350500D01*
X105771535Y-96350500D01*
X106228466Y-96350500D01*
X106228467Y-96350499D01*
X106282431Y-96339765D01*
X106410770Y-96314238D01*
X106420082Y-96312385D01*
X106431420Y-96310130D01*
X106622598Y-96230941D01*
X106794655Y-96115977D01*
X106940977Y-95969655D01*
X107055941Y-95797598D01*
X107135130Y-95606420D01*
X107175500Y-95403465D01*
X107175500Y-95196535D01*
X107135130Y-94993580D01*
X107114586Y-94943982D01*
X139574500Y-94943982D01*
X139574500Y-95056018D01*
X139603497Y-95164237D01*
X139659515Y-95261263D01*
X139738737Y-95340485D01*
X139835763Y-95396503D01*
X139943982Y-95425500D01*
X139943984Y-95425500D01*
X140056016Y-95425500D01*
X140056018Y-95425500D01*
X140164237Y-95396503D01*
X140261263Y-95340485D01*
X140340485Y-95261263D01*
X140396503Y-95164237D01*
X140425500Y-95056018D01*
X140425500Y-95043982D01*
X150674500Y-95043982D01*
X150674500Y-95156018D01*
X150703497Y-95264237D01*
X150759515Y-95361263D01*
X150838737Y-95440485D01*
X150935763Y-95496503D01*
X151043982Y-95525500D01*
X151043984Y-95525500D01*
X151156016Y-95525500D01*
X151156018Y-95525500D01*
X151264237Y-95496503D01*
X151361263Y-95440485D01*
X151440485Y-95361263D01*
X151496503Y-95264237D01*
X151525500Y-95156018D01*
X151525500Y-95043982D01*
X151496503Y-94935763D01*
X151440485Y-94838737D01*
X151361263Y-94759515D01*
X151264237Y-94703497D01*
X151156018Y-94674500D01*
X151043982Y-94674500D01*
X150935763Y-94703497D01*
X150935760Y-94703498D01*
X150838740Y-94759513D01*
X150838734Y-94759517D01*
X150759517Y-94838734D01*
X150759513Y-94838740D01*
X150703498Y-94935760D01*
X150703497Y-94935763D01*
X150674500Y-95043982D01*
X140425500Y-95043982D01*
X140425500Y-94943982D01*
X140396503Y-94835763D01*
X140340485Y-94738737D01*
X140261263Y-94659515D01*
X140164237Y-94603497D01*
X140056018Y-94574500D01*
X139943982Y-94574500D01*
X139835763Y-94603497D01*
X139835760Y-94603498D01*
X139738740Y-94659513D01*
X139738734Y-94659517D01*
X139659517Y-94738734D01*
X139659513Y-94738740D01*
X139603498Y-94835760D01*
X139603497Y-94835763D01*
X139574500Y-94943982D01*
X107114586Y-94943982D01*
X107055941Y-94802402D01*
X106940977Y-94630345D01*
X106940975Y-94630342D01*
X106794657Y-94484024D01*
X106708626Y-94426541D01*
X106622598Y-94369059D01*
X106431420Y-94289870D01*
X106431412Y-94289868D01*
X106228469Y-94249500D01*
X106228465Y-94249500D01*
X105771535Y-94249500D01*
X105771530Y-94249500D01*
X105568587Y-94289868D01*
X105568579Y-94289870D01*
X105377403Y-94369058D01*
X105205342Y-94484024D01*
X105059024Y-94630342D01*
X104944058Y-94802403D01*
X104864870Y-94993579D01*
X104864868Y-94993587D01*
X104824500Y-95196530D01*
X100575549Y-95196530D01*
X100579737Y-92696530D01*
X104824500Y-92696530D01*
X104824500Y-92903469D01*
X104864868Y-93106412D01*
X104864870Y-93106420D01*
X104944058Y-93297596D01*
X105059024Y-93469657D01*
X105205342Y-93615975D01*
X105205345Y-93615977D01*
X105377402Y-93730941D01*
X105568580Y-93810130D01*
X105761792Y-93848562D01*
X105771530Y-93850499D01*
X105771534Y-93850500D01*
X105771535Y-93850500D01*
X106228466Y-93850500D01*
X106228467Y-93850499D01*
X106431420Y-93810130D01*
X106622598Y-93730941D01*
X106794655Y-93615977D01*
X106940977Y-93469655D01*
X106990163Y-93396043D01*
X145470812Y-93396043D01*
X145470812Y-93508079D01*
X145499809Y-93616298D01*
X145555827Y-93713324D01*
X145635049Y-93792546D01*
X145732075Y-93848564D01*
X145840294Y-93877561D01*
X145840296Y-93877561D01*
X145952328Y-93877561D01*
X145952330Y-93877561D01*
X146060549Y-93848564D01*
X146157575Y-93792546D01*
X146236797Y-93713324D01*
X146292815Y-93616298D01*
X146321812Y-93508079D01*
X146321812Y-93396043D01*
X146307862Y-93343982D01*
X148174500Y-93343982D01*
X148174500Y-93456018D01*
X148203497Y-93564237D01*
X148259515Y-93661263D01*
X148338737Y-93740485D01*
X148435763Y-93796503D01*
X148543982Y-93825500D01*
X148543984Y-93825500D01*
X148656016Y-93825500D01*
X148656018Y-93825500D01*
X148764237Y-93796503D01*
X148861263Y-93740485D01*
X148940485Y-93661263D01*
X148996503Y-93564237D01*
X149001930Y-93543982D01*
X149274500Y-93543982D01*
X149274500Y-93656018D01*
X149303497Y-93764237D01*
X149359515Y-93861263D01*
X149438737Y-93940485D01*
X149535763Y-93996503D01*
X149643982Y-94025500D01*
X149643984Y-94025500D01*
X149756016Y-94025500D01*
X149756018Y-94025500D01*
X149864237Y-93996503D01*
X149961263Y-93940485D01*
X150040485Y-93861263D01*
X150096503Y-93764237D01*
X150125500Y-93656018D01*
X150125500Y-93543982D01*
X150096503Y-93435763D01*
X150040485Y-93338737D01*
X149961263Y-93259515D01*
X149864237Y-93203497D01*
X149756018Y-93174500D01*
X149643982Y-93174500D01*
X149535763Y-93203497D01*
X149535760Y-93203498D01*
X149438740Y-93259513D01*
X149438734Y-93259517D01*
X149359517Y-93338734D01*
X149359513Y-93338740D01*
X149303498Y-93435760D01*
X149303497Y-93435763D01*
X149274500Y-93543982D01*
X149001930Y-93543982D01*
X149025500Y-93456018D01*
X149025500Y-93343982D01*
X148996503Y-93235763D01*
X148940485Y-93138737D01*
X148861263Y-93059515D01*
X148764237Y-93003497D01*
X148656018Y-92974500D01*
X148543982Y-92974500D01*
X148435763Y-93003497D01*
X148435760Y-93003498D01*
X148338740Y-93059513D01*
X148338734Y-93059517D01*
X148259517Y-93138734D01*
X148259513Y-93138740D01*
X148203498Y-93235760D01*
X148203497Y-93235763D01*
X148174500Y-93343982D01*
X146307862Y-93343982D01*
X146292815Y-93287824D01*
X146236797Y-93190798D01*
X146157575Y-93111576D01*
X146060549Y-93055558D01*
X145952330Y-93026561D01*
X145840294Y-93026561D01*
X145732075Y-93055558D01*
X145732072Y-93055559D01*
X145635052Y-93111574D01*
X145635046Y-93111578D01*
X145555829Y-93190795D01*
X145555825Y-93190801D01*
X145499810Y-93287821D01*
X145499810Y-93287822D01*
X145499809Y-93287824D01*
X145470812Y-93396043D01*
X106990163Y-93396043D01*
X107055941Y-93297598D01*
X107135130Y-93106420D01*
X107175500Y-92903465D01*
X107175500Y-92696535D01*
X107135130Y-92493580D01*
X107055941Y-92302402D01*
X106940977Y-92130345D01*
X106940975Y-92130342D01*
X106794657Y-91984024D01*
X106708626Y-91926541D01*
X106622598Y-91869059D01*
X106610954Y-91864236D01*
X106431420Y-91789870D01*
X106431412Y-91789868D01*
X106268546Y-91757472D01*
X106228469Y-91749500D01*
X106228465Y-91749500D01*
X105771535Y-91749500D01*
X105771530Y-91749500D01*
X105568587Y-91789868D01*
X105568579Y-91789870D01*
X105377403Y-91869058D01*
X105205342Y-91984024D01*
X105059024Y-92130342D01*
X104944058Y-92302403D01*
X104864870Y-92493579D01*
X104864868Y-92493587D01*
X104824500Y-92696530D01*
X100579737Y-92696530D01*
X100581500Y-91643982D01*
X150324500Y-91643982D01*
X150324500Y-91756018D01*
X150353497Y-91864237D01*
X150409515Y-91961263D01*
X150488737Y-92040485D01*
X150585763Y-92096503D01*
X150693982Y-92125500D01*
X150693984Y-92125500D01*
X150806016Y-92125500D01*
X150806018Y-92125500D01*
X150914237Y-92096503D01*
X151011263Y-92040485D01*
X151090485Y-91961263D01*
X151146503Y-91864237D01*
X151175500Y-91756018D01*
X151175500Y-91643982D01*
X151146503Y-91535763D01*
X151146499Y-91535756D01*
X151132495Y-91511499D01*
X151116022Y-91443599D01*
X151138875Y-91377572D01*
X151193796Y-91334382D01*
X151239882Y-91325500D01*
X151356016Y-91325500D01*
X151356018Y-91325500D01*
X151464237Y-91296503D01*
X151561263Y-91240485D01*
X151640485Y-91161263D01*
X151696503Y-91064237D01*
X151725500Y-90956018D01*
X151725500Y-90843982D01*
X151696503Y-90735763D01*
X151640485Y-90638737D01*
X151561263Y-90559515D01*
X151464237Y-90503497D01*
X151356018Y-90474500D01*
X151243982Y-90474500D01*
X151135763Y-90503497D01*
X151135760Y-90503498D01*
X151038740Y-90559513D01*
X151038734Y-90559517D01*
X150959517Y-90638734D01*
X150959513Y-90638740D01*
X150903498Y-90735760D01*
X150903497Y-90735763D01*
X150874500Y-90843982D01*
X150874500Y-90956018D01*
X150889304Y-91011265D01*
X150903497Y-91064236D01*
X150903500Y-91064243D01*
X150917505Y-91088501D01*
X150933978Y-91156401D01*
X150911125Y-91222428D01*
X150856204Y-91265618D01*
X150810118Y-91274500D01*
X150693982Y-91274500D01*
X150585763Y-91303497D01*
X150585760Y-91303498D01*
X150488740Y-91359513D01*
X150488734Y-91359517D01*
X150409517Y-91438734D01*
X150409513Y-91438740D01*
X150353498Y-91535760D01*
X150353497Y-91535763D01*
X150324500Y-91643982D01*
X100581500Y-91643982D01*
X100584683Y-89743982D01*
X136874500Y-89743982D01*
X136874500Y-89856018D01*
X136903497Y-89964237D01*
X136959515Y-90061263D01*
X137038737Y-90140485D01*
X137110725Y-90182047D01*
X137158939Y-90232612D01*
X137172163Y-90301219D01*
X137146195Y-90366084D01*
X137110726Y-90396819D01*
X137088740Y-90409512D01*
X137088734Y-90409517D01*
X137009517Y-90488734D01*
X137009513Y-90488740D01*
X136953498Y-90585760D01*
X136953497Y-90585763D01*
X136924500Y-90693982D01*
X136924500Y-90806018D01*
X136953497Y-90914237D01*
X137009515Y-91011263D01*
X137088737Y-91090485D01*
X137185763Y-91146503D01*
X137293982Y-91175500D01*
X137293984Y-91175500D01*
X137406016Y-91175500D01*
X137406018Y-91175500D01*
X137514237Y-91146503D01*
X137611263Y-91090485D01*
X137690485Y-91011263D01*
X137746503Y-90914237D01*
X137775500Y-90806018D01*
X137775500Y-90693982D01*
X137746503Y-90585763D01*
X137690485Y-90488737D01*
X137611263Y-90409515D01*
X137539274Y-90367952D01*
X137491060Y-90317386D01*
X137477836Y-90248779D01*
X137503804Y-90183915D01*
X137539274Y-90153179D01*
X137561263Y-90140485D01*
X137640485Y-90061263D01*
X137696503Y-89964237D01*
X137725500Y-89856018D01*
X137725500Y-89843982D01*
X148024500Y-89843982D01*
X148024500Y-89956018D01*
X148053497Y-90064237D01*
X148109515Y-90161263D01*
X148188737Y-90240485D01*
X148285763Y-90296503D01*
X148393982Y-90325500D01*
X148393984Y-90325500D01*
X148506016Y-90325500D01*
X148506018Y-90325500D01*
X148614237Y-90296503D01*
X148711263Y-90240485D01*
X148790485Y-90161263D01*
X148846503Y-90064237D01*
X148875500Y-89956018D01*
X148875500Y-89843982D01*
X148846503Y-89735763D01*
X148790485Y-89638737D01*
X148711263Y-89559515D01*
X148614237Y-89503497D01*
X148506018Y-89474500D01*
X148393982Y-89474500D01*
X148285763Y-89503497D01*
X148285760Y-89503498D01*
X148188740Y-89559513D01*
X148188734Y-89559517D01*
X148109517Y-89638734D01*
X148109513Y-89638740D01*
X148053498Y-89735760D01*
X148053497Y-89735763D01*
X148024500Y-89843982D01*
X137725500Y-89843982D01*
X137725500Y-89743982D01*
X137696503Y-89635763D01*
X137640485Y-89538737D01*
X137561263Y-89459515D01*
X137464237Y-89403497D01*
X137356018Y-89374500D01*
X137243982Y-89374500D01*
X137135763Y-89403497D01*
X137135760Y-89403498D01*
X137038740Y-89459513D01*
X137038734Y-89459517D01*
X136959517Y-89538734D01*
X136959513Y-89538740D01*
X136903498Y-89635760D01*
X136903497Y-89635763D01*
X136874500Y-89743982D01*
X100584683Y-89743982D01*
X100589035Y-87145730D01*
X104824500Y-87145730D01*
X104824500Y-88454269D01*
X104827353Y-88484699D01*
X104827353Y-88484701D01*
X104872206Y-88612880D01*
X104872207Y-88612882D01*
X104952850Y-88722150D01*
X105062118Y-88802793D01*
X105104845Y-88817744D01*
X105190299Y-88847646D01*
X105220730Y-88850500D01*
X105220734Y-88850500D01*
X106779270Y-88850500D01*
X106809699Y-88847646D01*
X106809701Y-88847646D01*
X106873790Y-88825219D01*
X106937882Y-88802793D01*
X107047150Y-88722150D01*
X107127793Y-88612882D01*
X107150219Y-88548790D01*
X107172646Y-88484701D01*
X107172646Y-88484699D01*
X107175500Y-88454269D01*
X107175500Y-87145730D01*
X107172646Y-87115300D01*
X107172646Y-87115298D01*
X107127793Y-86987119D01*
X107127792Y-86987117D01*
X107047150Y-86877850D01*
X106937882Y-86797207D01*
X106937880Y-86797206D01*
X106809700Y-86752353D01*
X106779270Y-86749500D01*
X106779266Y-86749500D01*
X105220734Y-86749500D01*
X105220730Y-86749500D01*
X105190300Y-86752353D01*
X105190298Y-86752353D01*
X105062119Y-86797206D01*
X105062117Y-86797207D01*
X104952850Y-86877850D01*
X104872207Y-86987117D01*
X104872206Y-86987119D01*
X104827353Y-87115298D01*
X104827353Y-87115300D01*
X104824500Y-87145730D01*
X100589035Y-87145730D01*
X100592220Y-85243982D01*
X125924500Y-85243982D01*
X125924500Y-85356018D01*
X125953497Y-85464237D01*
X126009515Y-85561263D01*
X126088737Y-85640485D01*
X126185763Y-85696503D01*
X126293982Y-85725500D01*
X126293984Y-85725500D01*
X126406016Y-85725500D01*
X126406018Y-85725500D01*
X126514237Y-85696503D01*
X126611263Y-85640485D01*
X126690485Y-85561263D01*
X126746503Y-85464237D01*
X126775500Y-85356018D01*
X126775500Y-85243982D01*
X126746503Y-85135763D01*
X126690485Y-85038737D01*
X126611263Y-84959515D01*
X126514237Y-84903497D01*
X126406018Y-84874500D01*
X126293982Y-84874500D01*
X126185763Y-84903497D01*
X126185760Y-84903498D01*
X126088740Y-84959513D01*
X126088734Y-84959517D01*
X126009517Y-85038734D01*
X126009513Y-85038740D01*
X125953498Y-85135760D01*
X125953497Y-85135763D01*
X125924500Y-85243982D01*
X100592220Y-85243982D01*
X100595235Y-83443982D01*
X131774500Y-83443982D01*
X131774500Y-83556018D01*
X131803497Y-83664237D01*
X131859515Y-83761263D01*
X131938737Y-83840485D01*
X132035763Y-83896503D01*
X132143982Y-83925500D01*
X132143984Y-83925500D01*
X132256016Y-83925500D01*
X132256018Y-83925500D01*
X132364237Y-83896503D01*
X132461263Y-83840485D01*
X132540485Y-83761263D01*
X132596503Y-83664237D01*
X132625500Y-83556018D01*
X132625500Y-83443982D01*
X132596503Y-83335763D01*
X132540485Y-83238737D01*
X132461263Y-83159515D01*
X132364237Y-83103497D01*
X132256018Y-83074500D01*
X132143982Y-83074500D01*
X132035763Y-83103497D01*
X132035760Y-83103498D01*
X131938740Y-83159513D01*
X131938734Y-83159517D01*
X131859517Y-83238734D01*
X131859513Y-83238740D01*
X131803498Y-83335760D01*
X131803497Y-83335763D01*
X131774500Y-83443982D01*
X100595235Y-83443982D01*
X100600879Y-80074717D01*
X100600890Y-80073414D01*
X100600915Y-80071530D01*
X118249500Y-80071530D01*
X118249500Y-80528469D01*
X118259446Y-80578469D01*
X118289870Y-80731420D01*
X118369059Y-80922598D01*
X118402468Y-80972598D01*
X118484024Y-81094657D01*
X118630342Y-81240975D01*
X118630345Y-81240977D01*
X118802402Y-81355941D01*
X118993580Y-81435130D01*
X119157784Y-81467792D01*
X119196530Y-81475499D01*
X119196534Y-81475500D01*
X119196535Y-81475500D01*
X119403466Y-81475500D01*
X119403467Y-81475499D01*
X119606420Y-81435130D01*
X119797598Y-81355941D01*
X119969655Y-81240977D01*
X120115977Y-81094655D01*
X120230941Y-80922598D01*
X120310130Y-80731420D01*
X120350500Y-80528465D01*
X120350500Y-80071535D01*
X120350499Y-80071530D01*
X120749500Y-80071530D01*
X120749500Y-80528469D01*
X120759446Y-80578469D01*
X120789870Y-80731420D01*
X120869059Y-80922598D01*
X120902468Y-80972598D01*
X120984024Y-81094657D01*
X121130342Y-81240975D01*
X121130345Y-81240977D01*
X121302402Y-81355941D01*
X121493580Y-81435130D01*
X121657784Y-81467792D01*
X121696530Y-81475499D01*
X121696534Y-81475500D01*
X121696535Y-81475500D01*
X121903466Y-81475500D01*
X121903467Y-81475499D01*
X122106420Y-81435130D01*
X122297598Y-81355941D01*
X122469655Y-81240977D01*
X122615977Y-81094655D01*
X122730941Y-80922598D01*
X122810130Y-80731420D01*
X122850500Y-80528465D01*
X122850500Y-80071535D01*
X122850499Y-80071530D01*
X123249500Y-80071530D01*
X123249500Y-80528469D01*
X123259446Y-80578469D01*
X123289870Y-80731420D01*
X123369059Y-80922598D01*
X123402468Y-80972598D01*
X123484024Y-81094657D01*
X123630342Y-81240975D01*
X123630345Y-81240977D01*
X123802402Y-81355941D01*
X123993580Y-81435130D01*
X124157784Y-81467792D01*
X124196530Y-81475499D01*
X124196534Y-81475500D01*
X124196535Y-81475500D01*
X124403466Y-81475500D01*
X124403467Y-81475499D01*
X124606420Y-81435130D01*
X124797598Y-81355941D01*
X124969655Y-81240977D01*
X125115977Y-81094655D01*
X125230941Y-80922598D01*
X125310130Y-80731420D01*
X125350500Y-80528465D01*
X125350500Y-80071535D01*
X125350499Y-80071530D01*
X125749500Y-80071530D01*
X125749500Y-80528469D01*
X125759446Y-80578469D01*
X125789870Y-80731420D01*
X125869059Y-80922598D01*
X125902468Y-80972598D01*
X125984024Y-81094657D01*
X126130342Y-81240975D01*
X126130345Y-81240977D01*
X126302402Y-81355941D01*
X126493580Y-81435130D01*
X126657784Y-81467792D01*
X126696530Y-81475499D01*
X126696534Y-81475500D01*
X126696535Y-81475500D01*
X126903466Y-81475500D01*
X126903467Y-81475499D01*
X127106420Y-81435130D01*
X127297598Y-81355941D01*
X127469655Y-81240977D01*
X127615977Y-81094655D01*
X127730941Y-80922598D01*
X127810130Y-80731420D01*
X127850500Y-80528465D01*
X127850500Y-80071535D01*
X127810130Y-79868580D01*
X127730941Y-79677402D01*
X127670353Y-79586725D01*
X127670352Y-79586722D01*
X127626257Y-79520730D01*
X130749500Y-79520730D01*
X130749500Y-81079269D01*
X130752353Y-81109699D01*
X130752353Y-81109701D01*
X130797206Y-81237880D01*
X130797207Y-81237882D01*
X130877850Y-81347150D01*
X130987118Y-81427793D01*
X131008089Y-81435131D01*
X131115299Y-81472646D01*
X131145730Y-81475500D01*
X131145734Y-81475500D01*
X132454270Y-81475500D01*
X132484699Y-81472646D01*
X132484701Y-81472646D01*
X132548790Y-81450219D01*
X132612882Y-81427793D01*
X132722150Y-81347150D01*
X132802793Y-81237882D01*
X132833649Y-81149701D01*
X132847646Y-81109701D01*
X132847646Y-81109699D01*
X132850500Y-81079269D01*
X132850500Y-80111530D01*
X137649500Y-80111530D01*
X137649500Y-80568469D01*
X137689868Y-80771412D01*
X137689870Y-80771420D01*
X137752489Y-80922596D01*
X137769059Y-80962598D01*
X137775741Y-80972598D01*
X137884024Y-81134657D01*
X138030342Y-81280975D01*
X138030345Y-81280977D01*
X138202402Y-81395941D01*
X138393580Y-81475130D01*
X138582187Y-81512646D01*
X138596530Y-81515499D01*
X138596534Y-81515500D01*
X138596535Y-81515500D01*
X138803466Y-81515500D01*
X138803467Y-81515499D01*
X139006420Y-81475130D01*
X139197598Y-81395941D01*
X139369655Y-81280977D01*
X139515977Y-81134655D01*
X139630941Y-80962598D01*
X139710130Y-80771420D01*
X139750500Y-80568465D01*
X139750500Y-80111535D01*
X139750499Y-80111530D01*
X140149500Y-80111530D01*
X140149500Y-80568469D01*
X140189868Y-80771412D01*
X140189870Y-80771420D01*
X140252489Y-80922596D01*
X140269059Y-80962598D01*
X140275741Y-80972598D01*
X140384024Y-81134657D01*
X140530342Y-81280975D01*
X140530345Y-81280977D01*
X140702402Y-81395941D01*
X140893580Y-81475130D01*
X141082187Y-81512646D01*
X141096530Y-81515499D01*
X141096534Y-81515500D01*
X141096535Y-81515500D01*
X141303466Y-81515500D01*
X141303467Y-81515499D01*
X141506420Y-81475130D01*
X141697598Y-81395941D01*
X141869655Y-81280977D01*
X142015977Y-81134655D01*
X142130941Y-80962598D01*
X142210130Y-80771420D01*
X142250500Y-80568465D01*
X142250500Y-80111535D01*
X142250499Y-80111530D01*
X142649500Y-80111530D01*
X142649500Y-80568469D01*
X142689868Y-80771412D01*
X142689870Y-80771420D01*
X142752489Y-80922596D01*
X142769059Y-80962598D01*
X142775741Y-80972598D01*
X142884024Y-81134657D01*
X143030342Y-81280975D01*
X143030345Y-81280977D01*
X143202402Y-81395941D01*
X143393580Y-81475130D01*
X143582187Y-81512646D01*
X143596530Y-81515499D01*
X143596534Y-81515500D01*
X143596535Y-81515500D01*
X143803466Y-81515500D01*
X143803467Y-81515499D01*
X144006420Y-81475130D01*
X144197598Y-81395941D01*
X144369655Y-81280977D01*
X144515977Y-81134655D01*
X144630941Y-80962598D01*
X144710130Y-80771420D01*
X144750500Y-80568465D01*
X144750500Y-80111535D01*
X144710130Y-79908580D01*
X144630941Y-79717402D01*
X144570353Y-79626725D01*
X144570352Y-79626722D01*
X144526257Y-79560730D01*
X147649500Y-79560730D01*
X147649500Y-81119269D01*
X147652353Y-81149699D01*
X147652353Y-81149701D01*
X147684293Y-81240977D01*
X147697207Y-81277882D01*
X147777850Y-81387150D01*
X147887118Y-81467793D01*
X147929845Y-81482744D01*
X148015299Y-81512646D01*
X148045730Y-81515500D01*
X148045734Y-81515500D01*
X149354270Y-81515500D01*
X149384699Y-81512646D01*
X149384701Y-81512646D01*
X149448790Y-81490219D01*
X149512882Y-81467793D01*
X149622150Y-81387150D01*
X149702793Y-81277882D01*
X149725219Y-81213790D01*
X149747646Y-81149701D01*
X149747646Y-81149699D01*
X149750500Y-81119269D01*
X149750500Y-80071530D01*
X158449500Y-80071530D01*
X158449500Y-80528469D01*
X158459446Y-80578469D01*
X158489870Y-80731420D01*
X158569059Y-80922598D01*
X158602468Y-80972598D01*
X158684024Y-81094657D01*
X158830342Y-81240975D01*
X158830345Y-81240977D01*
X159002402Y-81355941D01*
X159193580Y-81435130D01*
X159357784Y-81467792D01*
X159396530Y-81475499D01*
X159396534Y-81475500D01*
X159396535Y-81475500D01*
X159603466Y-81475500D01*
X159603467Y-81475499D01*
X159806420Y-81435130D01*
X159997598Y-81355941D01*
X160169655Y-81240977D01*
X160315977Y-81094655D01*
X160430941Y-80922598D01*
X160510130Y-80731420D01*
X160550500Y-80528465D01*
X160550500Y-80071535D01*
X160550499Y-80071530D01*
X160949500Y-80071530D01*
X160949500Y-80528469D01*
X160959446Y-80578469D01*
X160989870Y-80731420D01*
X161069059Y-80922598D01*
X161102468Y-80972598D01*
X161184024Y-81094657D01*
X161330342Y-81240975D01*
X161330345Y-81240977D01*
X161502402Y-81355941D01*
X161693580Y-81435130D01*
X161857784Y-81467792D01*
X161896530Y-81475499D01*
X161896534Y-81475500D01*
X161896535Y-81475500D01*
X162103466Y-81475500D01*
X162103467Y-81475499D01*
X162306420Y-81435130D01*
X162497598Y-81355941D01*
X162669655Y-81240977D01*
X162815977Y-81094655D01*
X162930941Y-80922598D01*
X163010130Y-80731420D01*
X163050500Y-80528465D01*
X163050500Y-80071535D01*
X163050499Y-80071530D01*
X163449500Y-80071530D01*
X163449500Y-80528469D01*
X163459446Y-80578469D01*
X163489870Y-80731420D01*
X163569059Y-80922598D01*
X163602468Y-80972598D01*
X163684024Y-81094657D01*
X163830342Y-81240975D01*
X163830345Y-81240977D01*
X164002402Y-81355941D01*
X164193580Y-81435130D01*
X164357784Y-81467792D01*
X164396530Y-81475499D01*
X164396534Y-81475500D01*
X164396535Y-81475500D01*
X164603466Y-81475500D01*
X164603467Y-81475499D01*
X164806420Y-81435130D01*
X164997598Y-81355941D01*
X165169655Y-81240977D01*
X165315977Y-81094655D01*
X165430941Y-80922598D01*
X165510130Y-80731420D01*
X165550500Y-80528465D01*
X165550500Y-80071535D01*
X165550499Y-80071530D01*
X165949500Y-80071530D01*
X165949500Y-80528469D01*
X165959446Y-80578469D01*
X165989870Y-80731420D01*
X166069059Y-80922598D01*
X166102468Y-80972598D01*
X166184024Y-81094657D01*
X166330342Y-81240975D01*
X166330345Y-81240977D01*
X166502402Y-81355941D01*
X166693580Y-81435130D01*
X166857784Y-81467792D01*
X166896530Y-81475499D01*
X166896534Y-81475500D01*
X166896535Y-81475500D01*
X167103466Y-81475500D01*
X167103467Y-81475499D01*
X167306420Y-81435130D01*
X167497598Y-81355941D01*
X167669655Y-81240977D01*
X167815977Y-81094655D01*
X167930941Y-80922598D01*
X168010130Y-80731420D01*
X168050500Y-80528465D01*
X168050500Y-80071535D01*
X168010130Y-79868580D01*
X167930941Y-79677402D01*
X167870353Y-79586725D01*
X167870352Y-79586722D01*
X167826257Y-79520730D01*
X168449500Y-79520730D01*
X168449500Y-81079269D01*
X168452353Y-81109699D01*
X168452353Y-81109701D01*
X168497206Y-81237880D01*
X168497207Y-81237882D01*
X168577850Y-81347150D01*
X168687118Y-81427793D01*
X168708089Y-81435131D01*
X168815299Y-81472646D01*
X168845730Y-81475500D01*
X168845734Y-81475500D01*
X170154270Y-81475500D01*
X170184699Y-81472646D01*
X170184701Y-81472646D01*
X170248790Y-81450219D01*
X170312882Y-81427793D01*
X170422150Y-81347150D01*
X170502793Y-81237882D01*
X170533649Y-81149701D01*
X170547646Y-81109701D01*
X170547646Y-81109699D01*
X170550500Y-81079269D01*
X170550500Y-80121530D01*
X178449500Y-80121530D01*
X178449500Y-80578469D01*
X178489868Y-80781412D01*
X178489870Y-80781420D01*
X178569058Y-80972596D01*
X178684024Y-81144657D01*
X178830342Y-81290975D01*
X178830345Y-81290977D01*
X179002402Y-81405941D01*
X179193580Y-81485130D01*
X179382187Y-81522646D01*
X179396530Y-81525499D01*
X179396534Y-81525500D01*
X179396535Y-81525500D01*
X179603466Y-81525500D01*
X179603467Y-81525499D01*
X179806420Y-81485130D01*
X179997598Y-81405941D01*
X180169655Y-81290977D01*
X180315977Y-81144655D01*
X180430941Y-80972598D01*
X180510130Y-80781420D01*
X180550500Y-80578465D01*
X180550500Y-80121535D01*
X180510130Y-79918580D01*
X180430941Y-79727402D01*
X180370353Y-79636725D01*
X180370352Y-79636722D01*
X180326257Y-79570730D01*
X180949500Y-79570730D01*
X180949500Y-81129269D01*
X180952353Y-81159699D01*
X180952353Y-81159701D01*
X180997206Y-81287880D01*
X180997207Y-81287882D01*
X181077850Y-81397150D01*
X181187118Y-81477793D01*
X181208089Y-81485131D01*
X181315299Y-81522646D01*
X181345730Y-81525500D01*
X181345734Y-81525500D01*
X182654270Y-81525500D01*
X182684699Y-81522646D01*
X182684701Y-81522646D01*
X182748790Y-81500219D01*
X182812882Y-81477793D01*
X182922150Y-81397150D01*
X183002793Y-81287882D01*
X183025219Y-81223790D01*
X183047646Y-81159701D01*
X183047646Y-81159699D01*
X183050500Y-81129269D01*
X183050500Y-79570730D01*
X183047646Y-79540300D01*
X183047646Y-79540298D01*
X183002793Y-79412119D01*
X183002792Y-79412117D01*
X183001106Y-79409832D01*
X182922150Y-79302850D01*
X182812882Y-79222207D01*
X182812880Y-79222206D01*
X182684700Y-79177353D01*
X182654270Y-79174500D01*
X182654266Y-79174500D01*
X181345734Y-79174500D01*
X181345730Y-79174500D01*
X181315300Y-79177353D01*
X181315298Y-79177353D01*
X181187119Y-79222206D01*
X181187117Y-79222207D01*
X181077850Y-79302850D01*
X180997207Y-79412117D01*
X180997206Y-79412119D01*
X180952353Y-79540298D01*
X180952353Y-79540300D01*
X180949500Y-79570730D01*
X180326257Y-79570730D01*
X180315980Y-79555349D01*
X180315974Y-79555341D01*
X180169657Y-79409024D01*
X180083626Y-79351541D01*
X179997598Y-79294059D01*
X179994679Y-79292850D01*
X179806420Y-79214870D01*
X179806412Y-79214868D01*
X179603469Y-79174500D01*
X179603465Y-79174500D01*
X179396535Y-79174500D01*
X179396530Y-79174500D01*
X179193587Y-79214868D01*
X179193579Y-79214870D01*
X179002403Y-79294058D01*
X178830342Y-79409024D01*
X178684024Y-79555342D01*
X178569058Y-79727403D01*
X178489870Y-79918579D01*
X178489868Y-79918587D01*
X178449500Y-80121530D01*
X170550500Y-80121530D01*
X170550500Y-79520730D01*
X170547646Y-79490300D01*
X170547646Y-79490298D01*
X170502793Y-79362119D01*
X170502792Y-79362117D01*
X170422150Y-79252850D01*
X170312882Y-79172207D01*
X170312880Y-79172206D01*
X170184700Y-79127353D01*
X170154270Y-79124500D01*
X170154266Y-79124500D01*
X168845734Y-79124500D01*
X168845730Y-79124500D01*
X168815300Y-79127353D01*
X168815298Y-79127353D01*
X168687119Y-79172206D01*
X168687117Y-79172207D01*
X168577850Y-79252850D01*
X168497207Y-79362117D01*
X168497206Y-79362119D01*
X168452353Y-79490298D01*
X168452353Y-79490300D01*
X168449500Y-79520730D01*
X167826257Y-79520730D01*
X167815980Y-79505349D01*
X167815974Y-79505341D01*
X167669657Y-79359024D01*
X167557461Y-79284058D01*
X167497598Y-79244059D01*
X167336556Y-79177353D01*
X167306420Y-79164870D01*
X167306412Y-79164868D01*
X167103469Y-79124500D01*
X167103465Y-79124500D01*
X166896535Y-79124500D01*
X166896530Y-79124500D01*
X166693587Y-79164868D01*
X166693579Y-79164870D01*
X166502403Y-79244058D01*
X166330342Y-79359024D01*
X166184024Y-79505342D01*
X166069058Y-79677403D01*
X165989870Y-79868579D01*
X165989868Y-79868587D01*
X165949500Y-80071530D01*
X165550499Y-80071530D01*
X165510130Y-79868580D01*
X165430941Y-79677402D01*
X165315977Y-79505345D01*
X165315975Y-79505342D01*
X165169657Y-79359024D01*
X165057461Y-79284058D01*
X164997598Y-79244059D01*
X164836556Y-79177353D01*
X164806420Y-79164870D01*
X164806412Y-79164868D01*
X164603469Y-79124500D01*
X164603465Y-79124500D01*
X164396535Y-79124500D01*
X164396530Y-79124500D01*
X164193587Y-79164868D01*
X164193579Y-79164870D01*
X164002403Y-79244058D01*
X163830342Y-79359024D01*
X163684024Y-79505342D01*
X163569058Y-79677403D01*
X163489870Y-79868579D01*
X163489868Y-79868587D01*
X163449500Y-80071530D01*
X163050499Y-80071530D01*
X163010130Y-79868580D01*
X162930941Y-79677402D01*
X162815977Y-79505345D01*
X162815975Y-79505342D01*
X162669657Y-79359024D01*
X162557461Y-79284058D01*
X162497598Y-79244059D01*
X162336556Y-79177353D01*
X162306420Y-79164870D01*
X162306412Y-79164868D01*
X162103469Y-79124500D01*
X162103465Y-79124500D01*
X161896535Y-79124500D01*
X161896530Y-79124500D01*
X161693587Y-79164868D01*
X161693579Y-79164870D01*
X161502403Y-79244058D01*
X161330342Y-79359024D01*
X161184024Y-79505342D01*
X161069058Y-79677403D01*
X160989870Y-79868579D01*
X160989868Y-79868587D01*
X160949500Y-80071530D01*
X160550499Y-80071530D01*
X160510130Y-79868580D01*
X160430941Y-79677402D01*
X160315977Y-79505345D01*
X160315975Y-79505342D01*
X160169657Y-79359024D01*
X160057461Y-79284058D01*
X159997598Y-79244059D01*
X159836556Y-79177353D01*
X159806420Y-79164870D01*
X159806412Y-79164868D01*
X159603469Y-79124500D01*
X159603465Y-79124500D01*
X159396535Y-79124500D01*
X159396530Y-79124500D01*
X159193587Y-79164868D01*
X159193579Y-79164870D01*
X159002403Y-79244058D01*
X158830342Y-79359024D01*
X158684024Y-79505342D01*
X158569058Y-79677403D01*
X158489870Y-79868579D01*
X158489868Y-79868587D01*
X158449500Y-80071530D01*
X149750500Y-80071530D01*
X149750500Y-79560730D01*
X149747646Y-79530300D01*
X149747646Y-79530298D01*
X149705492Y-79409832D01*
X149702793Y-79402118D01*
X149622150Y-79292850D01*
X149512882Y-79212207D01*
X149512880Y-79212206D01*
X149384700Y-79167353D01*
X149354270Y-79164500D01*
X149354266Y-79164500D01*
X148045734Y-79164500D01*
X148045730Y-79164500D01*
X148015300Y-79167353D01*
X148015298Y-79167353D01*
X147887119Y-79212206D01*
X147887117Y-79212207D01*
X147777850Y-79292850D01*
X147697207Y-79402117D01*
X147697206Y-79402119D01*
X147652353Y-79530298D01*
X147652353Y-79530300D01*
X147649500Y-79560730D01*
X144526257Y-79560730D01*
X144515980Y-79545349D01*
X144515974Y-79545341D01*
X144369657Y-79399024D01*
X144212564Y-79294059D01*
X144197598Y-79284059D01*
X144122253Y-79252850D01*
X144006420Y-79204870D01*
X144006412Y-79204868D01*
X143803469Y-79164500D01*
X143803465Y-79164500D01*
X143596535Y-79164500D01*
X143596530Y-79164500D01*
X143393587Y-79204868D01*
X143393579Y-79204870D01*
X143202403Y-79284058D01*
X143030342Y-79399024D01*
X142884024Y-79545342D01*
X142769058Y-79717403D01*
X142689870Y-79908579D01*
X142689868Y-79908587D01*
X142649500Y-80111530D01*
X142250499Y-80111530D01*
X142210130Y-79908580D01*
X142130941Y-79717402D01*
X142015977Y-79545345D01*
X142015975Y-79545342D01*
X141869657Y-79399024D01*
X141712564Y-79294059D01*
X141697598Y-79284059D01*
X141622253Y-79252850D01*
X141506420Y-79204870D01*
X141506412Y-79204868D01*
X141303469Y-79164500D01*
X141303465Y-79164500D01*
X141096535Y-79164500D01*
X141096530Y-79164500D01*
X140893587Y-79204868D01*
X140893579Y-79204870D01*
X140702403Y-79284058D01*
X140530342Y-79399024D01*
X140384024Y-79545342D01*
X140269058Y-79717403D01*
X140189870Y-79908579D01*
X140189868Y-79908587D01*
X140149500Y-80111530D01*
X139750499Y-80111530D01*
X139710130Y-79908580D01*
X139630941Y-79717402D01*
X139515977Y-79545345D01*
X139515975Y-79545342D01*
X139369657Y-79399024D01*
X139212564Y-79294059D01*
X139197598Y-79284059D01*
X139122253Y-79252850D01*
X139006420Y-79204870D01*
X139006412Y-79204868D01*
X138803469Y-79164500D01*
X138803465Y-79164500D01*
X138596535Y-79164500D01*
X138596530Y-79164500D01*
X138393587Y-79204868D01*
X138393579Y-79204870D01*
X138202403Y-79284058D01*
X138030342Y-79399024D01*
X137884024Y-79545342D01*
X137769058Y-79717403D01*
X137689870Y-79908579D01*
X137689868Y-79908587D01*
X137649500Y-80111530D01*
X132850500Y-80111530D01*
X132850500Y-79520730D01*
X132847646Y-79490300D01*
X132847646Y-79490298D01*
X132802793Y-79362119D01*
X132802792Y-79362117D01*
X132722150Y-79252850D01*
X132612882Y-79172207D01*
X132612880Y-79172206D01*
X132484700Y-79127353D01*
X132454270Y-79124500D01*
X132454266Y-79124500D01*
X131145734Y-79124500D01*
X131145730Y-79124500D01*
X131115300Y-79127353D01*
X131115298Y-79127353D01*
X130987119Y-79172206D01*
X130987117Y-79172207D01*
X130877850Y-79252850D01*
X130797207Y-79362117D01*
X130797206Y-79362119D01*
X130752353Y-79490298D01*
X130752353Y-79490300D01*
X130749500Y-79520730D01*
X127626257Y-79520730D01*
X127615980Y-79505349D01*
X127615974Y-79505341D01*
X127469657Y-79359024D01*
X127357461Y-79284058D01*
X127297598Y-79244059D01*
X127136556Y-79177353D01*
X127106420Y-79164870D01*
X127106412Y-79164868D01*
X126903469Y-79124500D01*
X126903465Y-79124500D01*
X126696535Y-79124500D01*
X126696530Y-79124500D01*
X126493587Y-79164868D01*
X126493579Y-79164870D01*
X126302403Y-79244058D01*
X126130342Y-79359024D01*
X125984024Y-79505342D01*
X125869058Y-79677403D01*
X125789870Y-79868579D01*
X125789868Y-79868587D01*
X125749500Y-80071530D01*
X125350499Y-80071530D01*
X125310130Y-79868580D01*
X125230941Y-79677402D01*
X125115977Y-79505345D01*
X125115975Y-79505342D01*
X124969657Y-79359024D01*
X124857461Y-79284058D01*
X124797598Y-79244059D01*
X124636556Y-79177353D01*
X124606420Y-79164870D01*
X124606412Y-79164868D01*
X124403469Y-79124500D01*
X124403465Y-79124500D01*
X124196535Y-79124500D01*
X124196530Y-79124500D01*
X123993587Y-79164868D01*
X123993579Y-79164870D01*
X123802403Y-79244058D01*
X123630342Y-79359024D01*
X123484024Y-79505342D01*
X123369058Y-79677403D01*
X123289870Y-79868579D01*
X123289868Y-79868587D01*
X123249500Y-80071530D01*
X122850499Y-80071530D01*
X122810130Y-79868580D01*
X122730941Y-79677402D01*
X122615977Y-79505345D01*
X122615975Y-79505342D01*
X122469657Y-79359024D01*
X122357461Y-79284058D01*
X122297598Y-79244059D01*
X122136556Y-79177353D01*
X122106420Y-79164870D01*
X122106412Y-79164868D01*
X121903469Y-79124500D01*
X121903465Y-79124500D01*
X121696535Y-79124500D01*
X121696530Y-79124500D01*
X121493587Y-79164868D01*
X121493579Y-79164870D01*
X121302403Y-79244058D01*
X121130342Y-79359024D01*
X120984024Y-79505342D01*
X120869058Y-79677403D01*
X120789870Y-79868579D01*
X120789868Y-79868587D01*
X120749500Y-80071530D01*
X120350499Y-80071530D01*
X120310130Y-79868580D01*
X120230941Y-79677402D01*
X120115977Y-79505345D01*
X120115975Y-79505342D01*
X119969657Y-79359024D01*
X119857461Y-79284058D01*
X119797598Y-79244059D01*
X119636556Y-79177353D01*
X119606420Y-79164870D01*
X119606412Y-79164868D01*
X119403469Y-79124500D01*
X119403465Y-79124500D01*
X119196535Y-79124500D01*
X119196530Y-79124500D01*
X118993587Y-79164868D01*
X118993579Y-79164870D01*
X118802403Y-79244058D01*
X118630342Y-79359024D01*
X118484024Y-79505342D01*
X118369058Y-79677403D01*
X118289870Y-79868579D01*
X118289868Y-79868587D01*
X118249500Y-80071530D01*
X100600915Y-80071530D01*
X100600987Y-80065955D01*
X100601005Y-80065892D01*
X100601005Y-80001950D01*
X100601066Y-79998055D01*
X100605135Y-79868579D01*
X100619430Y-79413710D01*
X100619916Y-79405974D01*
X100674754Y-78825854D01*
X100675730Y-78818135D01*
X100766879Y-78242638D01*
X100768329Y-78235036D01*
X100895448Y-77666337D01*
X100897377Y-77658829D01*
X101059947Y-77099258D01*
X101062332Y-77091918D01*
X101259717Y-76543659D01*
X101262571Y-76536447D01*
X101493993Y-76001665D01*
X101497296Y-75994644D01*
X101761837Y-75475455D01*
X101765577Y-75468653D01*
X102062192Y-74967104D01*
X102066347Y-74960557D01*
X102393873Y-74478615D01*
X102398423Y-74472353D01*
X102755577Y-74011914D01*
X102760505Y-74005956D01*
X103145873Y-73568842D01*
X103151175Y-73563197D01*
X103563197Y-73151175D01*
X103568842Y-73145873D01*
X104005956Y-72760505D01*
X104011914Y-72755577D01*
X104472353Y-72398423D01*
X104478615Y-72393873D01*
X104960557Y-72066347D01*
X104967104Y-72062192D01*
X105468653Y-71765577D01*
X105475455Y-71761837D01*
X105994644Y-71497296D01*
X106001665Y-71493993D01*
X106536447Y-71262571D01*
X106543659Y-71259717D01*
X107091918Y-71062332D01*
X107099258Y-71059947D01*
X107658829Y-70897377D01*
X107666337Y-70895448D01*
X108235036Y-70768329D01*
X108242638Y-70766879D01*
X108818141Y-70675729D01*
X108825854Y-70674754D01*
X109405974Y-70619916D01*
X109413710Y-70619430D01*
X109998059Y-70601066D01*
X110001954Y-70601005D01*
X124026385Y-70601005D01*
X124026387Y-70601005D01*
X124153681Y-70566897D01*
X124267809Y-70501005D01*
X124360995Y-70407819D01*
X124426887Y-70293691D01*
X124460995Y-70166397D01*
X124460995Y-63420730D01*
X140299500Y-63420730D01*
X140299500Y-64979269D01*
X140302353Y-65009699D01*
X140302353Y-65009701D01*
X140347206Y-65137880D01*
X140347207Y-65137882D01*
X140427850Y-65247150D01*
X140537118Y-65327793D01*
X140558089Y-65335131D01*
X140665299Y-65372646D01*
X140695730Y-65375500D01*
X140695734Y-65375500D01*
X142004270Y-65375500D01*
X142034699Y-65372646D01*
X142034701Y-65372646D01*
X142098790Y-65350219D01*
X142162882Y-65327793D01*
X142272150Y-65247150D01*
X142352793Y-65137882D01*
X142375219Y-65073790D01*
X142397646Y-65009701D01*
X142397646Y-65009699D01*
X142400500Y-64979269D01*
X142400500Y-63971530D01*
X142799500Y-63971530D01*
X142799500Y-64428469D01*
X142839868Y-64631412D01*
X142839870Y-64631420D01*
X142919058Y-64822596D01*
X143034024Y-64994657D01*
X143180342Y-65140975D01*
X143180345Y-65140977D01*
X143352402Y-65255941D01*
X143543580Y-65335130D01*
X143732187Y-65372646D01*
X143746530Y-65375499D01*
X143746534Y-65375500D01*
X143746535Y-65375500D01*
X143953466Y-65375500D01*
X143953467Y-65375499D01*
X144156420Y-65335130D01*
X144347598Y-65255941D01*
X144519655Y-65140977D01*
X144665977Y-64994655D01*
X144780941Y-64822598D01*
X144860130Y-64631420D01*
X144900500Y-64428465D01*
X144900500Y-63971535D01*
X144900499Y-63971530D01*
X145299500Y-63971530D01*
X145299500Y-64428469D01*
X145339868Y-64631412D01*
X145339870Y-64631420D01*
X145419058Y-64822596D01*
X145534024Y-64994657D01*
X145680342Y-65140975D01*
X145680345Y-65140977D01*
X145852402Y-65255941D01*
X146043580Y-65335130D01*
X146232187Y-65372646D01*
X146246530Y-65375499D01*
X146246534Y-65375500D01*
X146246535Y-65375500D01*
X146453466Y-65375500D01*
X146453467Y-65375499D01*
X146656420Y-65335130D01*
X146847598Y-65255941D01*
X147019655Y-65140977D01*
X147165977Y-64994655D01*
X147280941Y-64822598D01*
X147360130Y-64631420D01*
X147400500Y-64428465D01*
X147400500Y-63971535D01*
X147400499Y-63971530D01*
X147799500Y-63971530D01*
X147799500Y-64428469D01*
X147839868Y-64631412D01*
X147839870Y-64631420D01*
X147919058Y-64822596D01*
X148034024Y-64994657D01*
X148180342Y-65140975D01*
X148180345Y-65140977D01*
X148352402Y-65255941D01*
X148543580Y-65335130D01*
X148732187Y-65372646D01*
X148746530Y-65375499D01*
X148746534Y-65375500D01*
X148746535Y-65375500D01*
X148953466Y-65375500D01*
X148953467Y-65375499D01*
X149156420Y-65335130D01*
X149347598Y-65255941D01*
X149519655Y-65140977D01*
X149665977Y-64994655D01*
X149780941Y-64822598D01*
X149860130Y-64631420D01*
X149900500Y-64428465D01*
X149900500Y-63971535D01*
X149900499Y-63971530D01*
X150299500Y-63971530D01*
X150299500Y-64428469D01*
X150339868Y-64631412D01*
X150339870Y-64631420D01*
X150419058Y-64822596D01*
X150534024Y-64994657D01*
X150680342Y-65140975D01*
X150680345Y-65140977D01*
X150852402Y-65255941D01*
X151043580Y-65335130D01*
X151232187Y-65372646D01*
X151246530Y-65375499D01*
X151246534Y-65375500D01*
X151246535Y-65375500D01*
X151453466Y-65375500D01*
X151453467Y-65375499D01*
X151656420Y-65335130D01*
X151847598Y-65255941D01*
X152019655Y-65140977D01*
X152165977Y-64994655D01*
X152280941Y-64822598D01*
X152360130Y-64631420D01*
X152400500Y-64428465D01*
X152400500Y-63971535D01*
X152360130Y-63768580D01*
X152280941Y-63577402D01*
X152165977Y-63405345D01*
X152165975Y-63405342D01*
X152019657Y-63259024D01*
X151933626Y-63201541D01*
X151847598Y-63144059D01*
X151656420Y-63064870D01*
X151656412Y-63064868D01*
X151453469Y-63024500D01*
X151453465Y-63024500D01*
X151246535Y-63024500D01*
X151246530Y-63024500D01*
X151043587Y-63064868D01*
X151043579Y-63064870D01*
X150852403Y-63144058D01*
X150680342Y-63259024D01*
X150534024Y-63405342D01*
X150419058Y-63577403D01*
X150339870Y-63768579D01*
X150339868Y-63768587D01*
X150299500Y-63971530D01*
X149900499Y-63971530D01*
X149860130Y-63768580D01*
X149780941Y-63577402D01*
X149665977Y-63405345D01*
X149665975Y-63405342D01*
X149519657Y-63259024D01*
X149433626Y-63201541D01*
X149347598Y-63144059D01*
X149156420Y-63064870D01*
X149156412Y-63064868D01*
X148953469Y-63024500D01*
X148953465Y-63024500D01*
X148746535Y-63024500D01*
X148746530Y-63024500D01*
X148543587Y-63064868D01*
X148543579Y-63064870D01*
X148352403Y-63144058D01*
X148180342Y-63259024D01*
X148034024Y-63405342D01*
X147919058Y-63577403D01*
X147839870Y-63768579D01*
X147839868Y-63768587D01*
X147799500Y-63971530D01*
X147400499Y-63971530D01*
X147360130Y-63768580D01*
X147280941Y-63577402D01*
X147165977Y-63405345D01*
X147165975Y-63405342D01*
X147019657Y-63259024D01*
X146933626Y-63201541D01*
X146847598Y-63144059D01*
X146656420Y-63064870D01*
X146656412Y-63064868D01*
X146453469Y-63024500D01*
X146453465Y-63024500D01*
X146246535Y-63024500D01*
X146246530Y-63024500D01*
X146043587Y-63064868D01*
X146043579Y-63064870D01*
X145852403Y-63144058D01*
X145680342Y-63259024D01*
X145534024Y-63405342D01*
X145419058Y-63577403D01*
X145339870Y-63768579D01*
X145339868Y-63768587D01*
X145299500Y-63971530D01*
X144900499Y-63971530D01*
X144860130Y-63768580D01*
X144780941Y-63577402D01*
X144665977Y-63405345D01*
X144665975Y-63405342D01*
X144519657Y-63259024D01*
X144433626Y-63201541D01*
X144347598Y-63144059D01*
X144156420Y-63064870D01*
X144156412Y-63064868D01*
X143953469Y-63024500D01*
X143953465Y-63024500D01*
X143746535Y-63024500D01*
X143746530Y-63024500D01*
X143543587Y-63064868D01*
X143543579Y-63064870D01*
X143352403Y-63144058D01*
X143180342Y-63259024D01*
X143034024Y-63405342D01*
X142919058Y-63577403D01*
X142839870Y-63768579D01*
X142839868Y-63768587D01*
X142799500Y-63971530D01*
X142400500Y-63971530D01*
X142400500Y-63420730D01*
X142397646Y-63390300D01*
X142397646Y-63390298D01*
X142352793Y-63262119D01*
X142352792Y-63262117D01*
X142272150Y-63152850D01*
X142162882Y-63072207D01*
X142162880Y-63072206D01*
X142034700Y-63027353D01*
X142004270Y-63024500D01*
X142004266Y-63024500D01*
X140695734Y-63024500D01*
X140695730Y-63024500D01*
X140665300Y-63027353D01*
X140665298Y-63027353D01*
X140537119Y-63072206D01*
X140537117Y-63072207D01*
X140427850Y-63152850D01*
X140347207Y-63262117D01*
X140347206Y-63262119D01*
X140302353Y-63390298D01*
X140302353Y-63390300D01*
X140299500Y-63420730D01*
X124460995Y-63420730D01*
X124460995Y-57143982D01*
X143424500Y-57143982D01*
X143424500Y-57256018D01*
X143453497Y-57364237D01*
X143509515Y-57461263D01*
X143588737Y-57540485D01*
X143685763Y-57596503D01*
X143793982Y-57625500D01*
X143793984Y-57625500D01*
X143906016Y-57625500D01*
X143906018Y-57625500D01*
X144014237Y-57596503D01*
X144111263Y-57540485D01*
X144190485Y-57461263D01*
X144246503Y-57364237D01*
X144275500Y-57256018D01*
X144275500Y-57143982D01*
X144246503Y-57035763D01*
X144190485Y-56938737D01*
X144111263Y-56859515D01*
X144014237Y-56803497D01*
X143906018Y-56774500D01*
X143793982Y-56774500D01*
X143685763Y-56803497D01*
X143685760Y-56803498D01*
X143588740Y-56859513D01*
X143588734Y-56859517D01*
X143509517Y-56938734D01*
X143509513Y-56938740D01*
X143453498Y-57035760D01*
X143453497Y-57035763D01*
X143424500Y-57143982D01*
X124460995Y-57143982D01*
X124460995Y-50924999D01*
X124480680Y-50857960D01*
X124533484Y-50812205D01*
X124584990Y-50800999D01*
X171174995Y-50800506D01*
X171242033Y-50820190D01*
G37*
%TD.AperFunction*%
%TD*%
M02*
