%TF.GenerationSoftware,KiCad,Pcbnew,10.0.6*%
%TF.CreationDate,2026-10-07T11:24:25+02:00*%
%TF.ProjectId,1ST_Schematix,3153545f-5363-4686-956d-617469782e6b,rev?*%
%TF.SameCoordinates,Original*%
%TF.FileFunction,Soldermask,Top*%
%TF.FilePolarity,Negative*%
%FSLAX46Y46*%
G04 Gerber Fmt 4.6, Leading zero omitted, Abs format (unit mm)*
G04 Created by KiCad (PCBNEW 10.0.6) date 2026-10-07 11:24:25*
%MOMM*%
%LPD*%
G01*
G04 APERTURE LIST*
G04 Aperture macros list*
%AMRoundRect*
0 Rectangle with rounded corners*
0 $1 Rounding radius*
0 $2 $3 $4 $5 $6 $7 $8 $9 X,Y pos of 4 corners*
0 Add a 4 corners polygon primitive as box body*
4,1,4,$2,$3,$4,$5,$6,$7,$8,$9,$2,$3,0*
0 Add four circle primitives for the rounded corners*
1,1,$1+$1,$2,$3*
1,1,$1+$1,$4,$5*
1,1,$1+$1,$6,$7*
1,1,$1+$1,$8,$9*
0 Add four rect primitives between the rounded corners*
20,1,$1+$1,$2,$3,$4,$5,0*
20,1,$1+$1,$4,$5,$6,$7,0*
20,1,$1+$1,$6,$7,$8,$9,0*
20,1,$1+$1,$8,$9,$2,$3,0*%
%AMFreePoly0*
4,1,6,1.000000,0.000000,0.500000,-0.750000,-0.500000,-0.750000,-0.500000,0.750000,0.500000,0.750000,1.000000,0.000000,1.000000,0.000000,$1*%
%AMFreePoly1*
4,1,6,0.500000,-0.750000,-0.650000,-0.750000,-0.150000,0.000000,-0.650000,0.750000,0.500000,0.750000,0.500000,-0.750000,0.500000,-0.750000,$1*%
G04 Aperture macros list end*
%ADD10RoundRect,0.147500X-0.147500X-0.172500X0.147500X-0.172500X0.147500X0.172500X-0.147500X0.172500X0*%
%ADD11RoundRect,0.218750X0.218750X0.256250X-0.218750X0.256250X-0.218750X-0.256250X0.218750X-0.256250X0*%
%ADD12C,2.000000*%
%ADD13RoundRect,0.140000X0.170000X-0.140000X0.170000X0.140000X-0.170000X0.140000X-0.170000X-0.140000X0*%
%ADD14RoundRect,0.237500X0.250000X0.237500X-0.250000X0.237500X-0.250000X-0.237500X0.250000X-0.237500X0*%
%ADD15RoundRect,0.250000X0.600000X0.725000X-0.600000X0.725000X-0.600000X-0.725000X0.600000X-0.725000X0*%
%ADD16O,1.700000X1.950000*%
%ADD17RoundRect,0.135000X-0.135000X-0.185000X0.135000X-0.185000X0.135000X0.185000X-0.135000X0.185000X0*%
%ADD18RoundRect,0.140000X0.140000X0.170000X-0.140000X0.170000X-0.140000X-0.170000X0.140000X-0.170000X0*%
%ADD19RoundRect,0.250000X-1.950000X-1.000000X1.950000X-1.000000X1.950000X1.000000X-1.950000X1.000000X0*%
%ADD20RoundRect,0.250000X-0.725000X0.600000X-0.725000X-0.600000X0.725000X-0.600000X0.725000X0.600000X0*%
%ADD21O,1.950000X1.700000*%
%ADD22RoundRect,0.140000X-0.170000X0.140000X-0.170000X-0.140000X0.170000X-0.140000X0.170000X0.140000X0*%
%ADD23C,5.500000*%
%ADD24RoundRect,0.135000X0.135000X0.185000X-0.135000X0.185000X-0.135000X-0.185000X0.135000X-0.185000X0*%
%ADD25FreePoly0,180.000000*%
%ADD26FreePoly1,180.000000*%
%ADD27RoundRect,0.140000X-0.140000X-0.170000X0.140000X-0.170000X0.140000X0.170000X-0.140000X0.170000X0*%
%ADD28C,0.650000*%
%ADD29RoundRect,0.150000X0.425000X-0.150000X0.425000X0.150000X-0.425000X0.150000X-0.425000X-0.150000X0*%
%ADD30RoundRect,0.075000X0.500000X-0.075000X0.500000X0.075000X-0.500000X0.075000X-0.500000X-0.075000X0*%
%ADD31O,2.100000X1.000000*%
%ADD32O,1.800000X1.000000*%
%ADD33RoundRect,0.135000X0.185000X-0.135000X0.185000X0.135000X-0.185000X0.135000X-0.185000X-0.135000X0*%
%ADD34RoundRect,0.062500X-0.350000X-0.062500X0.350000X-0.062500X0.350000X0.062500X-0.350000X0.062500X0*%
%ADD35RoundRect,0.062500X-0.062500X-0.350000X0.062500X-0.350000X0.062500X0.350000X-0.062500X0.350000X0*%
%ADD36R,2.700000X2.700000*%
%ADD37RoundRect,0.237500X0.237500X-0.250000X0.237500X0.250000X-0.237500X0.250000X-0.237500X-0.250000X0*%
%ADD38RoundRect,0.218750X-0.218750X-0.256250X0.218750X-0.256250X0.218750X0.256250X-0.218750X0.256250X0*%
%ADD39R,0.900000X1.000000*%
%ADD40RoundRect,0.087500X0.225000X0.087500X-0.225000X0.087500X-0.225000X-0.087500X0.225000X-0.087500X0*%
%ADD41RoundRect,0.087500X0.087500X0.225000X-0.087500X0.225000X-0.087500X-0.225000X0.087500X-0.225000X0*%
%ADD42RoundRect,0.100000X0.100000X-0.675000X0.100000X0.675000X-0.100000X0.675000X-0.100000X-0.675000X0*%
%ADD43R,3.000000X3.000000*%
%ADD44RoundRect,0.150000X0.512500X0.150000X-0.512500X0.150000X-0.512500X-0.150000X0.512500X-0.150000X0*%
%ADD45FreePoly0,90.000000*%
%ADD46FreePoly1,90.000000*%
%ADD47RoundRect,0.075000X-0.700000X-0.075000X0.700000X-0.075000X0.700000X0.075000X-0.700000X0.075000X0*%
%ADD48RoundRect,0.075000X-0.075000X-0.700000X0.075000X-0.700000X0.075000X0.700000X-0.075000X0.700000X0*%
%ADD49RoundRect,0.250000X-0.262500X-0.450000X0.262500X-0.450000X0.262500X0.450000X-0.262500X0.450000X0*%
%ADD50FreePoly0,0.000000*%
%ADD51FreePoly1,0.000000*%
%ADD52RoundRect,0.150000X-0.150000X0.587500X-0.150000X-0.587500X0.150000X-0.587500X0.150000X0.587500X0*%
%ADD53RoundRect,0.250000X0.750000X-0.600000X0.750000X0.600000X-0.750000X0.600000X-0.750000X-0.600000X0*%
%ADD54O,2.000000X1.700000*%
%ADD55RoundRect,0.150000X-0.512500X-0.150000X0.512500X-0.150000X0.512500X0.150000X-0.512500X0.150000X0*%
%ADD56RoundRect,0.250000X-0.600000X-0.725000X0.600000X-0.725000X0.600000X0.725000X-0.600000X0.725000X0*%
%ADD57RoundRect,0.250000X0.262500X0.450000X-0.262500X0.450000X-0.262500X-0.450000X0.262500X-0.450000X0*%
%ADD58R,0.740000X2.400000*%
%ADD59RoundRect,0.250000X0.400000X0.250000X-0.400000X0.250000X-0.400000X-0.250000X0.400000X-0.250000X0*%
%ADD60C,0.265000*%
%ADD61RoundRect,0.100000X-0.155000X-0.100000X0.155000X-0.100000X0.155000X0.100000X-0.155000X0.100000X0*%
%ADD62RoundRect,0.135000X-0.185000X0.135000X-0.185000X-0.135000X0.185000X-0.135000X0.185000X0.135000X0*%
%ADD63RoundRect,0.200000X-0.550000X-0.200000X0.550000X-0.200000X0.550000X0.200000X-0.550000X0.200000X0*%
%ADD64RoundRect,0.087500X0.425000X0.087500X-0.425000X0.087500X-0.425000X-0.087500X0.425000X-0.087500X0*%
%ADD65RoundRect,0.250000X-0.362500X-1.425000X0.362500X-1.425000X0.362500X1.425000X-0.362500X1.425000X0*%
G04 APERTURE END LIST*
%TO.C,JP301*%
G36*
X183775000Y-135250000D02*
G01*
X186225000Y-135250000D01*
X186225000Y-136750000D01*
X183775000Y-136750000D01*
X183775000Y-135250000D01*
G37*
%TO.C,JP302*%
G36*
X176160000Y-121704381D02*
G01*
X177660000Y-121704381D01*
X177660000Y-124154381D01*
X176160000Y-124154381D01*
X176160000Y-121704381D01*
G37*
%TO.C,JP303*%
G36*
X166450000Y-117050000D02*
G01*
X168900000Y-117050000D01*
X168900000Y-118550000D01*
X166450000Y-118550000D01*
X166450000Y-117050000D01*
G37*
%TD*%
D10*
%TO.C,L301*%
X173410000Y-121390000D03*
X174380000Y-121390000D03*
%TD*%
D11*
%TO.C,D201*%
X196100000Y-117850000D03*
X194525000Y-117850000D03*
%TD*%
D12*
%TO.C,TP304*%
X177100000Y-144550000D03*
%TD*%
D13*
%TO.C,C403*%
X146390000Y-125170000D03*
X146390000Y-124210000D03*
%TD*%
D14*
%TO.C,R206*%
X129275000Y-86450000D03*
X127450000Y-86450000D03*
%TD*%
D13*
%TO.C,C309*%
X173510000Y-124389381D03*
X173510000Y-123429381D03*
%TD*%
%TO.C,C502*%
X108750000Y-107130000D03*
X108750000Y-106170000D03*
%TD*%
D15*
%TO.C,J507*%
X182000000Y-80350000D03*
D16*
X179500000Y-80350000D03*
X177000000Y-80350000D03*
%TD*%
D17*
%TO.C,R406*%
X149190000Y-133100000D03*
X150210000Y-133100000D03*
%TD*%
D18*
%TO.C,C208*%
X138480000Y-95500000D03*
X137520000Y-95500000D03*
%TD*%
D19*
%TO.C,C406*%
X144200000Y-117500000D03*
X152600000Y-117500000D03*
%TD*%
D20*
%TO.C,J511*%
X106000000Y-107200000D03*
D21*
X106000000Y-109700000D03*
X106000000Y-112200000D03*
%TD*%
D13*
%TO.C,C301*%
X187700000Y-107810000D03*
X187700000Y-106850000D03*
%TD*%
D22*
%TO.C,C207*%
X147250000Y-109040000D03*
X147250000Y-110000000D03*
%TD*%
D23*
%TO.C,H101*%
X110000000Y-80000000D03*
%TD*%
D22*
%TO.C,C210*%
X146250000Y-109020000D03*
X146250000Y-109980000D03*
%TD*%
D15*
%TO.C,J504*%
X148700000Y-80340000D03*
D16*
X146200000Y-80340000D03*
X143700000Y-80340000D03*
X141200000Y-80340000D03*
X138700000Y-80340000D03*
%TD*%
D24*
%TO.C,R314*%
X174610000Y-131100000D03*
X173590000Y-131100000D03*
%TD*%
D12*
%TO.C,TP305*%
X170100000Y-144450000D03*
%TD*%
D25*
%TO.C,JP301*%
X185725000Y-136000000D03*
D26*
X184275000Y-136000000D03*
%TD*%
D12*
%TO.C,TP301*%
X184300000Y-144500000D03*
%TD*%
D27*
%TO.C,C402*%
X141370000Y-58200000D03*
X142330000Y-58200000D03*
%TD*%
D28*
%TO.C,J301*%
X193595000Y-113070000D03*
X193595000Y-107290000D03*
D29*
X192520000Y-113380000D03*
X192520000Y-112580000D03*
D30*
X192520000Y-111430000D03*
X192520000Y-110430000D03*
X192520000Y-109930000D03*
X192520000Y-108930000D03*
D29*
X192520000Y-107780000D03*
X192520000Y-106980000D03*
X192520000Y-106980000D03*
X192520000Y-107780000D03*
D30*
X192520000Y-108430000D03*
X192520000Y-109430000D03*
X192520000Y-110930000D03*
X192520000Y-111930000D03*
D29*
X192520000Y-112580000D03*
X192520000Y-113380000D03*
D31*
X193095000Y-114500000D03*
D32*
X197275000Y-114500000D03*
D31*
X193095000Y-105860000D03*
D32*
X197275000Y-105860000D03*
%TD*%
D22*
%TO.C,C311*%
X190585000Y-126540000D03*
X190585000Y-127500000D03*
%TD*%
D33*
%TO.C,R317*%
X165085000Y-127314381D03*
X165085000Y-126294381D03*
%TD*%
D34*
%TO.C,U302*%
X166785000Y-123229381D03*
X166785000Y-123729381D03*
X166785000Y-124229381D03*
X166785000Y-124729381D03*
X166785000Y-125229381D03*
X166785000Y-125729381D03*
D35*
X167497500Y-126441881D03*
X167997500Y-126441881D03*
X168497500Y-126441881D03*
X168997500Y-126441881D03*
X169497500Y-126441881D03*
X169997500Y-126441881D03*
D34*
X170710000Y-125729381D03*
X170710000Y-125229381D03*
X170710000Y-124729381D03*
X170710000Y-124229381D03*
X170710000Y-123729381D03*
X170710000Y-123229381D03*
D35*
X169997500Y-122516881D03*
X169497500Y-122516881D03*
X168997500Y-122516881D03*
X168497500Y-122516881D03*
X167997500Y-122516881D03*
X167497500Y-122516881D03*
D36*
X168747500Y-124479381D03*
%TD*%
D13*
%TO.C,C310*%
X167650000Y-120610000D03*
X167650000Y-119650000D03*
%TD*%
D37*
%TO.C,R101*%
X174110000Y-128941881D03*
X174110000Y-127116881D03*
%TD*%
D17*
%TO.C,R203*%
X192930000Y-103500000D03*
X193950000Y-103500000D03*
%TD*%
D27*
%TO.C,C312*%
X175460000Y-120729381D03*
X176420000Y-120729381D03*
%TD*%
D18*
%TO.C,C505*%
X147960000Y-83000000D03*
X147000000Y-83000000D03*
%TD*%
D38*
%TO.C,D303*%
X169875000Y-114100000D03*
X171450000Y-114100000D03*
%TD*%
D11*
%TO.C,D202*%
X193950000Y-101950000D03*
X192375000Y-101950000D03*
%TD*%
D24*
%TO.C,R401*%
X152360000Y-57200000D03*
X151340000Y-57200000D03*
%TD*%
D39*
%TO.C,SW101*%
X188060000Y-129929381D03*
X183960000Y-129929381D03*
X188060000Y-128329381D03*
X183960000Y-128329381D03*
%TD*%
D33*
%TO.C,R308*%
X169010000Y-129039381D03*
X169010000Y-128019381D03*
%TD*%
D15*
%TO.C,J510*%
X131800000Y-80300000D03*
D16*
X129300000Y-80300000D03*
X126800000Y-80300000D03*
X124300000Y-80300000D03*
X121800000Y-80300000D03*
X119300000Y-80300000D03*
%TD*%
D22*
%TO.C,C314*%
X179985000Y-117029381D03*
X179985000Y-117989381D03*
%TD*%
D17*
%TO.C,R316*%
X166990000Y-128029381D03*
X168010000Y-128029381D03*
%TD*%
D23*
%TO.C,H103*%
X110000000Y-140000000D03*
%TD*%
D40*
%TO.C,U401*%
X148012500Y-57950000D03*
X148012500Y-57450000D03*
X148012500Y-56950000D03*
X148012500Y-56450000D03*
D41*
X147350000Y-56287500D03*
X146850000Y-56287500D03*
X146350000Y-56287500D03*
D40*
X145687500Y-56450000D03*
X145687500Y-56950000D03*
X145687500Y-57450000D03*
X145687500Y-57950000D03*
D41*
X146350000Y-58112500D03*
X146850000Y-58112500D03*
X147350000Y-58112500D03*
%TD*%
D12*
%TO.C,TP303*%
X173650000Y-144500000D03*
%TD*%
D27*
%TO.C,C508*%
X108640000Y-87800000D03*
X109600000Y-87800000D03*
%TD*%
D17*
%TO.C,R202*%
X194790000Y-119350000D03*
X195810000Y-119350000D03*
%TD*%
D13*
%TO.C,C302*%
X191000000Y-121880000D03*
X191000000Y-120920000D03*
%TD*%
D24*
%TO.C,R408*%
X152360000Y-58200000D03*
X151340000Y-58200000D03*
%TD*%
D42*
%TO.C,U402*%
X143020000Y-133075000D03*
X143670000Y-133075000D03*
X144320000Y-133075000D03*
X144970000Y-133075000D03*
X145620000Y-133075000D03*
X146270000Y-133075000D03*
X146920000Y-133075000D03*
X147570000Y-133075000D03*
X147570000Y-127325000D03*
X146920000Y-127325000D03*
X146270000Y-127325000D03*
X145620000Y-127325000D03*
X144970000Y-127325000D03*
X144320000Y-127325000D03*
X143670000Y-127325000D03*
X143020000Y-127325000D03*
D43*
X145295000Y-130200000D03*
%TD*%
D22*
%TO.C,C405*%
X145340000Y-124210000D03*
X145340000Y-125170000D03*
%TD*%
D24*
%TO.C,R405*%
X141110000Y-133200000D03*
X140090000Y-133200000D03*
%TD*%
D44*
%TO.C,U301*%
X187275000Y-111400000D03*
X187275000Y-110450000D03*
X187275000Y-109500000D03*
X185000000Y-109500000D03*
X185000000Y-110450000D03*
X185000000Y-111400000D03*
%TD*%
D45*
%TO.C,JP302*%
X176910000Y-123654381D03*
D46*
X176910000Y-122204381D03*
%TD*%
D47*
%TO.C,U201*%
X139325000Y-97250000D03*
X139325000Y-97750000D03*
X139325000Y-98250000D03*
X139325000Y-98750000D03*
X139325000Y-99250000D03*
X139325000Y-99750000D03*
X139325000Y-100250000D03*
X139325000Y-100750000D03*
X139325000Y-101250000D03*
X139325000Y-101750000D03*
X139325000Y-102250000D03*
X139325000Y-102750000D03*
X139325000Y-103250000D03*
X139325000Y-103750000D03*
X139325000Y-104250000D03*
X139325000Y-104750000D03*
D48*
X141250000Y-106675000D03*
X141750000Y-106675000D03*
X142250000Y-106675000D03*
X142750000Y-106675000D03*
X143250000Y-106675000D03*
X143750000Y-106675000D03*
X144250000Y-106675000D03*
X144750000Y-106675000D03*
X145250000Y-106675000D03*
X145750000Y-106675000D03*
X146250000Y-106675000D03*
X146750000Y-106675000D03*
X147250000Y-106675000D03*
X147750000Y-106675000D03*
X148250000Y-106675000D03*
X148750000Y-106675000D03*
D47*
X150675000Y-104750000D03*
X150675000Y-104250000D03*
X150675000Y-103750000D03*
X150675000Y-103250000D03*
X150675000Y-102750000D03*
X150675000Y-102250000D03*
X150675000Y-101750000D03*
X150675000Y-101250000D03*
X150675000Y-100750000D03*
X150675000Y-100250000D03*
X150675000Y-99750000D03*
X150675000Y-99250000D03*
X150675000Y-98750000D03*
X150675000Y-98250000D03*
X150675000Y-97750000D03*
X150675000Y-97250000D03*
D48*
X148750000Y-95325000D03*
X148250000Y-95325000D03*
X147750000Y-95325000D03*
X147250000Y-95325000D03*
X146750000Y-95325000D03*
X146250000Y-95325000D03*
X145750000Y-95325000D03*
X145250000Y-95325000D03*
X144750000Y-95325000D03*
X144250000Y-95325000D03*
X143750000Y-95325000D03*
X143250000Y-95325000D03*
X142750000Y-95325000D03*
X142250000Y-95325000D03*
X141750000Y-95325000D03*
X141250000Y-95325000D03*
%TD*%
D17*
%TO.C,R307*%
X182650000Y-120579381D03*
X183670000Y-120579381D03*
%TD*%
D18*
%TO.C,C201*%
X137680000Y-100800000D03*
X136720000Y-100800000D03*
%TD*%
D20*
%TO.C,J502*%
X106000000Y-118450000D03*
D21*
X106000000Y-120950000D03*
X106000000Y-123450000D03*
%TD*%
D24*
%TO.C,R301*%
X179310000Y-130000000D03*
X178290000Y-130000000D03*
%TD*%
D23*
%TO.C,H102*%
X190000000Y-80000000D03*
%TD*%
D49*
%TO.C,R407*%
X139475000Y-130300000D03*
X141300000Y-130300000D03*
%TD*%
D50*
%TO.C,JP303*%
X166950000Y-117800000D03*
D51*
X168400000Y-117800000D03*
%TD*%
D27*
%TO.C,C506*%
X144220000Y-140300000D03*
X145180000Y-140300000D03*
%TD*%
D52*
%TO.C,Q302*%
X179700000Y-134100000D03*
X177800000Y-134100000D03*
X178750000Y-135975000D03*
%TD*%
D24*
%TO.C,R303*%
X190520000Y-111500000D03*
X189500000Y-111500000D03*
%TD*%
D23*
%TO.C,H501_OUT401*%
X161850000Y-60200000D03*
%TD*%
D24*
%TO.C,R312*%
X167460000Y-114975000D03*
X166440000Y-114975000D03*
%TD*%
D53*
%TO.C,J302*%
X195200000Y-125750000D03*
D54*
X195200000Y-123250000D03*
%TD*%
D23*
%TO.C,H104*%
X190000000Y-140000000D03*
%TD*%
D55*
%TO.C,U305*%
X175660000Y-117029381D03*
X175660000Y-117979381D03*
X175660000Y-118929381D03*
X177935000Y-118929381D03*
X177935000Y-117029381D03*
%TD*%
D56*
%TO.C,J511_OUT401*%
X141350000Y-64200000D03*
D16*
X143850000Y-64200000D03*
X146350000Y-64200000D03*
X148850000Y-64200000D03*
X151350000Y-64200000D03*
X153850000Y-64200000D03*
%TD*%
D39*
%TO.C,SW201*%
X131350000Y-103000000D03*
X135450000Y-103000000D03*
X131350000Y-104600000D03*
X135450000Y-104600000D03*
%TD*%
D27*
%TO.C,C401*%
X141370000Y-57200000D03*
X142330000Y-57200000D03*
%TD*%
D33*
%TO.C,R207*%
X161150000Y-108810000D03*
X161150000Y-107790000D03*
%TD*%
D38*
%TO.C,D302*%
X169875000Y-115725000D03*
X171450000Y-115725000D03*
%TD*%
D57*
%TO.C,R404*%
X150912500Y-130300000D03*
X149087500Y-130300000D03*
%TD*%
D15*
%TO.C,J508*%
X169500000Y-80300000D03*
D16*
X167000000Y-80300000D03*
X164500000Y-80300000D03*
X162000000Y-80300000D03*
X159500000Y-80300000D03*
X157000000Y-80300000D03*
%TD*%
D58*
%TO.C,J201*%
X128750000Y-120400000D03*
X128750000Y-116500000D03*
X130020000Y-120400000D03*
X130020000Y-116500000D03*
X131290000Y-120400000D03*
X131290000Y-116500000D03*
X132560000Y-120400000D03*
X132560000Y-116500000D03*
X133830000Y-120400000D03*
X133830000Y-116500000D03*
X135100000Y-120400000D03*
X135100000Y-116500000D03*
X136370000Y-120400000D03*
X136370000Y-116500000D03*
%TD*%
D20*
%TO.C,J506*%
X106000000Y-129650000D03*
D21*
X106000000Y-132150000D03*
X106000000Y-134650000D03*
%TD*%
D59*
%TO.C,Y201*%
X135100000Y-98600000D03*
X132900000Y-98600000D03*
X132900000Y-100400000D03*
X135100000Y-100400000D03*
%TD*%
D22*
%TO.C,C509*%
X134100000Y-82840000D03*
X134100000Y-83800000D03*
%TD*%
D24*
%TO.C,R402*%
X152360000Y-56200000D03*
X151340000Y-56200000D03*
%TD*%
D20*
%TO.C,J509*%
X106000000Y-87800000D03*
D21*
X106000000Y-90300000D03*
X106000000Y-92800000D03*
X106000000Y-95300000D03*
X106000000Y-97800000D03*
X106000000Y-100300000D03*
%TD*%
D27*
%TO.C,C507*%
X122840000Y-140300000D03*
X123800000Y-140300000D03*
%TD*%
D13*
%TO.C,C307*%
X172210000Y-124409381D03*
X172210000Y-123449381D03*
%TD*%
D60*
%TO.C,U303*%
X185610000Y-120829381D03*
X186110000Y-120829381D03*
X186610000Y-120829381D03*
X185610000Y-121329381D03*
X186110000Y-121329381D03*
X186610000Y-121329381D03*
X185610000Y-121829381D03*
X186110000Y-121829381D03*
X186610000Y-121829381D03*
%TD*%
D44*
%TO.C,U501*%
X119450000Y-109600000D03*
X119450000Y-108650000D03*
X119450000Y-107700000D03*
X117175000Y-107700000D03*
X117175000Y-109600000D03*
%TD*%
D22*
%TO.C,C209*%
X138200000Y-105700000D03*
X138200000Y-106660000D03*
%TD*%
D61*
%TO.C,Q303*%
X170700000Y-131029381D03*
X170700000Y-130029381D03*
X169410000Y-130529381D03*
%TD*%
D62*
%TO.C,R304*%
X181400000Y-132480000D03*
X181400000Y-133500000D03*
%TD*%
D56*
%TO.C,J501*%
X140100000Y-143000000D03*
D16*
X142600000Y-143000000D03*
X145100000Y-143000000D03*
X147600000Y-143000000D03*
X150100000Y-143000000D03*
X152600000Y-143000000D03*
%TD*%
D22*
%TO.C,C306*%
X176300000Y-125229381D03*
X176300000Y-126189381D03*
%TD*%
D17*
%TO.C,R403*%
X141340000Y-59200000D03*
X142360000Y-59200000D03*
%TD*%
D22*
%TO.C,C204*%
X150000000Y-107540000D03*
X150000000Y-108500000D03*
%TD*%
D13*
%TO.C,C202*%
X131200000Y-98980000D03*
X131200000Y-98020000D03*
%TD*%
D22*
%TO.C,C510*%
X169600000Y-83040000D03*
X169600000Y-84000000D03*
%TD*%
D63*
%TO.C,D502*%
X110720000Y-107670000D03*
X110720000Y-109450000D03*
X114000000Y-109450000D03*
X114000000Y-107670000D03*
%TD*%
D12*
%TO.C,TP302*%
X180500000Y-144550000D03*
%TD*%
D18*
%TO.C,C305*%
X170680000Y-119950000D03*
X169720000Y-119950000D03*
%TD*%
D27*
%TO.C,C206*%
X151120000Y-96000000D03*
X152080000Y-96000000D03*
%TD*%
D17*
%TO.C,R305*%
X166430000Y-116075000D03*
X167450000Y-116075000D03*
%TD*%
D13*
%TO.C,C503*%
X115050000Y-112500000D03*
X115050000Y-111540000D03*
%TD*%
D17*
%TO.C,R309*%
X170010000Y-128929381D03*
X171030000Y-128929381D03*
%TD*%
D22*
%TO.C,C504*%
X108900000Y-133240000D03*
X108900000Y-134200000D03*
%TD*%
D23*
%TO.C,H502_OUT401*%
X133850000Y-60200000D03*
%TD*%
D64*
%TO.C,Q301*%
X179575000Y-132400000D03*
X179575000Y-131750000D03*
X179575000Y-131100000D03*
X177900000Y-131100000D03*
X177900000Y-131750000D03*
X177900000Y-132400000D03*
%TD*%
D22*
%TO.C,C308*%
X177400000Y-125220000D03*
X177400000Y-126180000D03*
%TD*%
D24*
%TO.C,R313*%
X167450000Y-113875000D03*
X166430000Y-113875000D03*
%TD*%
D37*
%TO.C,R205*%
X132150000Y-87062500D03*
X132150000Y-85237500D03*
%TD*%
D22*
%TO.C,C404*%
X144300000Y-124210000D03*
X144300000Y-125170000D03*
%TD*%
D62*
%TO.C,R311*%
X183635000Y-121544381D03*
X183635000Y-122564381D03*
%TD*%
D22*
%TO.C,C501*%
X108950000Y-121970000D03*
X108950000Y-122930000D03*
%TD*%
D24*
%TO.C,R302*%
X190520000Y-108500000D03*
X189500000Y-108500000D03*
%TD*%
D22*
%TO.C,C303*%
X189285000Y-121474381D03*
X189285000Y-122434381D03*
%TD*%
D56*
%TO.C,J503*%
X118160000Y-143040000D03*
D16*
X120660000Y-143040000D03*
X123160000Y-143040000D03*
X125660000Y-143040000D03*
X128160000Y-143040000D03*
X130660000Y-143040000D03*
%TD*%
D22*
%TO.C,C203*%
X131200000Y-100020000D03*
X131200000Y-100980000D03*
%TD*%
D27*
%TO.C,C304*%
X169230000Y-121229381D03*
X170190000Y-121229381D03*
%TD*%
D65*
%TO.C,R306*%
X183147500Y-125329381D03*
X189072500Y-125329381D03*
%TD*%
D18*
%TO.C,C205*%
X139660000Y-93800000D03*
X138700000Y-93800000D03*
%TD*%
D17*
%TO.C,R208*%
X163490000Y-124400000D03*
X164510000Y-124400000D03*
%TD*%
D62*
%TO.C,R315*%
X172300000Y-131080000D03*
X172300000Y-132100000D03*
%TD*%
D24*
%TO.C,R310*%
X171020000Y-127829381D03*
X170000000Y-127829381D03*
%TD*%
M02*
