%TF.GenerationSoftware,KiCad,Pcbnew,10.0.6*%
%TF.CreationDate,2026-10-07T11:24:25+02:00*%
%TF.ProjectId,1ST_Schematix,3153545f-5363-4686-956d-617469782e6b,rev?*%
%TF.SameCoordinates,Original*%
%TF.FileFunction,Soldermask,Bot*%
%TF.FilePolarity,Negative*%
%FSLAX46Y46*%
G04 Gerber Fmt 4.6, Leading zero omitted, Abs format (unit mm)*
G04 Created by KiCad (PCBNEW 10.0.6) date 2026-10-07 11:24:25*
%MOMM*%
%LPD*%
G01*
G04 APERTURE LIST*
G04 Aperture macros list*
%AMRoundRect*
0 Rectangle with rounded corners*
0 $1 Rounding radius*
0 $2 $3 $4 $5 $6 $7 $8 $9 X,Y pos of 4 corners*
0 Add a 4 corners polygon primitive as box body*
4,1,4,$2,$3,$4,$5,$6,$7,$8,$9,$2,$3,0*
0 Add four circle primitives for the rounded corners*
1,1,$1+$1,$2,$3*
1,1,$1+$1,$4,$5*
1,1,$1+$1,$6,$7*
1,1,$1+$1,$8,$9*
0 Add four rect primitives between the rounded corners*
20,1,$1+$1,$2,$3,$4,$5,0*
20,1,$1+$1,$4,$5,$6,$7,0*
20,1,$1+$1,$6,$7,$8,$9,0*
20,1,$1+$1,$8,$9,$2,$3,0*%
G04 Aperture macros list end*
%ADD10RoundRect,0.250000X0.600000X0.725000X-0.600000X0.725000X-0.600000X-0.725000X0.600000X-0.725000X0*%
%ADD11O,1.700000X1.950000*%
%ADD12RoundRect,0.250000X-0.725000X0.600000X-0.725000X-0.600000X0.725000X-0.600000X0.725000X0.600000X0*%
%ADD13O,1.950000X1.700000*%
%ADD14C,5.500000*%
%ADD15C,0.650000*%
%ADD16O,2.100000X1.000000*%
%ADD17O,1.800000X1.000000*%
%ADD18RoundRect,0.250000X0.750000X-0.600000X0.750000X0.600000X-0.750000X0.600000X-0.750000X-0.600000X0*%
%ADD19O,2.000000X1.700000*%
%ADD20RoundRect,0.250000X-0.600000X-0.725000X0.600000X-0.725000X0.600000X0.725000X-0.600000X0.725000X0*%
G04 APERTURE END LIST*
D10*
%TO.C,J507*%
X182000000Y-80350000D03*
D11*
X179500000Y-80350000D03*
X177000000Y-80350000D03*
%TD*%
D12*
%TO.C,J511*%
X106000000Y-107200000D03*
D13*
X106000000Y-109700000D03*
X106000000Y-112200000D03*
%TD*%
D14*
%TO.C,H101*%
X110000000Y-80000000D03*
%TD*%
D10*
%TO.C,J504*%
X148700000Y-80340000D03*
D11*
X146200000Y-80340000D03*
X143700000Y-80340000D03*
X141200000Y-80340000D03*
X138700000Y-80340000D03*
%TD*%
D15*
%TO.C,J301*%
X193595000Y-113070000D03*
X193595000Y-107290000D03*
D16*
X193095000Y-114500000D03*
D17*
X197275000Y-114500000D03*
D16*
X193095000Y-105860000D03*
D17*
X197275000Y-105860000D03*
%TD*%
D10*
%TO.C,J510*%
X131800000Y-80300000D03*
D11*
X129300000Y-80300000D03*
X126800000Y-80300000D03*
X124300000Y-80300000D03*
X121800000Y-80300000D03*
X119300000Y-80300000D03*
%TD*%
D14*
%TO.C,H103*%
X110000000Y-140000000D03*
%TD*%
D12*
%TO.C,J502*%
X106000000Y-118450000D03*
D13*
X106000000Y-120950000D03*
X106000000Y-123450000D03*
%TD*%
D14*
%TO.C,H102*%
X190000000Y-80000000D03*
%TD*%
%TO.C,H501_OUT401*%
X161850000Y-60200000D03*
%TD*%
D18*
%TO.C,J302*%
X195200000Y-125750000D03*
D19*
X195200000Y-123250000D03*
%TD*%
D14*
%TO.C,H104*%
X190000000Y-140000000D03*
%TD*%
D20*
%TO.C,J511_OUT401*%
X141350000Y-64200000D03*
D11*
X143850000Y-64200000D03*
X146350000Y-64200000D03*
X148850000Y-64200000D03*
X151350000Y-64200000D03*
X153850000Y-64200000D03*
%TD*%
D10*
%TO.C,J508*%
X169500000Y-80300000D03*
D11*
X167000000Y-80300000D03*
X164500000Y-80300000D03*
X162000000Y-80300000D03*
X159500000Y-80300000D03*
X157000000Y-80300000D03*
%TD*%
D12*
%TO.C,J506*%
X106000000Y-129650000D03*
D13*
X106000000Y-132150000D03*
X106000000Y-134650000D03*
%TD*%
D12*
%TO.C,J509*%
X106000000Y-87800000D03*
D13*
X106000000Y-90300000D03*
X106000000Y-92800000D03*
X106000000Y-95300000D03*
X106000000Y-97800000D03*
X106000000Y-100300000D03*
%TD*%
D20*
%TO.C,J501*%
X140100000Y-143000000D03*
D11*
X142600000Y-143000000D03*
X145100000Y-143000000D03*
X147600000Y-143000000D03*
X150100000Y-143000000D03*
X152600000Y-143000000D03*
%TD*%
D14*
%TO.C,H502_OUT401*%
X133850000Y-60200000D03*
%TD*%
D20*
%TO.C,J503*%
X118160000Y-143040000D03*
D11*
X120660000Y-143040000D03*
X123160000Y-143040000D03*
X125660000Y-143040000D03*
X128160000Y-143040000D03*
X130660000Y-143040000D03*
%TD*%
M02*
