%TF.GenerationSoftware,KiCad,Pcbnew,10.0.6*%
%TF.CreationDate,2026-10-08T09:16:55+02:00*%
%TF.ProjectId,1ST_Schematix,3153545f-5363-4686-956d-617469782e6b,rev?*%
%TF.SameCoordinates,Original*%
%TF.FileFunction,Soldermask,Top*%
%TF.FilePolarity,Negative*%
%FSLAX46Y46*%
G04 Gerber Fmt 4.6, Leading zero omitted, Abs format (unit mm)*
G04 Created by KiCad (PCBNEW 10.0.6) date 2026-10-08 09:16:55*
%MOMM*%
%LPD*%
G01*
G04 APERTURE LIST*
G04 Aperture macros list*
%AMRoundRect*
0 Rectangle with rounded corners*
0 $1 Rounding radius*
0 $2 $3 $4 $5 $6 $7 $8 $9 X,Y pos of 4 corners*
0 Add a 4 corners polygon primitive as box body*
4,1,4,$2,$3,$4,$5,$6,$7,$8,$9,$2,$3,0*
0 Add four circle primitives for the rounded corners*
1,1,$1+$1,$2,$3*
1,1,$1+$1,$4,$5*
1,1,$1+$1,$6,$7*
1,1,$1+$1,$8,$9*
0 Add four rect primitives between the rounded corners*
20,1,$1+$1,$2,$3,$4,$5,0*
20,1,$1+$1,$4,$5,$6,$7,0*
20,1,$1+$1,$6,$7,$8,$9,0*
20,1,$1+$1,$8,$9,$2,$3,0*%
%AMFreePoly0*
4,1,6,0.500000,-0.750000,-0.650000,-0.750000,-0.150000,0.000000,-0.650000,0.750000,0.500000,0.750000,0.500000,-0.750000,0.500000,-0.750000,$1*%
%AMFreePoly1*
4,1,6,1.000000,0.000000,0.500000,-0.750000,-0.500000,-0.750000,-0.500000,0.750000,0.500000,0.750000,1.000000,0.000000,1.000000,0.000000,$1*%
G04 Aperture macros list end*
%ADD10FreePoly0,0.000000*%
%ADD11FreePoly1,0.000000*%
%ADD12RoundRect,0.250000X-0.325000X-0.650000X0.325000X-0.650000X0.325000X0.650000X-0.325000X0.650000X0*%
%ADD13RoundRect,0.225000X0.250000X-0.225000X0.250000X0.225000X-0.250000X0.225000X-0.250000X-0.225000X0*%
%ADD14RoundRect,0.140000X0.140000X0.170000X-0.140000X0.170000X-0.140000X-0.170000X0.140000X-0.170000X0*%
%ADD15RoundRect,0.140000X0.170000X-0.140000X0.170000X0.140000X-0.170000X0.140000X-0.170000X-0.140000X0*%
%ADD16RoundRect,0.140000X-0.170000X0.140000X-0.170000X-0.140000X0.170000X-0.140000X0.170000X0.140000X0*%
%ADD17RoundRect,0.140000X-0.140000X-0.170000X0.140000X-0.170000X0.140000X0.170000X-0.140000X0.170000X0*%
%ADD18RoundRect,0.250000X-1.950000X-1.000000X1.950000X-1.000000X1.950000X1.000000X-1.950000X1.000000X0*%
%ADD19RoundRect,0.218750X0.218750X0.256250X-0.218750X0.256250X-0.218750X-0.256250X0.218750X-0.256250X0*%
%ADD20RoundRect,0.218750X-0.218750X-0.256250X0.218750X-0.256250X0.218750X0.256250X-0.218750X0.256250X0*%
%ADD21RoundRect,0.200000X-0.550000X-0.200000X0.550000X-0.200000X0.550000X0.200000X-0.550000X0.200000X0*%
%ADD22R,0.740000X2.400000*%
%ADD23O,1.800000X1.000000*%
%ADD24O,2.100000X1.000000*%
%ADD25RoundRect,0.150000X0.425000X-0.150000X0.425000X0.150000X-0.425000X0.150000X-0.425000X-0.150000X0*%
%ADD26RoundRect,0.075000X0.500000X-0.075000X0.500000X0.075000X-0.500000X0.075000X-0.500000X-0.075000X0*%
%ADD27C,0.650000*%
%ADD28O,2.000000X1.700000*%
%ADD29RoundRect,0.250000X0.750000X-0.600000X0.750000X0.600000X-0.750000X0.600000X-0.750000X-0.600000X0*%
%ADD30O,1.700000X1.950000*%
%ADD31RoundRect,0.250000X-0.600000X-0.725000X0.600000X-0.725000X0.600000X0.725000X-0.600000X0.725000X0*%
%ADD32RoundRect,0.250000X0.600000X0.725000X-0.600000X0.725000X-0.600000X-0.725000X0.600000X-0.725000X0*%
%ADD33O,1.950000X1.700000*%
%ADD34RoundRect,0.250000X-0.725000X0.600000X-0.725000X-0.600000X0.725000X-0.600000X0.725000X0.600000X0*%
%ADD35RoundRect,0.147500X-0.147500X-0.172500X0.147500X-0.172500X0.147500X0.172500X-0.147500X0.172500X0*%
%ADD36RoundRect,0.087500X0.425000X0.087500X-0.425000X0.087500X-0.425000X-0.087500X0.425000X-0.087500X0*%
%ADD37RoundRect,0.150000X-0.150000X0.587500X-0.150000X-0.587500X0.150000X-0.587500X0.150000X0.587500X0*%
%ADD38RoundRect,0.100000X-0.155000X-0.100000X0.155000X-0.100000X0.155000X0.100000X-0.155000X0.100000X0*%
%ADD39RoundRect,0.237500X0.237500X-0.250000X0.237500X0.250000X-0.237500X0.250000X-0.237500X-0.250000X0*%
%ADD40RoundRect,0.135000X-0.135000X-0.185000X0.135000X-0.185000X0.135000X0.185000X-0.135000X0.185000X0*%
%ADD41RoundRect,0.237500X0.250000X0.237500X-0.250000X0.237500X-0.250000X-0.237500X0.250000X-0.237500X0*%
%ADD42RoundRect,0.135000X0.185000X-0.135000X0.185000X0.135000X-0.185000X0.135000X-0.185000X-0.135000X0*%
%ADD43RoundRect,0.135000X0.135000X0.185000X-0.135000X0.185000X-0.135000X-0.185000X0.135000X-0.185000X0*%
%ADD44RoundRect,0.135000X-0.185000X0.135000X-0.185000X-0.135000X0.185000X-0.135000X0.185000X0.135000X0*%
%ADD45RoundRect,0.250000X-0.362500X-1.425000X0.362500X-1.425000X0.362500X1.425000X-0.362500X1.425000X0*%
%ADD46RoundRect,0.250000X0.262500X0.450000X-0.262500X0.450000X-0.262500X-0.450000X0.262500X-0.450000X0*%
%ADD47RoundRect,0.250000X-0.262500X-0.450000X0.262500X-0.450000X0.262500X0.450000X-0.262500X0.450000X0*%
%ADD48R,0.900000X1.000000*%
%ADD49C,2.000000*%
%ADD50RoundRect,0.075000X-0.075000X-0.700000X0.075000X-0.700000X0.075000X0.700000X-0.075000X0.700000X0*%
%ADD51RoundRect,0.075000X-0.700000X-0.075000X0.700000X-0.075000X0.700000X0.075000X-0.700000X0.075000X0*%
%ADD52RoundRect,0.150000X0.512500X0.150000X-0.512500X0.150000X-0.512500X-0.150000X0.512500X-0.150000X0*%
%ADD53R,2.700000X2.700000*%
%ADD54RoundRect,0.062500X-0.062500X-0.350000X0.062500X-0.350000X0.062500X0.350000X-0.062500X0.350000X0*%
%ADD55RoundRect,0.062500X-0.350000X-0.062500X0.350000X-0.062500X0.350000X0.062500X-0.350000X0.062500X0*%
%ADD56C,0.265000*%
%ADD57RoundRect,0.150000X-0.512500X-0.150000X0.512500X-0.150000X0.512500X0.150000X-0.512500X0.150000X0*%
%ADD58RoundRect,0.087500X0.087500X0.225000X-0.087500X0.225000X-0.087500X-0.225000X0.087500X-0.225000X0*%
%ADD59RoundRect,0.087500X0.225000X0.087500X-0.225000X0.087500X-0.225000X-0.087500X0.225000X-0.087500X0*%
%ADD60R,3.000000X3.000000*%
%ADD61RoundRect,0.100000X0.100000X-0.675000X0.100000X0.675000X-0.100000X0.675000X-0.100000X-0.675000X0*%
%ADD62RoundRect,0.250000X0.400000X0.250000X-0.400000X0.250000X-0.400000X-0.250000X0.400000X-0.250000X0*%
%ADD63C,5.500000*%
%ADD64FreePoly1,180.000000*%
%ADD65FreePoly0,180.000000*%
%ADD66FreePoly1,90.000000*%
%ADD67FreePoly0,90.000000*%
G04 APERTURE END LIST*
%TO.C,JP303*%
G36*
X166550000Y-117150000D02*
G01*
X169000000Y-117150000D01*
X169000000Y-118650000D01*
X166550000Y-118650000D01*
X166550000Y-117150000D01*
G37*
%TO.C,JP301*%
G36*
X183825000Y-135212500D02*
G01*
X186275000Y-135212500D01*
X186275000Y-136712500D01*
X183825000Y-136712500D01*
X183825000Y-135212500D01*
G37*
%TO.C,JP302*%
G36*
X176210000Y-121666881D02*
G01*
X177710000Y-121666881D01*
X177710000Y-124116881D01*
X176210000Y-124116881D01*
X176210000Y-121666881D01*
G37*
%TD*%
D10*
%TO.C,JP303*%
X168500000Y-117900000D03*
D11*
X167050000Y-117900000D03*
%TD*%
D12*
%TO.C,C310*%
X170750000Y-117900000D03*
X173700000Y-117900000D03*
%TD*%
D13*
%TO.C,C302*%
X191155000Y-122070000D03*
X191155000Y-120520000D03*
%TD*%
D14*
%TO.C,C201*%
X136770000Y-100762500D03*
X137730000Y-100762500D03*
%TD*%
D15*
%TO.C,C202*%
X131250000Y-97982500D03*
X131250000Y-98942500D03*
%TD*%
D16*
%TO.C,C203*%
X131250000Y-100942500D03*
X131250000Y-99982500D03*
%TD*%
%TO.C,C204*%
X150050000Y-108462500D03*
X150050000Y-107502500D03*
%TD*%
D14*
%TO.C,C205*%
X138750000Y-93762500D03*
X139710000Y-93762500D03*
%TD*%
D17*
%TO.C,C206*%
X152130000Y-95962500D03*
X151170000Y-95962500D03*
%TD*%
D16*
%TO.C,C207*%
X147300000Y-109962500D03*
X147300000Y-109002500D03*
%TD*%
D14*
%TO.C,C208*%
X137570000Y-95462500D03*
X138530000Y-95462500D03*
%TD*%
D16*
%TO.C,C209*%
X138250000Y-106622500D03*
X138250000Y-105662500D03*
%TD*%
%TO.C,C210*%
X146300000Y-109942500D03*
X146300000Y-108982500D03*
%TD*%
D15*
%TO.C,C301*%
X187750000Y-106812500D03*
X187750000Y-107772500D03*
%TD*%
D16*
%TO.C,C303*%
X189335000Y-122396881D03*
X189335000Y-121436881D03*
%TD*%
D17*
%TO.C,C304*%
X170240000Y-121191881D03*
X169280000Y-121191881D03*
%TD*%
D14*
%TO.C,C305*%
X172940000Y-119912500D03*
X173900000Y-119912500D03*
%TD*%
D16*
%TO.C,C306*%
X176350000Y-126151881D03*
X176350000Y-125191881D03*
%TD*%
D15*
%TO.C,C307*%
X172260000Y-123411881D03*
X172260000Y-124371881D03*
%TD*%
D16*
%TO.C,C308*%
X177450000Y-126142500D03*
X177450000Y-125182500D03*
%TD*%
D15*
%TO.C,C309*%
X173560000Y-123391881D03*
X173560000Y-124351881D03*
%TD*%
D16*
%TO.C,C311*%
X190635000Y-127462500D03*
X190635000Y-126502500D03*
%TD*%
D17*
%TO.C,C312*%
X176470000Y-120691881D03*
X175510000Y-120691881D03*
%TD*%
D16*
%TO.C,C314*%
X180035000Y-117951881D03*
X180035000Y-116991881D03*
%TD*%
D17*
%TO.C,C401*%
X142380000Y-57162500D03*
X141420000Y-57162500D03*
%TD*%
%TO.C,C402*%
X142380000Y-58162500D03*
X141420000Y-58162500D03*
%TD*%
D15*
%TO.C,C403*%
X146440000Y-124172500D03*
X146440000Y-125132500D03*
%TD*%
D16*
%TO.C,C404*%
X144350000Y-125132500D03*
X144350000Y-124172500D03*
%TD*%
%TO.C,C405*%
X145390000Y-125132500D03*
X145390000Y-124172500D03*
%TD*%
D18*
%TO.C,C406*%
X152650000Y-117462500D03*
X144250000Y-117462500D03*
%TD*%
D16*
%TO.C,C501*%
X109000000Y-122892500D03*
X109000000Y-121932500D03*
%TD*%
D15*
%TO.C,C502*%
X108800000Y-106132500D03*
X108800000Y-107092500D03*
%TD*%
%TO.C,C503*%
X115100000Y-111502500D03*
X115100000Y-112462500D03*
%TD*%
D16*
%TO.C,C504*%
X108950000Y-134162500D03*
X108950000Y-133202500D03*
%TD*%
D14*
%TO.C,C505*%
X147050000Y-82962500D03*
X148010000Y-82962500D03*
%TD*%
D17*
%TO.C,C506*%
X145230000Y-140262500D03*
X144270000Y-140262500D03*
%TD*%
%TO.C,C507*%
X123850000Y-140262500D03*
X122890000Y-140262500D03*
%TD*%
%TO.C,C508*%
X109650000Y-87762500D03*
X108690000Y-87762500D03*
%TD*%
D16*
%TO.C,C509*%
X134150000Y-83762500D03*
X134150000Y-82802500D03*
%TD*%
%TO.C,C510*%
X169650000Y-83962500D03*
X169650000Y-83002500D03*
%TD*%
D19*
%TO.C,D201*%
X194575000Y-117812500D03*
X196150000Y-117812500D03*
%TD*%
%TO.C,D202*%
X192425000Y-101912500D03*
X194000000Y-101912500D03*
%TD*%
D20*
%TO.C,D302*%
X171500000Y-115687500D03*
X169925000Y-115687500D03*
%TD*%
%TO.C,D303*%
X171500000Y-114062500D03*
X169925000Y-114062500D03*
%TD*%
D21*
%TO.C,D502*%
X114050000Y-107632500D03*
X114050000Y-109412500D03*
X110770000Y-109412500D03*
X110770000Y-107632500D03*
%TD*%
D22*
%TO.C,J201*%
X136420000Y-116462500D03*
X136420000Y-120362500D03*
X135150000Y-116462500D03*
X135150000Y-120362500D03*
X133880000Y-116462500D03*
X133880000Y-120362500D03*
X132610000Y-116462500D03*
X132610000Y-120362500D03*
X131340000Y-116462500D03*
X131340000Y-120362500D03*
X130070000Y-116462500D03*
X130070000Y-120362500D03*
X128800000Y-116462500D03*
X128800000Y-120362500D03*
%TD*%
D23*
%TO.C,J301*%
X197325000Y-105822500D03*
D24*
X193145000Y-105822500D03*
D23*
X197325000Y-114462500D03*
D24*
X193145000Y-114462500D03*
D25*
X192570000Y-113342500D03*
X192570000Y-112542500D03*
D26*
X192570000Y-111892500D03*
X192570000Y-110892500D03*
X192570000Y-109392500D03*
X192570000Y-108392500D03*
D25*
X192570000Y-107742500D03*
X192570000Y-106942500D03*
X192570000Y-106942500D03*
X192570000Y-107742500D03*
D26*
X192570000Y-108892500D03*
X192570000Y-109892500D03*
X192570000Y-110392500D03*
X192570000Y-111392500D03*
D25*
X192570000Y-112542500D03*
X192570000Y-113342500D03*
D27*
X193645000Y-107252500D03*
X193645000Y-113032500D03*
%TD*%
D28*
%TO.C,J302*%
X195250000Y-123212500D03*
D29*
X195250000Y-125712500D03*
%TD*%
D30*
%TO.C,J501*%
X152650000Y-142962500D03*
X150150000Y-142962500D03*
X147650000Y-142962500D03*
X145150000Y-142962500D03*
X142650000Y-142962500D03*
D31*
X140150000Y-142962500D03*
%TD*%
D30*
%TO.C,J503*%
X130710000Y-143002500D03*
X128210000Y-143002500D03*
X125710000Y-143002500D03*
X123210000Y-143002500D03*
X120710000Y-143002500D03*
D31*
X118210000Y-143002500D03*
%TD*%
D30*
%TO.C,J508*%
X157050000Y-80262500D03*
X159550000Y-80262500D03*
X162050000Y-80262500D03*
X164550000Y-80262500D03*
X167050000Y-80262500D03*
D32*
X169550000Y-80262500D03*
%TD*%
D33*
%TO.C,J509*%
X106050000Y-100262500D03*
X106050000Y-97762500D03*
X106050000Y-95262500D03*
X106050000Y-92762500D03*
X106050000Y-90262500D03*
D34*
X106050000Y-87762500D03*
%TD*%
D30*
%TO.C,J510*%
X119350000Y-80262500D03*
X121850000Y-80262500D03*
X124350000Y-80262500D03*
X126850000Y-80262500D03*
X129350000Y-80262500D03*
D32*
X131850000Y-80262500D03*
%TD*%
D30*
%TO.C,J511_OUT401*%
X153900000Y-64162500D03*
X151400000Y-64162500D03*
X148900000Y-64162500D03*
X146400000Y-64162500D03*
X143900000Y-64162500D03*
D31*
X141400000Y-64162500D03*
%TD*%
D35*
%TO.C,L301*%
X174430000Y-121352500D03*
X173460000Y-121352500D03*
%TD*%
D36*
%TO.C,Q301*%
X177950000Y-132362500D03*
X177950000Y-131712500D03*
X177950000Y-131062500D03*
X179625000Y-131062500D03*
X179625000Y-131712500D03*
X179625000Y-132362500D03*
%TD*%
D37*
%TO.C,Q302*%
X178800000Y-135937500D03*
X177850000Y-134062500D03*
X179750000Y-134062500D03*
%TD*%
D38*
%TO.C,Q303*%
X169460000Y-130491881D03*
X170750000Y-129991881D03*
X170750000Y-130991881D03*
%TD*%
D39*
%TO.C,R101*%
X174160000Y-127079381D03*
X174160000Y-128904381D03*
%TD*%
D40*
%TO.C,R202*%
X195860000Y-119312500D03*
X194840000Y-119312500D03*
%TD*%
%TO.C,R203*%
X194000000Y-103462500D03*
X192980000Y-103462500D03*
%TD*%
D39*
%TO.C,R205*%
X132200000Y-85200000D03*
X132200000Y-87025000D03*
%TD*%
D41*
%TO.C,R206*%
X127500000Y-86412500D03*
X129325000Y-86412500D03*
%TD*%
D42*
%TO.C,R207*%
X161200000Y-107752500D03*
X161200000Y-108772500D03*
%TD*%
D40*
%TO.C,R208*%
X164560000Y-124362500D03*
X163540000Y-124362500D03*
%TD*%
D43*
%TO.C,R301*%
X178340000Y-129962500D03*
X179360000Y-129962500D03*
%TD*%
%TO.C,R302*%
X189550000Y-108462500D03*
X190570000Y-108462500D03*
%TD*%
%TO.C,R303*%
X189550000Y-111462500D03*
X190570000Y-111462500D03*
%TD*%
D44*
%TO.C,R304*%
X181450000Y-133462500D03*
X181450000Y-132442500D03*
%TD*%
D40*
%TO.C,R305*%
X167500000Y-116037500D03*
X166480000Y-116037500D03*
%TD*%
D45*
%TO.C,R306*%
X189122500Y-125291881D03*
X183197500Y-125291881D03*
%TD*%
D40*
%TO.C,R307*%
X183720000Y-120541881D03*
X182700000Y-120541881D03*
%TD*%
D42*
%TO.C,R308*%
X169060000Y-127981881D03*
X169060000Y-129001881D03*
%TD*%
D40*
%TO.C,R309*%
X171080000Y-128891881D03*
X170060000Y-128891881D03*
%TD*%
D43*
%TO.C,R310*%
X170050000Y-127791881D03*
X171070000Y-127791881D03*
%TD*%
D44*
%TO.C,R311*%
X183685000Y-122526881D03*
X183685000Y-121506881D03*
%TD*%
D43*
%TO.C,R312*%
X166490000Y-114937500D03*
X167510000Y-114937500D03*
%TD*%
%TO.C,R313*%
X166480000Y-113837500D03*
X167500000Y-113837500D03*
%TD*%
%TO.C,R314*%
X173640000Y-131062500D03*
X174660000Y-131062500D03*
%TD*%
D44*
%TO.C,R315*%
X172350000Y-132062500D03*
X172350000Y-131042500D03*
%TD*%
D40*
%TO.C,R316*%
X168060000Y-127991881D03*
X167040000Y-127991881D03*
%TD*%
D42*
%TO.C,R317*%
X165135000Y-126256881D03*
X165135000Y-127276881D03*
%TD*%
D43*
%TO.C,R401*%
X151390000Y-57162500D03*
X152410000Y-57162500D03*
%TD*%
%TO.C,R402*%
X151390000Y-56162500D03*
X152410000Y-56162500D03*
%TD*%
D40*
%TO.C,R403*%
X142410000Y-59162500D03*
X141390000Y-59162500D03*
%TD*%
D46*
%TO.C,R404*%
X149137500Y-130262500D03*
X150962500Y-130262500D03*
%TD*%
D43*
%TO.C,R405*%
X140140000Y-133162500D03*
X141160000Y-133162500D03*
%TD*%
D40*
%TO.C,R406*%
X150260000Y-133062500D03*
X149240000Y-133062500D03*
%TD*%
D47*
%TO.C,R407*%
X141350000Y-130262500D03*
X139525000Y-130262500D03*
%TD*%
D43*
%TO.C,R408*%
X151390000Y-58162500D03*
X152410000Y-58162500D03*
%TD*%
D48*
%TO.C,SW101*%
X184010000Y-128291881D03*
X188110000Y-128291881D03*
X184010000Y-129891881D03*
X188110000Y-129891881D03*
%TD*%
%TO.C,SW201*%
X135500000Y-104562500D03*
X131400000Y-104562500D03*
X135500000Y-102962500D03*
X131400000Y-102962500D03*
%TD*%
D49*
%TO.C,TP301*%
X184350000Y-144462500D03*
%TD*%
%TO.C,TP302*%
X180550000Y-144512500D03*
%TD*%
%TO.C,TP303*%
X173700000Y-144462500D03*
%TD*%
%TO.C,TP304*%
X177150000Y-144512500D03*
%TD*%
%TO.C,TP305*%
X170150000Y-144412500D03*
%TD*%
D50*
%TO.C,U201*%
X141300000Y-95287500D03*
X141800000Y-95287500D03*
X142300000Y-95287500D03*
X142800000Y-95287500D03*
X143300000Y-95287500D03*
X143800000Y-95287500D03*
X144300000Y-95287500D03*
X144800000Y-95287500D03*
X145300000Y-95287500D03*
X145800000Y-95287500D03*
X146300000Y-95287500D03*
X146800000Y-95287500D03*
X147300000Y-95287500D03*
X147800000Y-95287500D03*
X148300000Y-95287500D03*
X148800000Y-95287500D03*
D51*
X150725000Y-97212500D03*
X150725000Y-97712500D03*
X150725000Y-98212500D03*
X150725000Y-98712500D03*
X150725000Y-99212500D03*
X150725000Y-99712500D03*
X150725000Y-100212500D03*
X150725000Y-100712500D03*
X150725000Y-101212500D03*
X150725000Y-101712500D03*
X150725000Y-102212500D03*
X150725000Y-102712500D03*
X150725000Y-103212500D03*
X150725000Y-103712500D03*
X150725000Y-104212500D03*
X150725000Y-104712500D03*
D50*
X148800000Y-106637500D03*
X148300000Y-106637500D03*
X147800000Y-106637500D03*
X147300000Y-106637500D03*
X146800000Y-106637500D03*
X146300000Y-106637500D03*
X145800000Y-106637500D03*
X145300000Y-106637500D03*
X144800000Y-106637500D03*
X144300000Y-106637500D03*
X143800000Y-106637500D03*
X143300000Y-106637500D03*
X142800000Y-106637500D03*
X142300000Y-106637500D03*
X141800000Y-106637500D03*
X141300000Y-106637500D03*
D51*
X139375000Y-104712500D03*
X139375000Y-104212500D03*
X139375000Y-103712500D03*
X139375000Y-103212500D03*
X139375000Y-102712500D03*
X139375000Y-102212500D03*
X139375000Y-101712500D03*
X139375000Y-101212500D03*
X139375000Y-100712500D03*
X139375000Y-100212500D03*
X139375000Y-99712500D03*
X139375000Y-99212500D03*
X139375000Y-98712500D03*
X139375000Y-98212500D03*
X139375000Y-97712500D03*
X139375000Y-97212500D03*
%TD*%
D52*
%TO.C,U301*%
X185050000Y-111362500D03*
X185050000Y-110412500D03*
X185050000Y-109462500D03*
X187325000Y-109462500D03*
X187325000Y-110412500D03*
X187325000Y-111362500D03*
%TD*%
D53*
%TO.C,U302*%
X168797500Y-124441881D03*
D54*
X167547500Y-122479381D03*
X168047500Y-122479381D03*
X168547500Y-122479381D03*
X169047500Y-122479381D03*
X169547500Y-122479381D03*
X170047500Y-122479381D03*
D55*
X170760000Y-123191881D03*
X170760000Y-123691881D03*
X170760000Y-124191881D03*
X170760000Y-124691881D03*
X170760000Y-125191881D03*
X170760000Y-125691881D03*
D54*
X170047500Y-126404381D03*
X169547500Y-126404381D03*
X169047500Y-126404381D03*
X168547500Y-126404381D03*
X168047500Y-126404381D03*
X167547500Y-126404381D03*
D55*
X166835000Y-125691881D03*
X166835000Y-125191881D03*
X166835000Y-124691881D03*
X166835000Y-124191881D03*
X166835000Y-123691881D03*
X166835000Y-123191881D03*
%TD*%
D56*
%TO.C,U303*%
X186660000Y-121791881D03*
X186160000Y-121791881D03*
X185660000Y-121791881D03*
X186660000Y-121291881D03*
X186160000Y-121291881D03*
X185660000Y-121291881D03*
X186660000Y-120791881D03*
X186160000Y-120791881D03*
X185660000Y-120791881D03*
%TD*%
D57*
%TO.C,U305*%
X177985000Y-116991881D03*
X177985000Y-118891881D03*
X175710000Y-118891881D03*
X175710000Y-117941881D03*
X175710000Y-116991881D03*
%TD*%
D58*
%TO.C,U401*%
X147400000Y-58075000D03*
X146900000Y-58075000D03*
X146400000Y-58075000D03*
D59*
X145737500Y-57912500D03*
X145737500Y-57412500D03*
X145737500Y-56912500D03*
X145737500Y-56412500D03*
D58*
X146400000Y-56250000D03*
X146900000Y-56250000D03*
X147400000Y-56250000D03*
D59*
X148062500Y-56412500D03*
X148062500Y-56912500D03*
X148062500Y-57412500D03*
X148062500Y-57912500D03*
%TD*%
D60*
%TO.C,U402*%
X145345000Y-130162500D03*
D61*
X143070000Y-127287500D03*
X143720000Y-127287500D03*
X144370000Y-127287500D03*
X145020000Y-127287500D03*
X145670000Y-127287500D03*
X146320000Y-127287500D03*
X146970000Y-127287500D03*
X147620000Y-127287500D03*
X147620000Y-133037500D03*
X146970000Y-133037500D03*
X146320000Y-133037500D03*
X145670000Y-133037500D03*
X145020000Y-133037500D03*
X144370000Y-133037500D03*
X143720000Y-133037500D03*
X143070000Y-133037500D03*
%TD*%
D52*
%TO.C,U501*%
X117225000Y-109562500D03*
X117225000Y-107662500D03*
X119500000Y-107662500D03*
X119500000Y-108612500D03*
X119500000Y-109562500D03*
%TD*%
D62*
%TO.C,Y201*%
X135150000Y-100362500D03*
X132950000Y-100362500D03*
X132950000Y-98562500D03*
X135150000Y-98562500D03*
%TD*%
D32*
%TO.C,J507*%
X182050000Y-80312500D03*
D30*
X179550000Y-80312500D03*
X177050000Y-80312500D03*
%TD*%
D34*
%TO.C,J511*%
X106050000Y-107162500D03*
D33*
X106050000Y-109662500D03*
X106050000Y-112162500D03*
%TD*%
D63*
%TO.C,H101*%
X110050000Y-79962500D03*
%TD*%
D32*
%TO.C,J504*%
X148750000Y-80302500D03*
D30*
X146250000Y-80302500D03*
X143750000Y-80302500D03*
X141250000Y-80302500D03*
X138750000Y-80302500D03*
%TD*%
D64*
%TO.C,JP301*%
X185775000Y-135962500D03*
D65*
X184325000Y-135962500D03*
%TD*%
D63*
%TO.C,H103*%
X110050000Y-139962500D03*
%TD*%
D66*
%TO.C,JP302*%
X176960000Y-123616881D03*
D67*
X176960000Y-122166881D03*
%TD*%
D34*
%TO.C,J502*%
X106050000Y-118412500D03*
D33*
X106050000Y-120912500D03*
X106050000Y-123412500D03*
%TD*%
D63*
%TO.C,H102*%
X190050000Y-79962500D03*
%TD*%
%TO.C,H501_OUT401*%
X161900000Y-60162500D03*
%TD*%
%TO.C,H104*%
X190050000Y-139962500D03*
%TD*%
D34*
%TO.C,J506*%
X106050000Y-129612500D03*
D33*
X106050000Y-132112500D03*
X106050000Y-134612500D03*
%TD*%
D63*
%TO.C,H502_OUT401*%
X133900000Y-60162500D03*
%TD*%
M02*
