M48
; DRILL file KiCad 10.0.6 date 2026-10-07T11:24:12
; FORMAT={-:-/ absolute / metric / decimal}
; #@! TF.CreationDate,2026-10-07T11:24:12+02:00
; #@! TF.GenerationSoftware,Kicad,Pcbnew,10.0.6
; #@! TF.FileFunction,Plated,1,4,PTH
FMAT,2
METRIC
; #@! TA.AperFunction,Plated,PTH,ViaDrill
T1C0.300
; #@! TA.AperFunction,Plated,PTH,ComponentDrill
T2C0.600
; #@! TA.AperFunction,Plated,PTH,ComponentDrill
T3C0.950
; #@! TA.AperFunction,Plated,PTH,ComponentDrill
T4C1.000
; #@! TA.AperFunction,Plated,PTH,ComponentDrill
T5C3.200
%
G90
G05
T1
X107.45Y-131.1
X107.6Y-92.3
X107.7Y-94.7
X107.75Y-99.2
X112.0Y-115.0
X112.0Y-121.0
X112.0Y-127.0
X112.0Y-134.0
X113.1Y-108.6
X114.8Y-110.5
X115.0Y-92.0
X115.0Y-97.0
X115.0Y-103.0
X115.4Y-109.15
X116.8Y-108.7
X117.3Y-80.0
X119.0Y-85.0
X119.0Y-89.0
X119.0Y-92.0
X119.0Y-97.0
X119.0Y-103.0
X119.9Y-133.05
X120.0Y-115.0
X120.0Y-127.0
X121.8Y-117.0
X122.25Y-115.4
X123.0Y-89.0
X123.0Y-92.0
X123.0Y-97.0
X123.0Y-103.0
X123.5Y-139.1
X123.5Y-141.2
X124.0Y-77.7
X126.0Y-110.0
X126.0Y-115.0
X126.35Y-85.3
X127.0Y-92.0
X127.0Y-97.0
X127.0Y-106.0
X127.0Y-127.0
X127.0Y-133.0
X128.0Y-81.6
X130.0Y-92.0
X130.1Y-99.7
X130.1Y-101.9
X130.1Y-123.4
X130.9Y-84.1
X131.5Y-113.0
X131.9Y-101.9
X131.9Y-138.8
X131.95Y-111.4
X132.0Y-82.0
X132.0Y-127.0
X132.0Y-133.0
X132.2Y-83.5
X132.6Y-113.7
X133.0Y-110.75
X133.25Y-109.1
X133.4Y-84.9
X134.0Y-101.5
X134.5Y-96.3
X134.675Y-107.775
X135.0Y-85.0
X135.3Y-80.1
X135.8Y-94.3
X136.0Y-107.0
X136.0Y-125.0
X136.0Y-133.0
X136.4Y-90.0
X136.7Y-98.2
X136.75Y-92.9
X137.0Y-107.0
X137.3Y-89.8
X137.35Y-90.75
X137.65Y-107.5
X138.05Y-114.6
X138.05Y-117.0
X138.2Y-105.0
X138.4Y-109.8
X139.0Y-60.0
X139.0Y-85.0
X139.0Y-117.0
X139.0Y-133.2
X139.1Y-105.9
X139.1Y-115.9
X139.3Y-81.9
X139.325Y-96.5
X139.901Y-120.999
X140.0Y-95.0
X140.3Y-122.0
X140.7Y-101.75
X140.726Y-103.282
X140.85Y-122.4
X140.9Y-97.2
X141.0Y-93.9
X141.15Y-105.0
X141.7Y-123.1
X141.85Y-119.2
X142.0Y-105.3
X142.3Y-81.9
X142.8Y-130.8
X143.2Y-124.7
X143.85Y-57.2
X143.9Y-92.7
X144.0Y-58.0
X144.0Y-60.0
X144.1Y-108.2
X144.2Y-119.2
X144.8Y-105.1
X144.963Y-126.129
X145.0Y-101.05
X145.1Y-139.3
X145.5Y-141.2
X145.896Y-93.452
X146.24Y-104.39
X146.3Y-122.4
X146.4Y-123.5
X146.5Y-108.3
X146.8Y-137.2
X146.85Y-57.2
X147.0Y-85.0
X147.1Y-81.8
X147.25Y-108.25
X147.6Y-90.5
X147.7Y-130.8
X148.24Y-104.6
X148.4Y-133.125
X148.45Y-89.9
X148.6Y-93.4
X149.0Y-88.8
X149.2Y-108.2
X149.2Y-109.5
X149.4Y-99.25
X149.675Y-106.675
X149.7Y-93.6
X149.85Y-60.7
X150.2Y-141.3
X150.5Y-80.0
X150.75Y-91.7
X151.1Y-95.1
X151.2Y-133.1
X151.3Y-90.9
X152.0Y-85.0
X152.0Y-94.5
X152.2Y-104.1
X153.4Y-99.8
X154.0Y-92.0
X154.4Y-99.7
X154.7Y-144.5
X155.0Y-61.0
X155.0Y-108.0
X155.0Y-113.0
X155.0Y-120.0
X155.0Y-126.0
X155.0Y-132.0
X155.0Y-137.0
X156.75Y-98.65
X157.0Y-85.0
X157.85Y-99.25
X158.0Y-92.0
X160.5Y-107.15
X160.6Y-86.5
X160.7Y-106.1
X160.8Y-102.8
X160.9Y-101.0
X161.95Y-110.45
X162.0Y-92.0
X162.0Y-97.0
X162.5Y-107.2
X162.6Y-108.9
X162.9Y-104.8
X163.2Y-81.7
X163.4Y-126.9
X163.8Y-133.5
X164.0Y-85.0
X164.0Y-110.4
X164.4Y-144.9
X164.6Y-138.4
X164.7Y-111.3
X164.7Y-122.2
X165.1Y-128.0
X165.2Y-125.1
X165.9Y-81.7
X166.0Y-92.0
X166.0Y-97.0
X166.2Y-127.2
X166.8Y-122.4
X167.0Y-128.8
X168.0Y-81.9
X168.4Y-116.1
X168.7Y-120.25
X169.0Y-85.0
X169.4Y-112.3
X169.6Y-116.8
X169.7Y-117.8
X169.8Y-118.8
X169.8Y-133.7
X170.0Y-92.0
X170.0Y-97.0
X171.0Y-132.1
X171.7Y-130.1
X172.1Y-127.85
X172.35Y-118.85
X172.35Y-127.117
X172.7Y-114.7
X172.85Y-123.35
X173.0Y-85.0
X173.1Y-128.1
X173.5Y-132.2
X173.6Y-138.2
X173.7Y-141.5
X174.0Y-92.0
X174.0Y-97.0
X174.2Y-116.6
X174.6Y-86.9
X174.8Y-130.1
X175.4Y-111.5
X175.46Y-119.9
X175.55Y-129.3
X175.8Y-108.8
X175.9Y-107.1
X176.6Y-120.0
X176.8Y-118.0
X176.9Y-116.2
X176.9Y-129.8
X177.0Y-104.8
X177.05Y-127.05
X177.8Y-132.95
X178.0Y-92.0
X178.0Y-97.0
X178.5Y-138.3
X178.9Y-142.6
X179.0Y-117.029
X179.3Y-123.0
X180.15Y-120.55
X180.2Y-116.0
X180.4Y-81.9
X180.5Y-129.3
X180.5Y-133.2
X180.5Y-142.3
X181.1Y-117.0
X181.4Y-122.8
X181.4Y-134.9
X181.55Y-125.35
X181.7Y-120.6
X182.0Y-85.0
X182.0Y-88.0
X182.0Y-92.0
X182.0Y-97.0
X182.0Y-104.0
X182.0Y-113.0
X182.27Y-114.0
X182.7Y-142.6
X183.0Y-137.5
X183.5Y-119.5
X184.4Y-122.4
X185.15Y-121.9
X185.7Y-133.4
X185.9Y-129.2
X186.0Y-85.0
X186.0Y-88.0
X186.0Y-92.0
X186.0Y-97.0
X186.0Y-104.0
X186.0Y-116.0
X186.1Y-110.5
X186.9Y-107.8
X187.25Y-120.7
X187.3Y-136.0
X187.45Y-122.55
X188.45Y-122.1
X188.5Y-108.5
X188.8Y-111.5
X188.8Y-135.1
X189.0Y-85.0
X189.0Y-88.0
X189.0Y-92.0
X189.0Y-97.0
X189.0Y-104.0
X189.2Y-110.2
X189.2Y-127.7
X190.0Y-116.0
X190.46Y-59.5
X190.8Y-130.8
X191.1Y-107.7
X191.2Y-112.6
X193.0Y-85.0
X193.0Y-88.0
X193.0Y-92.0
X193.0Y-97.0
X196.2Y-127.7
T3
X106.0Y-87.8
X106.0Y-90.3
X106.0Y-92.8
X106.0Y-95.3
X106.0Y-97.8
X106.0Y-100.3
X106.0Y-107.2
X106.0Y-109.7
X106.0Y-112.2
X106.0Y-118.45
X106.0Y-120.95
X106.0Y-123.45
X106.0Y-129.65
X106.0Y-132.15
X106.0Y-134.65
X118.16Y-143.04
X119.3Y-80.3
X120.66Y-143.04
X121.8Y-80.3
X123.16Y-143.04
X124.3Y-80.3
X125.66Y-143.04
X126.8Y-80.3
X128.16Y-143.04
X129.3Y-80.3
X130.66Y-143.04
X131.8Y-80.3
X138.7Y-80.34
X140.1Y-143.0
X141.2Y-80.34
X141.35Y-64.2
X142.6Y-143.0
X143.7Y-80.34
X143.85Y-64.2
X145.1Y-143.0
X146.2Y-80.34
X146.35Y-64.2
X147.6Y-143.0
X148.7Y-80.34
X148.85Y-64.2
X150.1Y-143.0
X151.35Y-64.2
X152.6Y-143.0
X153.85Y-64.2
X157.0Y-80.3
X159.5Y-80.3
X162.0Y-80.3
X164.5Y-80.3
X167.0Y-80.3
X169.5Y-80.3
X177.0Y-80.35
X179.5Y-80.35
X182.0Y-80.35
T4
X195.2Y-123.25
X195.2Y-125.75
T5
X110.0Y-80.0
X110.0Y-140.0
X133.85Y-60.2
X161.85Y-60.2
X190.0Y-80.0
X190.0Y-140.0
T2
G00X192.545Y-105.86
M15
G01X193.645Y-105.86
M16
G05
G00X192.545Y-114.5
M15
G01X193.645Y-114.5
M16
G05
G00X196.875Y-105.86
M15
G01X197.675Y-105.86
M16
G05
G00X196.875Y-114.5
M15
G01X197.675Y-114.5
M16
G05
M30
